<svg width="176" height="60" viewBox="0 0 176 60" fill="none" xmlns="http://www.w3.org/2000/svg">
<rect width="176" height="60" rx="8" fill="#5F5C6B"/>
<path d="M57.32 23C57.24 23 57.176 22.976 57.128 22.928C57.08 22.872 57.056 22.804 57.056 22.724V14.888C57.056 14.8 57.08 14.732 57.128 14.684C57.176 14.628 57.24 14.6 57.32 14.6H60.032C61.24 14.6 62.112 14.872 62.648 15.416C63.184 15.952 63.46 16.764 63.476 17.852C63.484 18.084 63.488 18.396 63.488 18.788C63.488 19.18 63.484 19.496 63.476 19.736C63.46 20.496 63.336 21.116 63.104 21.596C62.88 22.068 62.524 22.42 62.036 22.652C61.548 22.884 60.9 23 60.092 23H57.32ZM60.032 22.004C60.592 22.004 61.036 21.928 61.364 21.776C61.7 21.616 61.94 21.372 62.084 21.044C62.236 20.708 62.32 20.256 62.336 19.688C62.352 19.208 62.36 18.908 62.36 18.788C62.36 18.66 62.352 18.364 62.336 17.9C62.32 17.1 62.128 16.516 61.76 16.148C61.4 15.772 60.804 15.584 59.972 15.584H58.184V22.004H60.032ZM67.6937 23.12C66.8137 23.12 66.1337 22.872 65.6537 22.376C65.1817 21.88 64.9297 21.22 64.8977 20.396L64.8857 19.88L64.8977 19.364C64.9297 18.54 65.1857 17.88 65.6657 17.384C66.1537 16.888 66.8297 16.64 67.6937 16.64C68.5577 16.64 69.2297 16.888 69.7097 17.384C70.1977 17.88 70.4577 18.54 70.4897 19.364C70.5057 19.54 70.5137 19.712 70.5137 19.88C70.5137 20.048 70.5057 20.22 70.4897 20.396C70.4577 21.22 70.2017 21.88 69.7217 22.376C69.2497 22.872 68.5737 23.12 67.6937 23.12ZM67.6937 22.22C68.2057 22.22 68.6097 22.06 68.9057 21.74C69.2097 21.412 69.3737 20.944 69.3977 20.336C69.4057 20.256 69.4097 20.104 69.4097 19.88C69.4097 19.656 69.4057 19.504 69.3977 19.424C69.3737 18.816 69.2097 18.352 68.9057 18.032C68.6097 17.704 68.2057 17.54 67.6937 17.54C67.1817 17.54 66.7737 17.704 66.4697 18.032C66.1737 18.352 66.0137 18.816 65.9897 19.424L65.9777 19.88L65.9897 20.336C66.0137 20.944 66.1737 21.412 66.4697 21.74C66.7737 22.06 67.1817 22.22 67.6937 22.22ZM73.5208 23C73.4088 23 73.3248 22.976 73.2688 22.928C73.2128 22.88 73.1688 22.804 73.1368 22.7L71.4328 17.132L71.4088 17.012C71.4088 16.94 71.4328 16.88 71.4808 16.832C71.5288 16.784 71.5888 16.76 71.6608 16.76H72.1528C72.2328 16.76 72.2968 16.784 72.3448 16.832C72.4008 16.872 72.4328 16.912 72.4408 16.952L73.7968 21.536L75.2368 17.012C75.2528 16.948 75.2888 16.892 75.3448 16.844C75.4008 16.788 75.4768 16.76 75.5728 16.76H75.9568C76.0528 16.76 76.1288 16.788 76.1848 16.844C76.2408 16.892 76.2768 16.948 76.2928 17.012L77.7328 21.536L79.0888 16.952C79.0968 16.912 79.1248 16.872 79.1728 16.832C79.2288 16.784 79.2968 16.76 79.3768 16.76H79.8688C79.9408 16.76 80.0008 16.784 80.0488 16.832C80.0968 16.88 80.1208 16.94 80.1208 17.012L80.0968 17.132L78.3928 22.7C78.3608 22.804 78.3168 22.88 78.2608 22.928C78.2048 22.976 78.1208 23 78.0088 23H77.5768C77.3688 23 77.2328 22.9 77.1688 22.7L75.7648 18.356L74.3608 22.7C74.2968 22.9 74.1608 23 73.9528 23H73.5208ZM81.7385 23C81.6585 23 81.5905 22.976 81.5345 22.928C81.4865 22.872 81.4625 22.804 81.4625 22.724V17.036C81.4625 16.956 81.4865 16.892 81.5345 16.844C81.5905 16.788 81.6585 16.76 81.7385 16.76H82.2545C82.3425 16.76 82.4105 16.784 82.4585 16.832C82.5065 16.88 82.5305 16.948 82.5305 17.036V17.564C82.7705 17.268 83.0465 17.04 83.3585 16.88C83.6785 16.72 84.0745 16.64 84.5465 16.64C85.3145 16.64 85.9105 16.888 86.3345 17.384C86.7585 17.872 86.9705 18.52 86.9705 19.328V22.724C86.9705 22.804 86.9425 22.872 86.8865 22.928C86.8385 22.976 86.7745 23 86.6945 23H86.1425C86.0625 23 85.9945 22.976 85.9385 22.928C85.8905 22.872 85.8665 22.804 85.8665 22.724V19.4C85.8665 18.824 85.7265 18.376 85.4465 18.056C85.1665 17.736 84.7665 17.576 84.2465 17.576C83.7345 17.576 83.3265 17.74 83.0225 18.068C82.7185 18.388 82.5665 18.832 82.5665 19.4V22.724C82.5665 22.804 82.5385 22.872 82.4825 22.928C82.4345 22.976 82.3705 23 82.2905 23H81.7385ZM88.9927 23C88.9127 23 88.8447 22.976 88.7887 22.928C88.7407 22.872 88.7167 22.804 88.7167 22.724V14.756C88.7167 14.668 88.7407 14.6 88.7887 14.552C88.8447 14.504 88.9127 14.48 88.9927 14.48H89.5207C89.6007 14.48 89.6647 14.508 89.7127 14.564C89.7687 14.612 89.7967 14.676 89.7967 14.756V22.724C89.7967 22.804 89.7687 22.872 89.7127 22.928C89.6647 22.976 89.6007 23 89.5207 23H88.9927ZM94.1312 23.12C93.2512 23.12 92.5712 22.872 92.0912 22.376C91.6192 21.88 91.3672 21.22 91.3352 20.396L91.3232 19.88L91.3352 19.364C91.3672 18.54 91.6232 17.88 92.1032 17.384C92.5912 16.888 93.2672 16.64 94.1312 16.64C94.9952 16.64 95.6672 16.888 96.1472 17.384C96.6352 17.88 96.8952 18.54 96.9272 19.364C96.9432 19.54 96.9512 19.712 96.9512 19.88C96.9512 20.048 96.9432 20.22 96.9272 20.396C96.8952 21.22 96.6392 21.88 96.1592 22.376C95.6872 22.872 95.0112 23.12 94.1312 23.12ZM94.1312 22.22C94.6432 22.22 95.0472 22.06 95.3432 21.74C95.6472 21.412 95.8112 20.944 95.8352 20.336C95.8432 20.256 95.8472 20.104 95.8472 19.88C95.8472 19.656 95.8432 19.504 95.8352 19.424C95.8112 18.816 95.6472 18.352 95.3432 18.032C95.0472 17.704 94.6432 17.54 94.1312 17.54C93.6192 17.54 93.2112 17.704 92.9072 18.032C92.6112 18.352 92.4512 18.816 92.4272 19.424L92.4152 19.88L92.4272 20.336C92.4512 20.944 92.6112 21.412 92.9072 21.74C93.2112 22.06 93.6192 22.22 94.1312 22.22ZM100.194 23.12C99.8024 23.12 99.4384 23.04 99.1024 22.88C98.7744 22.72 98.5104 22.504 98.3104 22.232C98.1184 21.952 98.0224 21.644 98.0224 21.308C98.0224 20.78 98.2384 20.348 98.6704 20.012C99.1024 19.676 99.6904 19.452 100.434 19.34L102.234 19.088V18.74C102.234 17.916 101.758 17.504 100.806 17.504C100.438 17.504 100.142 17.58 99.9184 17.732C99.6944 17.876 99.5304 18.048 99.4264 18.248C99.3944 18.328 99.3584 18.384 99.3184 18.416C99.2864 18.44 99.2384 18.452 99.1744 18.452H98.7064C98.6344 18.452 98.5704 18.428 98.5144 18.38C98.4664 18.324 98.4424 18.26 98.4424 18.188C98.4424 18.004 98.5264 17.792 98.6944 17.552C98.8704 17.304 99.1384 17.092 99.4984 16.916C99.8584 16.732 100.298 16.64 100.818 16.64C101.714 16.64 102.354 16.848 102.738 17.264C103.13 17.68 103.326 18.2 103.326 18.824V22.724C103.326 22.804 103.298 22.872 103.242 22.928C103.194 22.976 103.13 23 103.05 23H102.522C102.442 23 102.378 22.976 102.33 22.928C102.282 22.872 102.258 22.804 102.258 22.724V22.196C102.082 22.46 101.826 22.68 101.49 22.856C101.154 23.032 100.722 23.12 100.194 23.12ZM100.434 22.244C100.962 22.244 101.394 22.072 101.73 21.728C102.066 21.384 102.234 20.884 102.234 20.228V19.892L100.83 20.096C100.254 20.176 99.8184 20.312 99.5224 20.504C99.2264 20.696 99.0784 20.936 99.0784 21.224C99.0784 21.552 99.2104 21.804 99.4744 21.98C99.7464 22.156 100.066 22.244 100.434 22.244ZM107.344 23.12C106.504 23.12 105.872 22.848 105.448 22.304C105.032 21.76 104.808 21.072 104.776 20.24L104.764 19.88L104.776 19.52C104.808 18.696 105.036 18.012 105.46 17.468C105.884 16.916 106.512 16.64 107.344 16.64C108.176 16.64 108.824 16.936 109.288 17.528V14.756C109.288 14.676 109.312 14.612 109.36 14.564C109.416 14.508 109.484 14.48 109.564 14.48H110.104C110.184 14.48 110.248 14.508 110.296 14.564C110.352 14.612 110.38 14.676 110.38 14.756V22.724C110.38 22.804 110.352 22.872 110.296 22.928C110.248 22.976 110.184 23 110.104 23H109.588C109.508 23 109.444 22.976 109.396 22.928C109.348 22.872 109.324 22.804 109.324 22.724V22.208C108.868 22.816 108.208 23.12 107.344 23.12ZM107.572 22.184C108.132 22.184 108.552 22 108.832 21.632C109.112 21.256 109.264 20.812 109.288 20.3C109.296 20.212 109.3 20.06 109.3 19.844C109.3 19.62 109.296 19.464 109.288 19.376C109.272 18.888 109.116 18.468 108.82 18.116C108.532 17.756 108.116 17.576 107.572 17.576C106.996 17.576 106.576 17.756 106.312 18.116C106.048 18.476 105.904 18.948 105.88 19.532L105.868 19.88C105.868 21.416 106.436 22.184 107.572 22.184ZM116.986 23C116.778 23 116.63 22.9 116.542 22.7L114.31 17.132C114.302 17.108 114.298 17.068 114.298 17.012C114.298 16.94 114.322 16.88 114.37 16.832C114.418 16.784 114.474 16.76 114.538 16.76H115.09C115.218 16.76 115.314 16.824 115.378 16.952L117.226 21.74L119.074 16.952C119.09 16.904 119.122 16.86 119.17 16.82C119.226 16.78 119.29 16.76 119.362 16.76H119.914C119.978 16.76 120.034 16.784 120.082 16.832C120.13 16.88 120.154 16.94 120.154 17.012L120.13 17.132L117.91 22.7C117.822 22.9 117.674 23 117.466 23H116.986ZM121.615 15.584C121.535 15.584 121.467 15.56 121.411 15.512C121.363 15.456 121.339 15.388 121.339 15.308V14.684C121.339 14.604 121.363 14.536 121.411 14.48C121.467 14.424 121.535 14.396 121.615 14.396H122.323C122.403 14.396 122.471 14.424 122.527 14.48C122.583 14.536 122.611 14.604 122.611 14.684V15.308C122.611 15.388 122.583 15.456 122.527 15.512C122.471 15.56 122.403 15.584 122.323 15.584H121.615ZM121.711 23C121.631 23 121.563 22.976 121.507 22.928C121.459 22.872 121.435 22.804 121.435 22.724V17.036C121.435 16.956 121.459 16.892 121.507 16.844C121.563 16.788 121.631 16.76 121.711 16.76H122.239C122.319 16.76 122.383 16.788 122.431 16.844C122.487 16.892 122.515 16.956 122.515 17.036V22.724C122.515 22.804 122.487 22.872 122.431 22.928C122.383 22.976 122.319 23 122.239 23H121.711ZM126.046 23.12C125.654 23.12 125.29 23.04 124.954 22.88C124.626 22.72 124.362 22.504 124.162 22.232C123.97 21.952 123.874 21.644 123.874 21.308C123.874 20.78 124.09 20.348 124.522 20.012C124.954 19.676 125.542 19.452 126.286 19.34L128.086 19.088V18.74C128.086 17.916 127.61 17.504 126.658 17.504C126.29 17.504 125.994 17.58 125.77 17.732C125.546 17.876 125.382 18.048 125.278 18.248C125.246 18.328 125.21 18.384 125.17 18.416C125.138 18.44 125.09 18.452 125.026 18.452H124.558C124.486 18.452 124.422 18.428 124.366 18.38C124.318 18.324 124.294 18.26 124.294 18.188C124.294 18.004 124.378 17.792 124.546 17.552C124.722 17.304 124.99 17.092 125.35 16.916C125.71 16.732 126.15 16.64 126.67 16.64C127.566 16.64 128.206 16.848 128.59 17.264C128.982 17.68 129.178 18.2 129.178 18.824V22.724C129.178 22.804 129.15 22.872 129.094 22.928C129.046 22.976 128.982 23 128.902 23H128.374C128.294 23 128.23 22.976 128.182 22.928C128.134 22.872 128.11 22.804 128.11 22.724V22.196C127.934 22.46 127.678 22.68 127.342 22.856C127.006 23.032 126.574 23.12 126.046 23.12ZM126.286 22.244C126.814 22.244 127.246 22.072 127.582 21.728C127.918 21.384 128.086 20.884 128.086 20.228V19.892L126.682 20.096C126.106 20.176 125.67 20.312 125.374 20.504C125.078 20.696 124.93 20.936 124.93 21.224C124.93 21.552 125.062 21.804 125.326 21.98C125.598 22.156 125.918 22.244 126.286 22.244Z" fill="white"/>
<path d="M61.776 43.16C60.2293 43.16 59.0187 42.7867 58.144 42.04C57.2693 41.2827 56.8053 40.2053 56.752 38.808C56.7413 38.5093 56.736 38.024 56.736 37.352C56.736 36.68 56.7413 36.1893 56.752 35.88C56.7947 34.536 57.2587 33.496 58.144 32.76C59.04 32.0133 60.2507 31.64 61.776 31.64C62.8 31.64 63.6907 31.8053 64.448 32.136C65.216 32.4667 65.7973 32.8933 66.192 33.416C66.5973 33.928 66.8107 34.456 66.832 35C66.832 35.096 66.7947 35.1813 66.72 35.256C66.656 35.32 66.576 35.352 66.48 35.352H64C63.8933 35.352 63.808 35.336 63.744 35.304C63.6907 35.2613 63.6373 35.2027 63.584 35.128C63.456 34.8293 63.248 34.5733 62.96 34.36C62.6827 34.1467 62.288 34.04 61.776 34.04C60.5387 34.04 59.8987 34.68 59.856 35.96C59.8453 36.2587 59.84 36.7173 59.84 37.336C59.84 37.9547 59.8453 38.4187 59.856 38.728C59.8987 40.0827 60.5493 40.76 61.808 40.76C62.4267 40.76 62.9173 40.6053 63.28 40.296C63.6427 39.9867 63.824 39.5173 63.824 38.888V38.6H62.4C62.2827 38.6 62.1813 38.5627 62.096 38.488C62.0213 38.4027 61.984 38.3013 61.984 38.184V36.936C61.984 36.8187 62.0213 36.7227 62.096 36.648C62.1813 36.5627 62.2827 36.52 62.4 36.52H66.464C66.5813 36.52 66.6773 36.5627 66.752 36.648C66.8373 36.7227 66.88 36.8187 66.88 36.936V38.792C66.88 39.6987 66.6667 40.4827 66.24 41.144C65.824 41.7947 65.232 42.296 64.464 42.648C63.696 42.9893 62.8 43.16 61.776 43.16ZM72.4745 43.16C71.1305 43.16 70.0958 42.8507 69.3705 42.232C68.6558 41.6027 68.2665 40.712 68.2025 39.56C68.1918 39.4213 68.1865 39.1813 68.1865 38.84C68.1865 38.4987 68.1918 38.2587 68.2025 38.12C68.2665 36.9893 68.6665 36.1093 69.4025 35.48C70.1492 34.84 71.1732 34.52 72.4745 34.52C73.7758 34.52 74.7945 34.84 75.5305 35.48C76.2772 36.1093 76.6825 36.9893 76.7465 38.12C76.7678 38.3973 76.7785 38.6373 76.7785 38.84C76.7785 39.0427 76.7678 39.2827 76.7465 39.56C76.6825 40.712 76.2878 41.6027 75.5625 42.232C74.8478 42.8507 73.8185 43.16 72.4745 43.16ZM72.4745 41.144C72.9118 41.144 73.2372 41.0107 73.4505 40.744C73.6638 40.4667 73.7865 40.0453 73.8185 39.48C73.8292 39.3733 73.8345 39.16 73.8345 38.84C73.8345 38.52 73.8292 38.3067 73.8185 38.2C73.7865 37.6453 73.6638 37.2293 73.4505 36.952C73.2372 36.6747 72.9118 36.536 72.4745 36.536C72.0372 36.536 71.7118 36.6747 71.4985 36.952C71.2852 37.2293 71.1625 37.6453 71.1305 38.2L71.1145 38.84L71.1305 39.48C71.1625 40.0453 71.2852 40.4667 71.4985 40.744C71.7118 41.0107 72.0372 41.144 72.4745 41.144ZM82.3026 43.16C80.9586 43.16 79.924 42.8507 79.1986 42.232C78.484 41.6027 78.0946 40.712 78.0306 39.56C78.02 39.4213 78.0146 39.1813 78.0146 38.84C78.0146 38.4987 78.02 38.2587 78.0306 38.12C78.0946 36.9893 78.4946 36.1093 79.2306 35.48C79.9773 34.84 81.0013 34.52 82.3026 34.52C83.604 34.52 84.6226 34.84 85.3586 35.48C86.1053 36.1093 86.5106 36.9893 86.5746 38.12C86.596 38.3973 86.6066 38.6373 86.6066 38.84C86.6066 39.0427 86.596 39.2827 86.5746 39.56C86.5106 40.712 86.116 41.6027 85.3906 42.232C84.676 42.8507 83.6466 43.16 82.3026 43.16ZM82.3026 41.144C82.74 41.144 83.0653 41.0107 83.2786 40.744C83.492 40.4667 83.6146 40.0453 83.6466 39.48C83.6573 39.3733 83.6626 39.16 83.6626 38.84C83.6626 38.52 83.6573 38.3067 83.6466 38.2C83.6146 37.6453 83.492 37.2293 83.2786 36.952C83.0653 36.6747 82.74 36.536 82.3026 36.536C81.8653 36.536 81.54 36.6747 81.3266 36.952C81.1133 37.2293 80.9906 37.6453 80.9586 38.2L80.9426 38.84L80.9586 39.48C80.9906 40.0453 81.1133 40.4667 81.3266 40.744C81.54 41.0107 81.8653 41.144 82.3026 41.144ZM92.2908 46.52C91.2668 46.52 90.4348 46.3547 89.7948 46.024C89.1548 45.6933 88.6961 45.3093 88.4188 44.872C88.1414 44.4453 88.0028 44.088 88.0028 43.8C88.0028 43.6933 88.0454 43.6027 88.1308 43.528C88.2161 43.4533 88.3121 43.416 88.4188 43.416H90.5628C90.6694 43.416 90.7548 43.4373 90.8188 43.48C90.8828 43.5333 90.9414 43.6187 90.9948 43.736C91.1014 43.9707 91.2401 44.152 91.4108 44.28C91.5814 44.4187 91.8481 44.488 92.2108 44.488C92.6694 44.488 93.0108 44.3707 93.2348 44.136C93.4588 43.912 93.5708 43.5333 93.5708 43V41.928C93.0054 42.5147 92.2321 42.808 91.2508 42.808C90.1734 42.808 89.3468 42.4987 88.7708 41.88C88.2054 41.2507 87.8961 40.328 87.8428 39.112L87.8268 38.68C87.8268 37.3787 88.1148 36.36 88.6908 35.624C89.2774 34.888 90.1308 34.52 91.2508 34.52C91.7948 34.52 92.2748 34.6267 92.6908 34.84C93.1068 35.0427 93.4534 35.32 93.7308 35.672V35.096C93.7308 34.9787 93.7681 34.8827 93.8428 34.808C93.9174 34.7227 94.0134 34.68 94.1308 34.68H96.0828C96.2001 34.68 96.2961 34.7227 96.3708 34.808C96.4561 34.8827 96.4988 34.9787 96.4988 35.096V42.76C96.4988 43.9867 96.1308 44.92 95.3948 45.56C94.6588 46.2 93.6241 46.52 92.2908 46.52ZM92.1628 40.648C92.6214 40.648 92.9628 40.5093 93.1868 40.232C93.4108 39.9547 93.5388 39.6027 93.5708 39.176C93.5814 39.1013 93.5868 38.9413 93.5868 38.696C93.5868 38.44 93.5814 38.28 93.5708 38.216C93.5388 37.7787 93.4108 37.4267 93.1868 37.16C92.9628 36.8827 92.6214 36.744 92.1628 36.744C91.6934 36.744 91.3521 36.888 91.1388 37.176C90.9254 37.4533 90.8081 37.8427 90.7868 38.344L90.7708 38.696C90.7708 39.304 90.8721 39.784 91.0748 40.136C91.2774 40.4773 91.6401 40.648 92.1628 40.648ZM98.7499 43C98.6325 43 98.5312 42.9627 98.4459 42.888C98.3712 42.8133 98.3339 42.7173 98.3339 42.6V32.04C98.3339 31.9227 98.3712 31.8267 98.4459 31.752C98.5312 31.6773 98.6325 31.64 98.7499 31.64H100.75C100.867 31.64 100.963 31.6773 101.038 31.752C101.113 31.8267 101.15 31.9227 101.15 32.04V42.6C101.15 42.7067 101.113 42.8027 101.038 42.888C100.963 42.9627 100.867 43 100.75 43H98.7499ZM106.879 43.16C105.577 43.16 104.553 42.8133 103.807 42.12C103.06 41.416 102.676 40.3973 102.655 39.064V38.568C102.697 37.2987 103.092 36.3067 103.839 35.592C104.585 34.8773 105.593 34.52 106.863 34.52C107.78 34.52 108.553 34.7067 109.183 35.08C109.823 35.4427 110.297 35.9493 110.607 36.6C110.927 37.24 111.087 37.9707 111.087 38.792V39.192C111.087 39.3093 111.044 39.4107 110.959 39.496C110.884 39.5707 110.788 39.608 110.671 39.608H105.599V39.704C105.609 40.184 105.721 40.5733 105.935 40.872C106.148 41.16 106.452 41.304 106.847 41.304C107.103 41.304 107.305 41.256 107.455 41.16C107.615 41.0533 107.764 40.92 107.903 40.76C107.999 40.6533 108.073 40.5893 108.127 40.568C108.191 40.536 108.287 40.52 108.415 40.52H110.51C110.606 40.52 110.687 40.552 110.751 40.616C110.825 40.6693 110.863 40.7387 110.863 40.824C110.863 41.1013 110.703 41.4267 110.383 41.8C110.073 42.1733 109.615 42.4933 109.007 42.76C108.409 43.0267 107.7 43.16 106.879 43.16ZM108.143 37.976V37.944C108.143 37.432 108.031 37.0373 107.807 36.76C107.583 36.472 107.268 36.328 106.863 36.328C106.457 36.328 106.143 36.472 105.919 36.76C105.705 37.0373 105.599 37.432 105.599 37.944V37.976H108.143ZM116.457 43C116.35 43 116.254 42.9627 116.169 42.888C116.094 42.8027 116.057 42.7067 116.057 42.6V32.216C116.057 32.0987 116.094 32.0027 116.169 31.928C116.243 31.8427 116.339 31.8 116.457 31.8H120.985C122.371 31.8 123.459 32.1147 124.249 32.744C125.038 33.3733 125.433 34.296 125.433 35.512C125.433 36.728 125.038 37.64 124.249 38.248C123.459 38.8453 122.371 39.144 120.985 39.144H119.161V42.6C119.161 42.7067 119.123 42.8027 119.049 42.888C118.974 42.9627 118.878 43 118.761 43H116.457ZM120.905 36.856C121.342 36.856 121.683 36.744 121.929 36.52C122.185 36.2853 122.313 35.944 122.313 35.496C122.313 35.08 122.195 34.744 121.961 34.488C121.737 34.232 121.385 34.104 120.905 34.104H119.113V36.856H120.905ZM127.156 43C127.039 43 126.937 42.9627 126.852 42.888C126.777 42.8133 126.74 42.7173 126.74 42.6V32.04C126.74 31.9227 126.777 31.8267 126.852 31.752C126.937 31.6773 127.039 31.64 127.156 31.64H129.156C129.273 31.64 129.369 31.6773 129.444 31.752C129.519 31.8267 129.556 31.9227 129.556 32.04V42.6C129.556 42.7067 129.519 42.8027 129.444 42.888C129.369 42.9627 129.273 43 129.156 43H127.156ZM133.893 43.16C133.327 43.16 132.81 43.0533 132.341 42.84C131.882 42.616 131.519 42.312 131.253 41.928C130.997 41.544 130.869 41.1227 130.869 40.664C130.869 39.9387 131.167 39.352 131.765 38.904C132.373 38.4453 133.205 38.1307 134.261 37.96L136.245 37.656V37.464C136.245 37.0693 136.165 36.7813 136.005 36.6C135.845 36.4187 135.573 36.328 135.189 36.328C134.975 36.328 134.794 36.3653 134.645 36.44C134.506 36.5147 134.346 36.6267 134.165 36.776C134.026 36.8933 133.903 36.9787 133.797 37.032C133.754 37.1067 133.701 37.144 133.637 37.144H131.781C131.674 37.144 131.583 37.112 131.509 37.048C131.445 36.9733 131.418 36.888 131.429 36.792C131.439 36.504 131.583 36.184 131.861 35.832C132.138 35.4693 132.559 35.16 133.125 34.904C133.69 34.648 134.389 34.52 135.221 34.52C136.543 34.52 137.525 34.8133 138.165 35.4C138.805 35.976 139.125 36.76 139.125 37.752V42.6C139.125 42.7067 139.087 42.8027 139.013 42.888C138.938 42.9627 138.842 43 138.725 43H136.757C136.65 43 136.554 42.9627 136.469 42.888C136.394 42.8027 136.357 42.7067 136.357 42.6V42.04C136.122 42.3707 135.797 42.6427 135.381 42.856C134.965 43.0587 134.469 43.16 133.893 43.16ZM134.693 41.272C135.162 41.272 135.541 41.1173 135.829 40.808C136.127 40.4987 136.277 40.0507 136.277 39.464V39.272L134.949 39.496C134.053 39.6667 133.605 39.9867 133.605 40.456C133.605 40.7013 133.706 40.8987 133.909 41.048C134.122 41.1973 134.383 41.272 134.693 41.272ZM142.152 46.04C142.056 46.04 141.976 46.008 141.912 45.944C141.848 45.88 141.816 45.8 141.816 45.704C141.816 45.6293 141.827 45.56 141.848 45.496L143.112 42.488L140.04 35.224C140.008 35.1387 139.992 35.08 139.992 35.048C140.013 34.9413 140.056 34.856 140.12 34.792C140.195 34.7173 140.28 34.68 140.376 34.68H142.28C142.504 34.68 142.659 34.792 142.744 35.016L144.52 39.56L146.344 35.016C146.451 34.792 146.611 34.68 146.824 34.68H148.712C148.808 34.68 148.888 34.7173 148.952 34.792C149.027 34.856 149.064 34.9307 149.064 35.016C149.064 35.0907 149.053 35.16 149.032 35.224L144.504 45.704C144.397 45.928 144.232 46.04 144.008 46.04H142.152Z" fill="white"/>
<path d="M35.8024 27.9854L25.6477 17.6099L38.5674 25.1678L35.8024 27.9854ZM22.9982 17C22.3997 17.3188 22 17.9002 22 18.6549V39.3451C22 40.0998 22.4005 40.6812 22.9982 41L34.8049 28.9974L22.9982 17ZM42.5611 27.5773L39.8513 25.9787L36.8286 29.0026L39.8513 32.0265L42.6164 30.4279C43.4446 29.758 43.4446 28.248 42.5611 27.5773ZM25.6484 40.3961L38.5682 32.8382L35.8031 30.0206L25.6484 40.3961Z" fill="white"/>
</svg>
