<svg width="176" height="60" viewBox="0 0 176 60" fill="none" xmlns="http://www.w3.org/2000/svg">
<rect width="176" height="60" rx="8" fill="#5F5C6B"/>
<path d="M57.32 23C57.24 23 57.176 22.976 57.128 22.928C57.08 22.872 57.056 22.804 57.056 22.724V14.888C57.056 14.8 57.08 14.732 57.128 14.684C57.176 14.628 57.24 14.6 57.32 14.6H60.032C61.24 14.6 62.112 14.872 62.648 15.416C63.184 15.952 63.46 16.764 63.476 17.852C63.484 18.084 63.488 18.396 63.488 18.788C63.488 19.18 63.484 19.496 63.476 19.736C63.46 20.496 63.336 21.116 63.104 21.596C62.88 22.068 62.524 22.42 62.036 22.652C61.548 22.884 60.9 23 60.092 23H57.32ZM60.032 22.004C60.592 22.004 61.036 21.928 61.364 21.776C61.7 21.616 61.94 21.372 62.084 21.044C62.236 20.708 62.32 20.256 62.336 19.688C62.352 19.208 62.36 18.908 62.36 18.788C62.36 18.66 62.352 18.364 62.336 17.9C62.32 17.1 62.128 16.516 61.76 16.148C61.4 15.772 60.804 15.584 59.972 15.584H58.184V22.004H60.032ZM67.6937 23.12C66.8137 23.12 66.1337 22.872 65.6537 22.376C65.1817 21.88 64.9297 21.22 64.8977 20.396L64.8857 19.88L64.8977 19.364C64.9297 18.54 65.1857 17.88 65.6657 17.384C66.1537 16.888 66.8297 16.64 67.6937 16.64C68.5577 16.64 69.2297 16.888 69.7097 17.384C70.1977 17.88 70.4577 18.54 70.4897 19.364C70.5057 19.54 70.5137 19.712 70.5137 19.88C70.5137 20.048 70.5057 20.22 70.4897 20.396C70.4577 21.22 70.2017 21.88 69.7217 22.376C69.2497 22.872 68.5737 23.12 67.6937 23.12ZM67.6937 22.22C68.2057 22.22 68.6097 22.06 68.9057 21.74C69.2097 21.412 69.3737 20.944 69.3977 20.336C69.4057 20.256 69.4097 20.104 69.4097 19.88C69.4097 19.656 69.4057 19.504 69.3977 19.424C69.3737 18.816 69.2097 18.352 68.9057 18.032C68.6097 17.704 68.2057 17.54 67.6937 17.54C67.1817 17.54 66.7737 17.704 66.4697 18.032C66.1737 18.352 66.0137 18.816 65.9897 19.424L65.9777 19.88L65.9897 20.336C66.0137 20.944 66.1737 21.412 66.4697 21.74C66.7737 22.06 67.1817 22.22 67.6937 22.22ZM73.5208 23C73.4088 23 73.3248 22.976 73.2688 22.928C73.2128 22.88 73.1688 22.804 73.1368 22.7L71.4328 17.132L71.4088 17.012C71.4088 16.94 71.4328 16.88 71.4808 16.832C71.5288 16.784 71.5888 16.76 71.6608 16.76H72.1528C72.2328 16.76 72.2968 16.784 72.3448 16.832C72.4008 16.872 72.4328 16.912 72.4408 16.952L73.7968 21.536L75.2368 17.012C75.2528 16.948 75.2888 16.892 75.3448 16.844C75.4008 16.788 75.4768 16.76 75.5728 16.76H75.9568C76.0528 16.76 76.1288 16.788 76.1848 16.844C76.2408 16.892 76.2768 16.948 76.2928 17.012L77.7328 21.536L79.0888 16.952C79.0968 16.912 79.1248 16.872 79.1728 16.832C79.2288 16.784 79.2968 16.76 79.3768 16.76H79.8688C79.9408 16.76 80.0008 16.784 80.0488 16.832C80.0968 16.88 80.1208 16.94 80.1208 17.012L80.0968 17.132L78.3928 22.7C78.3608 22.804 78.3168 22.88 78.2608 22.928C78.2048 22.976 78.1208 23 78.0088 23H77.5768C77.3688 23 77.2328 22.9 77.1688 22.7L75.7648 18.356L74.3608 22.7C74.2968 22.9 74.1608 23 73.9528 23H73.5208ZM81.7385 23C81.6585 23 81.5905 22.976 81.5345 22.928C81.4865 22.872 81.4625 22.804 81.4625 22.724V17.036C81.4625 16.956 81.4865 16.892 81.5345 16.844C81.5905 16.788 81.6585 16.76 81.7385 16.76H82.2545C82.3425 16.76 82.4105 16.784 82.4585 16.832C82.5065 16.88 82.5305 16.948 82.5305 17.036V17.564C82.7705 17.268 83.0465 17.04 83.3585 16.88C83.6785 16.72 84.0745 16.64 84.5465 16.64C85.3145 16.64 85.9105 16.888 86.3345 17.384C86.7585 17.872 86.9705 18.52 86.9705 19.328V22.724C86.9705 22.804 86.9425 22.872 86.8865 22.928C86.8385 22.976 86.7745 23 86.6945 23H86.1425C86.0625 23 85.9945 22.976 85.9385 22.928C85.8905 22.872 85.8665 22.804 85.8665 22.724V19.4C85.8665 18.824 85.7265 18.376 85.4465 18.056C85.1665 17.736 84.7665 17.576 84.2465 17.576C83.7345 17.576 83.3265 17.74 83.0225 18.068C82.7185 18.388 82.5665 18.832 82.5665 19.4V22.724C82.5665 22.804 82.5385 22.872 82.4825 22.928C82.4345 22.976 82.3705 23 82.2905 23H81.7385ZM88.9927 23C88.9127 23 88.8447 22.976 88.7887 22.928C88.7407 22.872 88.7167 22.804 88.7167 22.724V14.756C88.7167 14.668 88.7407 14.6 88.7887 14.552C88.8447 14.504 88.9127 14.48 88.9927 14.48H89.5207C89.6007 14.48 89.6647 14.508 89.7127 14.564C89.7687 14.612 89.7967 14.676 89.7967 14.756V22.724C89.7967 22.804 89.7687 22.872 89.7127 22.928C89.6647 22.976 89.6007 23 89.5207 23H88.9927ZM94.1312 23.12C93.2512 23.12 92.5712 22.872 92.0912 22.376C91.6192 21.88 91.3672 21.22 91.3352 20.396L91.3232 19.88L91.3352 19.364C91.3672 18.54 91.6232 17.88 92.1032 17.384C92.5912 16.888 93.2672 16.64 94.1312 16.64C94.9952 16.64 95.6672 16.888 96.1472 17.384C96.6352 17.88 96.8952 18.54 96.9272 19.364C96.9432 19.54 96.9512 19.712 96.9512 19.88C96.9512 20.048 96.9432 20.22 96.9272 20.396C96.8952 21.22 96.6392 21.88 96.1592 22.376C95.6872 22.872 95.0112 23.12 94.1312 23.12ZM94.1312 22.22C94.6432 22.22 95.0472 22.06 95.3432 21.74C95.6472 21.412 95.8112 20.944 95.8352 20.336C95.8432 20.256 95.8472 20.104 95.8472 19.88C95.8472 19.656 95.8432 19.504 95.8352 19.424C95.8112 18.816 95.6472 18.352 95.3432 18.032C95.0472 17.704 94.6432 17.54 94.1312 17.54C93.6192 17.54 93.2112 17.704 92.9072 18.032C92.6112 18.352 92.4512 18.816 92.4272 19.424L92.4152 19.88L92.4272 20.336C92.4512 20.944 92.6112 21.412 92.9072 21.74C93.2112 22.06 93.6192 22.22 94.1312 22.22ZM100.194 23.12C99.8024 23.12 99.4384 23.04 99.1024 22.88C98.7744 22.72 98.5104 22.504 98.3104 22.232C98.1184 21.952 98.0224 21.644 98.0224 21.308C98.0224 20.78 98.2384 20.348 98.6704 20.012C99.1024 19.676 99.6904 19.452 100.434 19.34L102.234 19.088V18.74C102.234 17.916 101.758 17.504 100.806 17.504C100.438 17.504 100.142 17.58 99.9184 17.732C99.6944 17.876 99.5304 18.048 99.4264 18.248C99.3944 18.328 99.3584 18.384 99.3184 18.416C99.2864 18.44 99.2384 18.452 99.1744 18.452H98.7064C98.6344 18.452 98.5704 18.428 98.5144 18.38C98.4664 18.324 98.4424 18.26 98.4424 18.188C98.4424 18.004 98.5264 17.792 98.6944 17.552C98.8704 17.304 99.1384 17.092 99.4984 16.916C99.8584 16.732 100.298 16.64 100.818 16.64C101.714 16.64 102.354 16.848 102.738 17.264C103.13 17.68 103.326 18.2 103.326 18.824V22.724C103.326 22.804 103.298 22.872 103.242 22.928C103.194 22.976 103.13 23 103.05 23H102.522C102.442 23 102.378 22.976 102.33 22.928C102.282 22.872 102.258 22.804 102.258 22.724V22.196C102.082 22.46 101.826 22.68 101.49 22.856C101.154 23.032 100.722 23.12 100.194 23.12ZM100.434 22.244C100.962 22.244 101.394 22.072 101.73 21.728C102.066 21.384 102.234 20.884 102.234 20.228V19.892L100.83 20.096C100.254 20.176 99.8184 20.312 99.5224 20.504C99.2264 20.696 99.0784 20.936 99.0784 21.224C99.0784 21.552 99.2104 21.804 99.4744 21.98C99.7464 22.156 100.066 22.244 100.434 22.244ZM107.344 23.12C106.504 23.12 105.872 22.848 105.448 22.304C105.032 21.76 104.808 21.072 104.776 20.24L104.764 19.88L104.776 19.52C104.808 18.696 105.036 18.012 105.46 17.468C105.884 16.916 106.512 16.64 107.344 16.64C108.176 16.64 108.824 16.936 109.288 17.528V14.756C109.288 14.676 109.312 14.612 109.36 14.564C109.416 14.508 109.484 14.48 109.564 14.48H110.104C110.184 14.48 110.248 14.508 110.296 14.564C110.352 14.612 110.38 14.676 110.38 14.756V22.724C110.38 22.804 110.352 22.872 110.296 22.928C110.248 22.976 110.184 23 110.104 23H109.588C109.508 23 109.444 22.976 109.396 22.928C109.348 22.872 109.324 22.804 109.324 22.724V22.208C108.868 22.816 108.208 23.12 107.344 23.12ZM107.572 22.184C108.132 22.184 108.552 22 108.832 21.632C109.112 21.256 109.264 20.812 109.288 20.3C109.296 20.212 109.3 20.06 109.3 19.844C109.3 19.62 109.296 19.464 109.288 19.376C109.272 18.888 109.116 18.468 108.82 18.116C108.532 17.756 108.116 17.576 107.572 17.576C106.996 17.576 106.576 17.756 106.312 18.116C106.048 18.476 105.904 18.948 105.88 19.532L105.868 19.88C105.868 21.416 106.436 22.184 107.572 22.184ZM116.986 23C116.778 23 116.63 22.9 116.542 22.7L114.31 17.132C114.302 17.108 114.298 17.068 114.298 17.012C114.298 16.94 114.322 16.88 114.37 16.832C114.418 16.784 114.474 16.76 114.538 16.76H115.09C115.218 16.76 115.314 16.824 115.378 16.952L117.226 21.74L119.074 16.952C119.09 16.904 119.122 16.86 119.17 16.82C119.226 16.78 119.29 16.76 119.362 16.76H119.914C119.978 16.76 120.034 16.784 120.082 16.832C120.13 16.88 120.154 16.94 120.154 17.012L120.13 17.132L117.91 22.7C117.822 22.9 117.674 23 117.466 23H116.986ZM121.615 15.584C121.535 15.584 121.467 15.56 121.411 15.512C121.363 15.456 121.339 15.388 121.339 15.308V14.684C121.339 14.604 121.363 14.536 121.411 14.48C121.467 14.424 121.535 14.396 121.615 14.396H122.323C122.403 14.396 122.471 14.424 122.527 14.48C122.583 14.536 122.611 14.604 122.611 14.684V15.308C122.611 15.388 122.583 15.456 122.527 15.512C122.471 15.56 122.403 15.584 122.323 15.584H121.615ZM121.711 23C121.631 23 121.563 22.976 121.507 22.928C121.459 22.872 121.435 22.804 121.435 22.724V17.036C121.435 16.956 121.459 16.892 121.507 16.844C121.563 16.788 121.631 16.76 121.711 16.76H122.239C122.319 16.76 122.383 16.788 122.431 16.844C122.487 16.892 122.515 16.956 122.515 17.036V22.724C122.515 22.804 122.487 22.872 122.431 22.928C122.383 22.976 122.319 23 122.239 23H121.711ZM126.046 23.12C125.654 23.12 125.29 23.04 124.954 22.88C124.626 22.72 124.362 22.504 124.162 22.232C123.97 21.952 123.874 21.644 123.874 21.308C123.874 20.78 124.09 20.348 124.522 20.012C124.954 19.676 125.542 19.452 126.286 19.34L128.086 19.088V18.74C128.086 17.916 127.61 17.504 126.658 17.504C126.29 17.504 125.994 17.58 125.77 17.732C125.546 17.876 125.382 18.048 125.278 18.248C125.246 18.328 125.21 18.384 125.17 18.416C125.138 18.44 125.09 18.452 125.026 18.452H124.558C124.486 18.452 124.422 18.428 124.366 18.38C124.318 18.324 124.294 18.26 124.294 18.188C124.294 18.004 124.378 17.792 124.546 17.552C124.722 17.304 124.99 17.092 125.35 16.916C125.71 16.732 126.15 16.64 126.67 16.64C127.566 16.64 128.206 16.848 128.59 17.264C128.982 17.68 129.178 18.2 129.178 18.824V22.724C129.178 22.804 129.15 22.872 129.094 22.928C129.046 22.976 128.982 23 128.902 23H128.374C128.294 23 128.23 22.976 128.182 22.928C128.134 22.872 128.11 22.804 128.11 22.724V22.196C127.934 22.46 127.678 22.68 127.342 22.856C127.006 23.032 126.574 23.12 126.046 23.12ZM126.286 22.244C126.814 22.244 127.246 22.072 127.582 21.728C127.918 21.384 128.086 20.884 128.086 20.228V19.892L126.682 20.096C126.106 20.176 125.67 20.312 125.374 20.504C125.078 20.696 124.93 20.936 124.93 21.224C124.93 21.552 125.062 21.804 125.326 21.98C125.598 22.156 125.918 22.244 126.286 22.244Z" fill="white"/>
<path d="M56.464 43C56.3787 43 56.2987 42.968 56.224 42.904C56.16 42.8293 56.128 42.7493 56.128 42.664C56.128 42.6 56.1333 42.552 56.144 42.52L59.872 32.264C59.9787 31.9547 60.192 31.8 60.512 31.8H63.008C63.328 31.8 63.5413 31.9547 63.648 32.264L67.376 42.52C67.3867 42.552 67.392 42.6 67.392 42.664C67.392 42.7493 67.3547 42.8293 67.28 42.904C67.216 42.968 67.1413 43 67.056 43H64.976C64.72 43 64.5387 42.8827 64.432 42.648L63.856 41.096H59.664L59.088 42.648C58.9813 42.8827 58.8 43 58.544 43H56.464ZM60.336 38.696H63.184L61.76 34.616L60.336 38.696ZM68.8436 46.04C68.7263 46.04 68.625 46.0027 68.5396 45.928C68.465 45.8533 68.4276 45.7573 68.4276 45.64V35.08C68.4276 34.9627 68.465 34.8667 68.5396 34.792C68.625 34.7173 68.7263 34.68 68.8436 34.68H70.7476C70.865 34.68 70.961 34.7173 71.0356 34.792C71.1103 34.8667 71.1476 34.9627 71.1476 35.08V35.656C71.7236 34.8987 72.5503 34.52 73.6276 34.52C74.6623 34.52 75.473 34.8453 76.0596 35.496C76.657 36.136 76.977 37.0533 77.0196 38.248C77.0303 38.3867 77.0356 38.584 77.0356 38.84C77.0356 39.096 77.0303 39.2987 77.0196 39.448C76.977 40.6 76.657 41.5067 76.0596 42.168C75.4623 42.8293 74.6516 43.16 73.6276 43.16C72.593 43.16 71.8196 42.808 71.3076 42.104V45.64C71.3076 45.7573 71.2703 45.8533 71.1956 45.928C71.121 46.0027 71.025 46.04 70.9076 46.04H68.8436ZM72.6996 40.936C73.1796 40.936 73.521 40.7973 73.7236 40.52C73.937 40.232 74.0596 39.8373 74.0916 39.336C74.1023 39.2293 74.1076 39.064 74.1076 38.84C74.1076 38.616 74.1023 38.4507 74.0916 38.344C74.0596 37.8427 73.937 37.4533 73.7236 37.176C73.521 36.888 73.1796 36.744 72.6996 36.744C72.241 36.744 71.8996 36.8933 71.6756 37.192C71.4516 37.48 71.329 37.848 71.3076 38.296C71.297 38.4347 71.2916 38.6373 71.2916 38.904C71.2916 39.16 71.297 39.3573 71.3076 39.496C71.329 39.912 71.4516 40.2587 71.6756 40.536C71.9103 40.8027 72.2516 40.936 72.6996 40.936ZM78.9843 46.04C78.8669 46.04 78.7656 46.0027 78.6803 45.928C78.6056 45.8533 78.5683 45.7573 78.5683 45.64V35.08C78.5683 34.9627 78.6056 34.8667 78.6803 34.792C78.7656 34.7173 78.8669 34.68 78.9843 34.68H80.8883C81.0056 34.68 81.1016 34.7173 81.1763 34.792C81.2509 34.8667 81.2883 34.9627 81.2883 35.08V35.656C81.8643 34.8987 82.6909 34.52 83.7683 34.52C84.8029 34.52 85.6136 34.8453 86.2003 35.496C86.7976 36.136 87.1176 37.0533 87.1603 38.248C87.1709 38.3867 87.1763 38.584 87.1763 38.84C87.1763 39.096 87.1709 39.2987 87.1603 39.448C87.1176 40.6 86.7976 41.5067 86.2003 42.168C85.6029 42.8293 84.7923 43.16 83.7683 43.16C82.7336 43.16 81.9603 42.808 81.4483 42.104V45.64C81.4483 45.7573 81.4109 45.8533 81.3363 45.928C81.2616 46.0027 81.1656 46.04 81.0483 46.04H78.9843ZM82.8403 40.936C83.3203 40.936 83.6616 40.7973 83.8643 40.52C84.0776 40.232 84.2003 39.8373 84.2323 39.336C84.2429 39.2293 84.2483 39.064 84.2483 38.84C84.2483 38.616 84.2429 38.4507 84.2323 38.344C84.2003 37.8427 84.0776 37.4533 83.8643 37.176C83.6616 36.888 83.3203 36.744 82.8403 36.744C82.3816 36.744 82.0403 36.8933 81.8163 37.192C81.5923 37.48 81.4696 37.848 81.4483 38.296C81.4376 38.4347 81.4323 38.6373 81.4323 38.904C81.4323 39.16 81.4376 39.3573 81.4483 39.496C81.4696 39.912 81.5923 40.2587 81.8163 40.536C82.0509 40.8027 82.3923 40.936 82.8403 40.936ZM89.1249 43C89.0075 43 88.9062 42.9627 88.8209 42.888C88.7462 42.8133 88.7089 42.7173 88.7089 42.6V32.04C88.7089 31.9227 88.7462 31.8267 88.8209 31.752C88.9062 31.6773 89.0075 31.64 89.1249 31.64H91.1249C91.2422 31.64 91.3382 31.6773 91.4129 31.752C91.4875 31.8267 91.5249 31.9227 91.5249 32.04V42.6C91.5249 42.7067 91.4875 42.8027 91.4129 42.888C91.3382 42.9627 91.2422 43 91.1249 43H89.1249ZM97.2535 43.16C95.9522 43.16 94.9282 42.8133 94.1815 42.12C93.4348 41.416 93.0508 40.3973 93.0295 39.064V38.568C93.0722 37.2987 93.4668 36.3067 94.2135 35.592C94.9602 34.8773 95.9682 34.52 97.2375 34.52C98.1548 34.52 98.9282 34.7067 99.5575 35.08C100.198 35.4427 100.672 35.9493 100.982 36.6C101.302 37.24 101.462 37.9707 101.462 38.792V39.192C101.462 39.3093 101.419 39.4107 101.334 39.496C101.259 39.5707 101.163 39.608 101.046 39.608H95.9735V39.704C95.9842 40.184 96.0962 40.5733 96.3095 40.872C96.5228 41.16 96.8268 41.304 97.2215 41.304C97.4775 41.304 97.6802 41.256 97.8295 41.16C97.9895 41.0533 98.1388 40.92 98.2775 40.76C98.3735 40.6533 98.4482 40.5893 98.5015 40.568C98.5655 40.536 98.6615 40.52 98.7895 40.52H100.885C100.981 40.52 101.062 40.552 101.126 40.616C101.2 40.6693 101.238 40.7387 101.238 40.824C101.238 41.1013 101.078 41.4267 100.758 41.8C100.448 42.1733 99.9895 42.4933 99.3815 42.76C98.7842 43.0267 98.0748 43.16 97.2535 43.16ZM98.5175 37.976V37.944C98.5175 37.432 98.4055 37.0373 98.1815 36.76C97.9575 36.472 97.6428 36.328 97.2375 36.328C96.8322 36.328 96.5175 36.472 96.2935 36.76C96.0802 37.0373 95.9735 37.432 95.9735 37.944V37.976H98.5175ZM110.672 43.16C109.637 43.16 108.757 43.0107 108.032 42.712C107.306 42.4133 106.757 42.0187 106.384 41.528C106.01 41.0373 105.813 40.504 105.792 39.928C105.792 39.832 105.824 39.752 105.888 39.688C105.962 39.624 106.048 39.592 106.144 39.592H108.272C108.4 39.592 108.501 39.6133 108.576 39.656C108.661 39.6987 108.752 39.7733 108.848 39.88C108.986 40.136 109.2 40.3493 109.488 40.52C109.786 40.68 110.181 40.76 110.672 40.76C111.248 40.76 111.69 40.6747 112 40.504C112.309 40.3227 112.464 40.0773 112.464 39.768C112.464 39.544 112.384 39.3627 112.224 39.224C112.064 39.0747 111.808 38.9467 111.456 38.84C111.104 38.7227 110.597 38.5947 109.936 38.456C108.645 38.2 107.68 37.8107 107.04 37.288C106.4 36.7653 106.08 36.0187 106.08 35.048C106.08 34.3867 106.261 33.8 106.624 33.288C106.997 32.7653 107.52 32.36 108.192 32.072C108.874 31.784 109.664 31.64 110.56 31.64C111.498 31.64 112.309 31.8053 112.992 32.136C113.685 32.456 114.213 32.8613 114.576 33.352C114.949 33.832 115.146 34.3067 115.168 34.776C115.168 34.872 115.136 34.9573 115.072 35.032C115.008 35.096 114.928 35.128 114.832 35.128H112.592C112.357 35.128 112.176 35.032 112.048 34.84C111.984 34.616 111.818 34.4293 111.552 34.28C111.285 34.12 110.954 34.04 110.56 34.04C110.112 34.04 109.765 34.12 109.52 34.28C109.274 34.44 109.152 34.6747 109.152 34.984C109.152 35.2933 109.312 35.5387 109.632 35.72C109.952 35.8907 110.549 36.0667 111.424 36.248C112.426 36.4293 113.221 36.6587 113.808 36.936C114.405 37.2027 114.842 37.5547 115.12 37.992C115.408 38.4187 115.552 38.9627 115.552 39.624C115.552 40.3493 115.344 40.9787 114.928 41.512C114.512 42.0453 113.936 42.456 113.2 42.744C112.464 43.0213 111.621 43.16 110.672 43.16ZM121.28 43C119.019 43 117.888 41.9387 117.888 39.816V36.856H116.624C116.517 36.856 116.421 36.8187 116.336 36.744C116.261 36.6587 116.224 36.5627 116.224 36.456V35.08C116.224 34.9627 116.261 34.8667 116.336 34.792C116.421 34.7173 116.517 34.68 116.624 34.68H117.888V32.04C117.888 31.9227 117.925 31.8267 118 31.752C118.085 31.6773 118.181 31.64 118.288 31.64H120.256C120.373 31.64 120.469 31.6773 120.544 31.752C120.619 31.8267 120.656 31.9227 120.656 32.04V34.68H122.656C122.773 34.68 122.869 34.7173 122.944 34.792C123.029 34.8667 123.072 34.9627 123.072 35.08V36.456C123.072 36.5733 123.029 36.6693 122.944 36.744C122.869 36.8187 122.773 36.856 122.656 36.856H120.656V39.576C120.656 39.9493 120.725 40.232 120.864 40.424C121.003 40.616 121.227 40.712 121.536 40.712H122.8C122.917 40.712 123.013 40.7547 123.088 40.84C123.163 40.9147 123.2 41.0107 123.2 41.128V42.6C123.2 42.7067 123.163 42.8027 123.088 42.888C123.013 42.9627 122.917 43 122.8 43H121.28ZM128.49 43.16C127.146 43.16 126.111 42.8507 125.386 42.232C124.671 41.6027 124.282 40.712 124.218 39.56C124.207 39.4213 124.202 39.1813 124.202 38.84C124.202 38.4987 124.207 38.2587 124.218 38.12C124.282 36.9893 124.682 36.1093 125.418 35.48C126.165 34.84 127.189 34.52 128.49 34.52C129.791 34.52 130.81 34.84 131.546 35.48C132.293 36.1093 132.698 36.9893 132.762 38.12C132.783 38.3973 132.794 38.6373 132.794 38.84C132.794 39.0427 132.783 39.2827 132.762 39.56C132.698 40.712 132.303 41.6027 131.578 42.232C130.863 42.8507 129.834 43.16 128.49 43.16ZM128.49 41.144C128.927 41.144 129.253 41.0107 129.466 40.744C129.679 40.4667 129.802 40.0453 129.834 39.48C129.845 39.3733 129.85 39.16 129.85 38.84C129.85 38.52 129.845 38.3067 129.834 38.2C129.802 37.6453 129.679 37.2293 129.466 36.952C129.253 36.6747 128.927 36.536 128.49 36.536C128.053 36.536 127.727 36.6747 127.514 36.952C127.301 37.2293 127.178 37.6453 127.146 38.2L127.13 38.84L127.146 39.48C127.178 40.0453 127.301 40.4667 127.514 40.744C127.727 41.0107 128.053 41.144 128.49 41.144ZM134.718 43C134.612 43 134.516 42.9627 134.43 42.888C134.356 42.8027 134.318 42.7067 134.318 42.6V35.096C134.318 34.9787 134.356 34.8827 134.43 34.808C134.505 34.7227 134.601 34.68 134.718 34.68H136.67C136.788 34.68 136.884 34.7227 136.958 34.808C137.044 34.8827 137.086 34.9787 137.086 35.096V35.704C137.385 35.3733 137.732 35.1227 138.126 34.952C138.532 34.7707 138.98 34.68 139.47 34.68H140.19C140.308 34.68 140.404 34.7173 140.478 34.792C140.553 34.8667 140.59 34.9627 140.59 35.08V36.824C140.59 36.9307 140.553 37.0267 140.478 37.112C140.404 37.1867 140.308 37.224 140.19 37.224H138.574C138.148 37.224 137.817 37.3413 137.582 37.576C137.358 37.8107 137.246 38.1413 137.246 38.568V42.6C137.246 42.7173 137.204 42.8133 137.118 42.888C137.044 42.9627 136.948 43 136.83 43H134.718ZM145.535 43.16C144.233 43.16 143.209 42.8133 142.463 42.12C141.716 41.416 141.332 40.3973 141.311 39.064V38.568C141.353 37.2987 141.748 36.3067 142.495 35.592C143.241 34.8773 144.249 34.52 145.519 34.52C146.436 34.52 147.209 34.7067 147.839 35.08C148.479 35.4427 148.953 35.9493 149.263 36.6C149.583 37.24 149.743 37.9707 149.743 38.792V39.192C149.743 39.3093 149.7 39.4107 149.615 39.496C149.54 39.5707 149.444 39.608 149.327 39.608H144.255V39.704C144.265 40.184 144.377 40.5733 144.591 40.872C144.804 41.16 145.108 41.304 145.503 41.304C145.759 41.304 145.961 41.256 146.111 41.16C146.271 41.0533 146.42 40.92 146.559 40.76C146.655 40.6533 146.729 40.5893 146.783 40.568C146.847 40.536 146.943 40.52 147.071 40.52H149.167C149.263 40.52 149.343 40.552 149.407 40.616C149.481 40.6693 149.519 40.7387 149.519 40.824C149.519 41.1013 149.359 41.4267 149.039 41.8C148.729 42.1733 148.271 42.4933 147.663 42.76C147.065 43.0267 146.356 43.16 145.535 43.16ZM146.799 37.976V37.944C146.799 37.432 146.687 37.0373 146.463 36.76C146.239 36.472 145.924 36.328 145.519 36.328C145.113 36.328 144.799 36.472 144.575 36.76C144.361 37.0373 144.255 37.432 144.255 37.944V37.976H146.799Z" fill="white"/>
<path d="M26.7018 40.4639C26.1434 40.0968 25.6486 39.6432 25.2363 39.1205C24.7827 38.581 24.3625 38.015 23.9779 37.4256C23.0753 36.1188 22.3675 34.6905 21.8761 33.1847C21.2858 31.4355 21 29.7589 21 28.119C21 26.2876 21.4009 24.6889 22.185 23.3455C22.7662 22.2955 23.6207 21.4181 24.6602 20.804C25.6675 20.1856 26.825 19.8472 28.0106 19.8244C28.4257 19.8244 28.8726 19.8839 29.3469 19.9976C29.6876 20.0929 30.1027 20.2434 30.6097 20.4305C31.2549 20.6763 31.6097 20.8267 31.7301 20.8634C32.108 20.9999 32.4257 21.0593 32.6752 21.0593C32.8646 21.0593 33.1319 20.9999 33.4354 20.9089C33.6062 20.8494 33.9283 20.7445 34.3894 20.5495C34.846 20.385 35.2053 20.2442 35.4911 20.1393C35.9292 20.0116 36.3531 19.8935 36.731 19.834C37.1789 19.7642 37.6336 19.7458 38.0858 19.7789C38.8696 19.8296 39.6415 19.9937 40.377 20.2661C41.5796 20.7445 42.5522 21.4914 43.2761 22.5531C42.9701 22.7395 42.683 22.9545 42.4186 23.1951C41.843 23.6994 41.3528 24.2914 40.9664 24.9486C40.4613 25.8469 40.1995 26.8588 40.2062 27.8864C40.2248 29.1484 40.5522 30.26 41.1973 31.2212C41.6716 31.9336 42.288 32.5428 43.0088 33.0115C43.3779 33.2573 43.6956 33.4261 44 33.5397C43.8575 33.977 43.7053 34.4003 43.5257 34.8201C43.1182 35.7616 42.6244 36.6641 42.0504 37.5165C41.5389 38.2503 41.1381 38.7969 40.8336 39.1607C40.3593 39.7161 39.9027 40.1403 39.4416 40.4359C38.9345 40.7682 38.3354 40.9458 37.7265 40.9458C37.3142 40.9614 36.902 40.9121 36.5053 40.7997C36.1646 40.686 35.8274 40.5627 35.4956 40.4219C35.1506 40.2653 34.7948 40.1329 34.431 40.0257C33.5316 39.7974 32.5886 39.7959 31.6885 40.0213C31.3195 40.1263 30.9646 40.2487 30.6142 40.3992C30.1212 40.6038 29.7938 40.7411 29.6044 40.7997C29.2265 40.909 28.8345 40.9773 28.4381 41C27.8248 41 27.2531 40.8268 26.6867 40.4761L26.7018 40.4639ZM34.7903 18.9358C33.9885 19.332 33.223 19.5008 32.4628 19.4457C32.3434 18.6892 32.4628 17.9152 32.7805 17.0677C33.051 16.3497 33.4507 15.686 33.9602 15.1086C34.4982 14.5008 35.1511 14.0026 35.8823 13.6419C36.6611 13.2458 37.4035 13.0315 38.1133 13C38.2053 13.7924 38.1133 14.5716 37.8186 15.4139C37.5459 16.1584 37.147 16.8516 36.6389 17.4639C36.1204 18.0726 35.4841 18.5727 34.7673 18.935L34.7903 18.9358Z" fill="white"/>
</svg>
