<svg width="296" height="464" viewBox="0 0 296 464" fill="none" xmlns="http://www.w3.org/2000/svg">
<path d="M87.7607 204.322L104.1 203.51L120.735 175.528L112.829 170.557C112.829 170.557 83.2387 163.786 69.648 192.177C69.648 192.177 63.1014 206.547 68.919 209.962C72.7661 212.236 78.4359 198.766 87.7607 204.322Z" fill="#474854"/>
<path opacity="0.21" d="M87.7607 204.322L104.1 203.51L120.735 175.528L112.829 170.557C112.829 170.557 83.2387 163.786 69.648 192.177C69.648 192.177 63.1014 206.547 68.919 209.962C72.7661 212.236 78.4359 198.766 87.7607 204.322Z" fill="#27272D"/>
<path d="M76.613 198.885C76.613 198.885 74.5097 203.643 74.9924 206.965C78.2681 204.234 82.4306 201.188 87.7654 204.323L100.164 203.747L108.277 190.105L103.193 186.941C103.213 186.896 84.4798 182.118 76.613 198.885Z" fill="#474854"/>
<path opacity="0.1" d="M69.722 194.79C83.3127 166.394 112.903 173.171 112.903 173.171L119.602 177.388L120.735 175.523L112.829 170.553C112.829 170.553 83.2388 163.781 69.6481 192.172C69.6481 192.172 65.7517 200.636 66.6285 206.119C66.8995 200.892 69.722 194.79 69.722 194.79Z" fill="white"/>
<path d="M190.092 265.13L182.955 250.415L199.589 222.433L207.747 226.965C207.747 226.965 227.855 249.746 209.436 275.243C209.436 275.243 199.974 287.871 194.186 284.412C190.299 282.113 199.417 270.686 190.092 265.13Z" fill="#474854"/>
<path opacity="0.21" d="M190.092 265.13L182.955 250.415L199.589 222.433L207.747 226.965C207.747 226.965 227.855 249.746 209.436 275.243C209.436 275.243 199.974 287.871 194.186 284.412C190.299 282.113 199.417 270.686 190.092 265.13Z" fill="#27272D"/>
<path d="M200.185 272.301C200.185 272.301 197.028 276.449 193.87 277.556C194.712 273.359 195.382 268.245 190.053 265.106L184.723 253.954L192.836 240.312L198.067 243.216C198.042 243.26 211.145 257.379 200.185 272.301Z" fill="#474854"/>
<path opacity="0.1" d="M207.116 276.42C225.529 250.927 205.427 228.147 205.427 228.147L198.525 224.279L199.658 222.413L207.816 226.946C207.816 226.946 227.923 249.731 209.505 275.219C209.505 275.219 203.9 282.694 198.673 284.54C203.067 281.808 207.116 276.42 207.116 276.42Z" fill="white"/>
<path d="M150.995 237.005L165.098 213.299L209.836 229.633L193.339 262.143L150.995 237.005Z" fill="#F2F2F2"/>
<path d="M88.79 200.002L109.39 170.326L145.202 201.409L131.099 225.115L88.79 200.002Z" fill="#F2F2F2"/>
<path d="M249.726 55.7485C250.603 54.2278 250.888 52.7514 250.287 52.4069C249.691 52.0625 248.534 52.9827 247.613 54.4739C246.736 55.9946 246.45 57.471 247.051 57.8155C247.647 58.1649 248.869 57.2298 249.726 55.7485Z" fill="#EDEDF4"/>
<path opacity="0.15" d="M249.918 55.3154C249.918 55.3154 248.46 58.032 247.169 57.5054C246.568 57.2642 246.977 55.8617 247.608 54.4739L247.583 54.5132C246.706 56.0339 246.445 57.4709 247.022 57.8548C247.618 58.1993 248.78 57.279 249.657 55.7633C249.751 55.6009 249.849 55.4384 249.918 55.3154Z" fill="#73737F"/>
<path d="M249.509 55.6255C250.292 54.2721 250.548 52.9384 249.992 52.6185C249.48 52.3233 248.371 53.1599 247.588 54.5132C246.805 55.8666 246.549 57.2003 247.105 57.5202C247.618 57.8204 248.726 56.9788 249.509 55.6255Z" fill="white"/>
<path d="M249.509 55.6255C250.292 54.2721 250.523 52.9827 250.011 52.6875C249.499 52.3922 248.455 53.214 247.627 54.5428C246.844 55.8962 246.612 57.1855 247.125 57.4808C247.642 57.7761 248.706 56.9149 249.509 55.6255Z" fill="#BCBCCC"/>
<path d="M249.509 55.6255C250.243 54.3508 250.519 53.0861 250.051 52.8154C249.583 52.5447 248.603 53.3469 247.8 54.6363C247.066 55.9109 246.79 57.1757 247.258 57.4463C247.731 57.7219 248.731 56.8755 249.509 55.6255Z" fill="#73737F"/>
<path d="M247.095 56.2553C247.051 56.2307 247.204 55.7681 247.524 55.5171C247.248 55.7976 247.095 56.2553 247.095 56.2553Z" fill="#8F8F99"/>
<path d="M248.913 53.2041C248.913 53.2041 248.593 53.5634 248.484 53.9423L248.44 53.9177C248.548 53.5387 248.913 53.2041 248.913 53.2041Z" fill="#8F8F99"/>
<path opacity="0.15" d="M247.632 54.4344C248.312 53.4551 249.125 52.9384 249.549 53.1844C250.016 53.4551 249.81 54.7051 249.076 55.9748C248.765 56.5063 248.396 56.9541 248.056 57.2494C248.529 56.9197 249.036 56.339 249.465 55.6008C250.248 54.2474 250.48 52.958 249.992 52.6185C249.48 52.3232 248.435 53.1451 247.632 54.4344Z" fill="#73737F"/>
<path d="M247.691 53.1548L246.44 55.2217L247.765 55.9845L249.016 53.9176L247.691 53.1548Z" fill="#73737F"/>
<g opacity="0.15">
<path opacity="0.15" d="M248.607 54.7203C248.632 54.6809 248.682 54.5971 248.706 54.4492C248.642 54.4689 248.637 54.5724 248.607 54.7203Z" fill="#73737F"/>
</g>
<path d="M247.396 54.3507C247.726 53.7749 247.883 53.2089 247.755 53.1351C247.583 53.0367 247.194 53.4156 246.839 54.0308C246.509 54.6066 246.351 55.1725 246.479 55.2464C246.608 55.3202 247.021 54.9019 247.396 54.3507Z" fill="#8F8F99"/>
<path d="M247.356 54.3262C247.667 53.7947 247.8 53.2681 247.672 53.1943C247.543 53.1204 247.154 53.4994 246.805 54.0063C246.494 54.5378 246.361 55.0644 246.489 55.1382C246.657 55.2366 247.002 54.838 247.356 54.3262Z" fill="#73737F"/>
<path d="M247.469 53.2435L244.671 51.5752L244.164 53.6372L246.405 54.9857L246.617 55.1087C246.799 54.9955 247.07 54.715 247.287 54.3459C247.524 53.9374 247.671 53.5831 247.681 53.3665L247.469 53.2435Z" fill="#69DDAE"/>
<path d="M245.622 53.8735C245.622 53.8735 247.607 53.1009 247.721 51.0339C247.834 48.962 246.46 46.3095 242.056 44.3705C237.647 42.4315 232.839 47.2101 235.553 51.6786C238.78 56.9346 245.622 53.8735 245.622 53.8735Z" fill="#75F1C1"/>
<path d="M243.613 45.2168C246.583 46.9835 247.519 49.1145 247.416 50.8615C247.327 52.8891 245.366 53.6224 245.366 53.6224C245.366 53.6224 238.706 56.5702 235.559 51.4669C234.475 49.6903 234.598 47.8989 235.406 46.5062C234.51 47.958 234.317 49.8724 235.485 51.6982C238.716 56.9541 245.554 53.898 245.554 53.898C245.554 53.898 247.539 53.1253 247.652 51.0584C247.815 49.2867 246.775 47.0426 243.613 45.2168Z" fill="#69DDAE"/>
<path opacity="0.42" d="M242.839 52.8694C243.81 52.771 244.514 52.141 244.416 51.4225C244.317 50.7089 243.485 50.1725 242.514 50.2709C241.544 50.3694 240.839 50.9993 240.938 51.7178C241.041 52.4363 241.869 52.9678 242.839 52.8694Z" fill="#A7A9CA"/>
<path opacity="0.42" d="M245.642 49.4C246.312 49.1293 246.573 48.1844 246.174 47.2986C245.775 46.4128 244.923 45.9157 244.253 46.1913C243.583 46.462 243.322 47.4069 243.721 48.2927C244.075 49.149 244.933 49.646 245.642 49.4Z" fill="#A7A9CA"/>
<path d="M242.869 52.7219C243.839 52.6235 244.543 51.9936 244.445 51.2751C244.346 50.5615 243.514 50.0251 242.544 50.1235C241.573 50.2219 240.869 50.8518 240.967 51.5703C241.026 52.2643 241.923 52.781 242.869 52.7219Z" fill="white"/>
<path opacity="0.16" d="M243.721 50.2613C244.061 50.4582 244.317 50.7141 244.341 51.0586C244.42 51.7082 243.829 52.2397 242.992 52.3086C242.154 52.3726 241.386 51.9296 241.347 51.3046C241.268 50.655 241.859 50.1235 242.696 50.0546C242.874 50.0448 243.046 50.0399 243.199 50.0694C243.002 50.0103 242.785 49.9956 242.544 50.0202C241.573 50.1186 240.869 50.7485 240.967 51.467C241.066 52.1806 241.898 52.717 242.869 52.6186C243.839 52.5202 244.543 51.8903 244.445 51.1718C244.42 50.8273 244.149 50.5074 243.721 50.2613Z" fill="#A7A9CA"/>
<path d="M245.627 49.2278C246.297 48.9572 246.558 48.0123 246.159 47.1264C245.76 46.2406 244.903 45.7436 244.238 46.0142C243.568 46.2849 243.307 47.2298 243.706 48.1156C244.105 49.0015 244.957 49.4985 245.627 49.2278Z" fill="white"/>
<path d="M240.307 51.1373C240.307 51.1373 240.199 50.6353 240.608 49.7248C241.021 48.8144 239.539 49.1097 239.401 50.2317C239.312 51.3833 240.386 51.7869 240.307 51.1373Z" fill="#3CAF8E"/>
<path d="M243.701 45.2662C243.701 45.2662 243.174 45.2908 242.381 45.8715C241.588 46.4522 241.563 45.0152 242.657 44.6067C243.721 44.2376 244.336 45.2514 243.701 45.2662Z" fill="#3CAF8E"/>
<path opacity="0.42" d="M239.529 50.906C239.529 50.906 239.697 51.6048 240.244 51.6441C240.746 51.6589 240.253 50.9355 240.702 50.1579C241.15 49.3803 240.746 49.09 240.347 49.1884C240.347 49.1884 240.633 49.1884 240.46 49.5821C240.288 49.9758 240.027 50.5319 240.115 50.9699C240.14 51.4227 239.603 51.1717 239.529 50.906Z" fill="#A7A9CA"/>
<path opacity="0.42" d="M241.928 45.1726C241.928 45.1726 241.81 45.3793 241.908 45.6008C242.076 45.8075 242.78 45.1726 243.268 45.1234C243.75 45.0742 243.864 44.9758 243.741 44.7937C243.741 44.7937 243.992 45.0496 243.829 45.2268L243.672 45.3006L243.755 45.3498C243.755 45.3498 243.184 45.3498 242.588 45.9896C242.041 46.5555 241.455 45.9945 241.928 45.1726Z" fill="#A7A9CA"/>
<path opacity="0.16" d="M245.716 48.7798C245.135 48.9914 244.366 48.5485 244.051 47.8202C243.691 47.0623 243.878 46.2404 244.484 45.9894C244.573 45.9304 244.681 45.9402 244.795 45.9501C244.617 45.9599 244.445 45.9648 244.243 46.014C243.573 46.2847 243.312 47.2296 243.711 48.1154C244.11 49.0013 244.967 49.4983 245.637 49.2276C246.282 48.9963 246.494 48.1351 246.223 47.3231C246.405 47.9776 246.203 48.6273 245.716 48.7798Z" fill="#A7A9CA"/>
<path d="M246.026 50.6055C245.79 51.014 245.45 51.3093 245.312 51.452C245.287 51.4914 245.243 51.4668 245.204 51.4422C245.159 51.4176 245.184 51.3782 245.209 51.3339C245.347 51.1961 245.736 50.8172 245.972 50.4038C245.997 50.3644 245.997 50.3644 246.041 50.389C246.085 50.4136 246.061 50.453 246.061 50.453C246.076 50.5219 246.051 50.5662 246.026 50.6055Z" fill="#3CAF8E"/>
<path d="M250.11 52.9089C249.913 52.9581 249.612 53.278 249.361 53.5192C249.11 53.7554 248.903 54.0211 248.75 53.9867C248.642 53.9769 248.405 53.8981 248.13 53.6816C247.918 53.5585 247.726 53.3961 247.726 53.3961L247.75 53.3568C247.75 53.3568 248.474 53.8834 248.799 53.908C248.952 53.9424 249.159 53.6767 249.41 53.4404C249.593 53.2091 249.868 52.9335 250.11 52.9089Z" fill="#8F8F99"/>
<path d="M250.07 54.3607C249.858 54.2377 249.435 54.3755 249.08 54.4985C248.858 54.5871 248.656 54.6363 248.548 54.6314C248.312 54.5477 247.563 54.0654 247.523 54.0408L247.548 54.0015C247.548 54.0015 248.336 54.5133 248.573 54.592C248.656 54.6412 248.883 54.5527 249.105 54.4591C249.435 54.3755 249.853 54.2377 250.07 54.3607Z" fill="#8F8F99"/>
<path d="M248.351 57.0377C248.056 56.7572 248.08 56.2257 248.1 55.7975C248.11 55.5859 248.139 55.4383 248.075 55.3448C247.952 55.1627 247.051 54.7542 247.051 54.7542L247.075 54.7148C247.12 54.7395 248.021 55.1528 248.1 55.3054C248.12 55.3694 248.134 55.5416 248.125 55.7582C248.105 56.1863 248.08 56.7178 248.351 57.0377Z" fill="#8F8F99"/>
<path d="M247.154 57.333C246.987 57.1263 247.253 56.5702 247.381 56.1519C247.435 55.9649 247.553 55.7582 247.534 55.6942C247.475 55.6057 246.874 55.2562 246.593 55.1529L246.617 55.1135C246.617 55.1135 246.829 55.2366 247.046 55.3596C247.174 55.4334 247.475 55.6057 247.534 55.6942C247.553 55.7582 247.479 55.8812 247.381 56.1519C247.297 56.5948 247.031 57.1509 247.154 57.333Z" fill="#8F8F99"/>
<path d="M248.44 55.0103C248.391 55.094 248.346 55.1727 248.322 55.217C248.115 55.4778 247.933 55.596 247.933 55.596L247.888 55.5713C247.888 55.5713 248.07 55.4582 248.277 55.1924C248.465 54.9709 248.676 54.6019 248.701 54.0654C248.706 54.4493 248.583 54.7643 248.44 55.0103Z" fill="#8F8F99"/>
<path opacity="0.15" d="M248.538 54.8478C248.489 54.9315 248.381 54.9217 248.297 54.8725L247.401 54.3557C247.071 54.9315 246.681 55.3055 246.484 55.2514L247.125 55.6205C246.903 56.2012 246.834 56.713 246.908 57.0821C247.021 56.9837 247.061 57.1166 247.08 57.1805C247.007 56.9197 247.021 56.4916 247.199 55.9896C247.002 56.5309 246.982 56.9591 247.1 57.2445C247.1 57.2445 247.061 56.6195 247.617 55.9551C248.071 56.1618 248.381 55.5221 248.337 55.4975C248.292 55.4728 248.046 55.6057 248.322 55.3252C248.46 55.1874 248.578 54.9807 248.632 54.7937C248.583 54.7642 248.558 54.8036 248.538 54.8478ZM247.199 55.8813L247.174 55.9207L247.199 55.8813ZM247.248 55.6894C247.223 55.7288 247.179 55.8124 247.194 55.8764C247.223 55.837 247.228 55.7337 247.248 55.6894Z" fill="#73737F"/>
<path d="M270.789 71.467C270.813 71.4277 270.769 71.4031 270.469 71.2259C270.341 71.1521 270.148 71.093 270.148 71.093C270.148 71.093 270.277 71.1668 270.469 71.2259C270.73 71.3735 270.744 71.4424 270.789 71.467Z" fill="#8F8F99"/>
<path d="M270.488 71.8904C270.508 71.851 270.508 71.851 270.488 71.8904C270.469 71.8264 270.508 71.851 270.488 71.8904C270.469 71.8264 270.444 71.8658 270.488 71.8904C270.444 71.8658 270.38 71.8805 270.148 71.6935C270.02 71.6197 269.917 71.5065 269.873 71.4819C269.887 71.5459 270.375 71.8855 270.488 71.8904Z" fill="#8F8F99"/>
<path d="M270.213 72.1708C270.168 72.1462 270.168 72.1462 270.213 72.1708C270.168 72.1462 270.144 72.1855 269.912 71.9985C269.784 71.9247 269.681 71.8115 269.681 71.8115C269.681 71.8115 269.784 71.9247 269.957 72.0231C270.08 72.2052 270.144 72.1855 270.213 72.1708Z" fill="#8F8F99"/>
<path d="M261.129 58.4995L259.262 61.6344L262.134 62.5793C262.134 62.5793 271.198 68.6866 271.242 68.7112C271.326 68.7604 271.439 68.7703 271.503 68.7506C271.572 68.7358 271.612 68.7604 271.656 68.785L272.148 69.0163C272.148 69.0163 272.193 69.0409 272.217 69.0016C272.311 68.8392 272.848 68.1059 272.917 67.4907L272.897 67.4268L272.493 67.1413C272.41 67.0921 272.346 67.0035 272.286 66.91C272.144 66.664 271.951 66.4966 271.74 66.3736L261.129 58.4995Z" fill="#73737F"/>
<path d="M252.873 65.3943C252.292 65.1137 251.671 65.3057 251.366 65.8372L249.11 70.3352L251.08 71.3638L253.381 66.8903C253.642 66.3293 253.386 65.6895 252.873 65.3943Z" fill="#D5D5E0"/>
<path d="M251.056 71.2997C251.174 71.093 250.775 70.6993 250.238 70.4434C249.701 70.1875 249.179 70.1038 249.085 70.2712C248.967 70.4779 249.366 70.8716 249.903 71.1275C250.46 71.4474 250.982 71.531 251.056 71.2997Z" fill="#EDEDF4"/>
<path d="M250.947 71.2899C251.041 71.1275 250.73 70.7781 250.233 70.5517C249.74 70.3204 249.282 70.222 249.188 70.3844C249.095 70.5468 249.405 70.8962 249.903 71.1226C250.44 71.3785 250.854 71.4523 250.947 71.2899Z" fill="#BCBCCC"/>
<path d="M250.548 71.8806L249.006 71.0981L249.297 70.4977L249.351 70.3107C249.548 70.2615 249.898 70.3501 250.238 70.5518C250.578 70.7487 250.854 70.9603 250.937 71.1178L250.819 71.3245L250.548 71.8806Z" fill="#73737F"/>
<path d="M250.573 71.841C250.642 71.718 250.376 71.3981 249.923 71.1914C249.47 70.9847 249.1 70.9355 249.031 71.0585C248.962 71.1816 249.233 71.5015 249.681 71.7082C250.066 71.9296 250.474 72.0034 250.573 71.841Z" fill="#8F8F99"/>
<path d="M249.524 70.3057C249.509 70.6255 249.253 70.97 249.253 70.97C249.273 71.034 249.509 70.6255 249.524 70.3057Z" fill="#8F8F99"/>
<path d="M249.869 70.3943C249.834 70.6502 249.598 71.0587 249.598 71.0587C249.598 71.0587 249.647 70.975 249.741 70.8126C249.79 70.7339 249.839 70.5419 249.869 70.3943Z" fill="#8F8F99"/>
<path d="M250.277 70.5762C250.253 70.6155 249.991 71.0683 249.962 71.2159C250.036 71.0929 250.277 70.5762 250.277 70.5762Z" fill="#8F8F99"/>
<path d="M250.681 70.8618C250.681 70.8618 250.4 71.2457 250.346 71.5409C250.425 71.2063 250.681 70.8618 250.681 70.8618Z" fill="#8F8F99"/>
<path d="M250.888 71.093C250.888 71.093 250.681 71.3538 250.509 71.7525C250.725 71.3784 250.888 71.093 250.888 71.093Z" fill="#8F8F99"/>
<path d="M249.553 73.1108L248.913 72.2495L249.11 71.2161L249.135 71.1767C249.204 71.0537 249.578 71.1029 249.918 71.2997C250.258 71.4966 250.534 71.7131 250.465 71.8361L249.553 73.1108Z" fill="#75F1C1"/>
<path d="M249.553 73.1108L248.913 72.2495L249.11 71.2161L249.135 71.1767C249.204 71.0537 249.578 71.1029 249.918 71.2997C250.258 71.4966 250.534 71.7131 250.465 71.8361L249.553 73.1108Z" fill="#69DDAE"/>
<path d="M260.159 52.0822L251.44 50.9946C250.809 50.906 250.262 51.3539 250.213 51.9297C250.144 52.5448 250.622 53.096 251.213 53.1649L259.932 54.2525C260.563 54.3411 261.109 53.8933 261.159 53.3175C261.228 52.7023 260.794 52.1757 260.159 52.0822Z" fill="#D5D5E0"/>
<path d="M250.219 51.9295C250.288 51.3144 250.81 50.9059 251.445 50.9945L252.622 51.1273L253.898 53.4502L251.199 53.0959C250.627 53.0959 250.15 52.5447 250.219 51.9295Z" fill="#BCBCCC"/>
<path d="M260.553 54.1688C260.016 54.405 259.346 54.1835 259.041 53.6274L256.681 49.0359L258.627 48.1353L260.986 52.7268C261.316 53.2436 261.11 53.8932 260.553 54.1688Z" fill="#D5D5E0"/>
<path d="M260.755 54.0161C260.73 54.0554 260.705 54.0997 260.705 54.0997C260.907 53.9423 260.883 53.5978 260.666 52.9826C260.489 52.4954 260.208 51.8999 259.848 51.142C259.159 49.8674 258.38 48.6519 258.38 48.6519C258.38 48.6519 259.159 49.8674 259.848 51.142C260.233 51.8556 260.533 52.5249 260.666 52.9826C260.843 53.4649 260.873 53.8094 260.755 54.0161Z" fill="#EDEDF4"/>
<path opacity="0.15" d="M260.799 53.5438C260.597 53.593 260.449 53.5586 260.297 53.529C260.06 53.4454 259.824 53.2584 259.725 53.0369L257.504 48.6914L256.72 49.0605L258.78 53.096L251.169 51.7721C251.056 52.3627 251.233 52.8499 251.632 53.2436L259.912 54.3017C260.459 54.3411 260.976 54.0409 261.085 53.5537C261.134 53.47 261.139 53.3666 261.1 53.2338C261.07 53.3716 260.932 53.5143 260.799 53.5438Z" fill="#73737F"/>
<path d="M246.573 58.1452C246.1 58.4749 245.982 59.1737 246.332 59.6462L251.455 66.7624C251.804 67.2397 252.524 67.3775 252.997 67.0527C253.469 66.723 253.588 66.0242 253.238 65.5517L248.115 58.4355C247.721 57.9335 247.046 57.8203 246.573 58.1452Z" fill="#D5D5E0"/>
<path d="M246.573 58.1452C246.1 58.4749 245.982 59.1737 246.332 59.6462L247.036 60.6009L249.711 60.6107L248.12 58.4355C247.721 57.9335 247.046 57.8203 246.573 58.1452Z" fill="#BCBCCC"/>
<path opacity="0.15" d="M246.573 58.1452C246.056 58.4503 246.026 59.09 246.356 59.6068L251.12 66.3539L249.105 70.3352L249.854 70.7142L250.41 70.5419L252.115 67.2004C252.115 67.2004 252.43 66.4523 251.794 65.4828L251.775 65.4188L248.918 61.5802C248.548 61.0389 249.061 60.3499 249.662 60.5861L249.706 60.6107L248.115 58.4355C247.721 57.9335 247.046 57.8203 246.573 58.1452Z" fill="#73737F"/>
<path d="M260.715 66.4179C260.715 66.4179 261.627 62.6728 264.262 60.473L261.129 58.4995L257.484 64.6068L260.715 66.4179Z" fill="#73737F"/>
<path opacity="0.15" d="M261.405 58.7111L261.105 58.5388L259.331 61.5113L257.464 64.6462L259.711 65.8863L260.691 66.4523L268.563 71.7624C268.774 71.8854 269.016 71.969 269.296 71.969C269.405 71.9789 269.513 71.9838 269.602 72.033L270.03 72.2791C270.03 72.2791 270.075 72.3037 270.094 72.2643C270.341 72.1314 270.572 71.8312 270.715 71.5852C270.395 71.9444 269.617 71.6098 270.07 71.3194C270.518 71.034 270.503 70.473 270.503 70.473L270.528 70.4336C270.508 70.3696 270.425 70.3204 270.38 70.2958C270.38 70.2958 270.208 70.1974 269.912 70.0251C269.957 70.0497 269.932 70.0891 269.976 70.1137C270.36 70.3352 270.464 70.9454 269.582 71.0931C268.7 71.2407 260.913 65.9798 261.046 64.9611C261.075 64.8135 261.1 64.6658 261.174 64.5428C261.287 64.4444 261.4 64.346 261.513 64.2475C261.563 64.1639 261.627 64.1491 261.676 64.0654C261.834 63.9916 262.031 63.9424 262.139 63.9522C262.011 63.8784 261.883 63.8046 261.799 63.7554C261.967 63.47 262.154 63.1402 262.371 62.7711L262.454 62.8203L262.479 62.781L262.454 62.8203C264.76 64.154 271.178 68.7308 271.223 68.7554C271.306 68.8046 271.42 68.8145 271.484 68.7948C271.548 68.7751 271.592 68.8046 271.636 68.8293L272.129 69.0606C272.129 69.0606 272.173 69.0852 272.198 69.0458C272.223 69.0064 272.316 68.8391 272.454 68.7013C272.08 68.7604 271.725 68.3913 272.06 68.1993C272.508 67.9139 272.39 67.1314 272.39 67.1314C272.346 67.1068 272.331 67.0428 272.287 67.0182C272.144 66.7721 271.957 66.6048 271.74 66.4818L271.695 66.4572C272.351 66.9985 272.099 67.7318 271.651 68.0172C271.109 68.3617 264.44 63.1452 262.711 62.092C262.385 61.467 262.568 60.8617 262.568 60.8617C261.356 64.0507 259.824 63.9326 259.287 63.1845C258.696 62.5152 260.913 59.3607 261.405 58.7111Z" fill="#73737F"/>
<path d="M247.795 54.2524L247.627 54.5378L247.534 54.7002L247.366 54.9857L247.164 58.593L249.681 60.6501L257.484 64.6019L259.257 61.6294L259.351 61.467L261.124 58.4945L253.893 53.5536L250.859 52.2937L247.795 54.2524Z" fill="#D5D5E0"/>
<path opacity="0.15" d="M253.248 53.2976C252.346 53.3813 251.233 53.7258 250.327 54.5132C250.43 54.1343 250.534 53.7553 250.553 53.3321C250.593 52.4758 250.095 52.2494 249.548 52.3134L247.78 54.1933L247.612 54.4788L247.519 54.6412L247.351 54.9266L246.085 58.7947L257.509 64.5674L258.405 63.1156L249.425 59.031C249.479 58.2435 249.765 57.2593 250.381 56.1914C251.465 54.4099 252.79 53.6963 253.701 53.401L253.657 53.3764L253.248 53.2976ZM248.731 58.8439C248.731 58.8439 248.189 58.6963 248.371 58.0861C248.401 57.9384 248.543 57.6924 248.775 57.3872C248.667 57.8745 248.711 58.3961 248.731 58.8439Z" fill="#73737F"/>
<path d="M250.351 54.469L254.75 57.1167L250.351 54.469Z" fill="#EDEDF4"/>
<path d="M256.139 56.8804L260.065 60.2416L256.139 56.8804Z" fill="#EDEDF4"/>
<path d="M253.701 60.9995L258.548 62.8647L253.701 60.9995Z" fill="#EDEDF4"/>
<path d="M248.814 57.0278L253.213 59.6755L248.814 57.0278Z" fill="#EDEDF4"/>
<path d="M253.188 59.6116L254.464 63.027L253.188 59.6116Z" fill="#EDEDF4"/>
<path d="M247.795 54.2525L247.627 54.5379L247.534 54.7003L247.484 54.784L247.366 54.9907L246.1 58.8588L249.681 60.6502C249.681 60.6502 248.617 58.9425 250.208 56.1915C251.883 53.4897 253.873 53.5979 253.873 53.5979L250.578 51.3145L247.795 54.2525Z" fill="#BCBCCC"/>
<path opacity="0.15" d="M249.262 59.2081L248.726 58.9522C248.726 58.9522 248.144 58.6716 248.327 58.0663C248.509 57.4561 250.459 55.3547 250.528 53.3714C250.568 52.5151 250.07 52.2887 249.524 52.3527L247.755 54.2326L247.588 54.5181L247.494 54.6805L247.445 54.7641L247.327 54.9708L246.061 58.839L249.642 60.6303C249.681 60.6549 249.356 60.1333 249.262 59.2081Z" fill="#73737F"/>
<path opacity="0.15" d="M250.145 56.1027C248.554 58.8537 249.706 60.6106 249.706 60.6106C249.706 60.6106 248.642 58.9029 250.228 56.1519C251.903 53.4501 253.893 53.5584 253.893 53.5584C253.893 53.5584 251.795 53.4403 250.145 56.1027Z" fill="#73737F"/>
<path d="M249.726 55.7485C250.603 54.2278 250.888 52.7514 250.287 52.4069C249.691 52.0625 248.534 52.9827 247.613 54.4739C246.736 55.9946 246.45 57.471 247.051 57.8155C247.647 58.1649 248.869 57.2298 249.726 55.7485Z" fill="#EDEDF4"/>
<path opacity="0.15" d="M249.918 55.3154C249.918 55.3154 248.46 58.032 247.169 57.5054C246.568 57.2642 246.977 55.8617 247.608 54.4739L247.583 54.5132C246.706 56.0339 246.445 57.4709 247.022 57.8548C247.618 58.1993 248.78 57.279 249.657 55.7633C249.751 55.6009 249.849 55.4384 249.918 55.3154Z" fill="#73737F"/>
<path d="M249.509 55.6255C250.292 54.2721 250.548 52.9384 249.992 52.6185C249.48 52.3233 248.371 53.1599 247.588 54.5132C246.805 55.8666 246.549 57.2003 247.105 57.5202C247.618 57.8204 248.726 56.9788 249.509 55.6255Z" fill="white"/>
<path d="M249.509 55.6255C250.292 54.2721 250.523 52.9827 250.011 52.6875C249.499 52.3922 248.455 53.214 247.627 54.5428C246.844 55.8962 246.612 57.1855 247.125 57.4808C247.642 57.7761 248.706 56.9149 249.509 55.6255Z" fill="#BCBCCC"/>
<path d="M249.509 55.6255C250.243 54.3508 250.519 53.0861 250.051 52.8154C249.583 52.5447 248.603 53.3469 247.8 54.6363C247.066 55.9109 246.79 57.1757 247.258 57.4463C247.731 57.7219 248.731 56.8755 249.509 55.6255Z" fill="#73737F"/>
<path d="M247.095 56.2553C247.051 56.2307 247.204 55.7681 247.524 55.5171C247.248 55.7976 247.095 56.2553 247.095 56.2553Z" fill="#8F8F99"/>
<path d="M248.913 53.2041C248.913 53.2041 248.593 53.5634 248.484 53.9423L248.44 53.9177C248.548 53.5387 248.913 53.2041 248.913 53.2041Z" fill="#8F8F99"/>
<path opacity="0.15" d="M247.632 54.4344C248.312 53.4551 249.125 52.9384 249.549 53.1844C250.016 53.4551 249.81 54.7051 249.076 55.9748C248.765 56.5063 248.396 56.9541 248.056 57.2494C248.529 56.9197 249.036 56.339 249.465 55.6008C250.248 54.2474 250.48 52.958 249.992 52.6185C249.48 52.3232 248.435 53.1451 247.632 54.4344Z" fill="#73737F"/>
<path d="M247.691 53.1548L246.44 55.2217L247.765 55.9845L249.016 53.9176L247.691 53.1548Z" fill="#73737F"/>
<g opacity="0.15">
<path opacity="0.15" d="M248.607 54.7203C248.632 54.6809 248.682 54.5971 248.706 54.4492C248.642 54.4689 248.637 54.5724 248.607 54.7203Z" fill="#73737F"/>
</g>
<path d="M247.396 54.3507C247.726 53.7749 247.883 53.2089 247.755 53.1351C247.583 53.0367 247.194 53.4156 246.839 54.0308C246.509 54.6066 246.351 55.1725 246.479 55.2464C246.608 55.3202 247.021 54.9019 247.396 54.3507Z" fill="#8F8F99"/>
<path d="M247.356 54.3262C247.667 53.7947 247.8 53.2681 247.672 53.1943C247.543 53.1204 247.154 53.4994 246.805 54.0063C246.494 54.5378 246.361 55.0644 246.489 55.1382C246.657 55.2366 247.002 54.838 247.356 54.3262Z" fill="#73737F"/>
<path d="M247.469 53.2435L244.671 51.5752L244.164 53.6372L246.405 54.9857L246.617 55.1087C246.799 54.9955 247.07 54.715 247.287 54.3459C247.524 53.9374 247.671 53.5831 247.681 53.3665L247.469 53.2435Z" fill="#69DDAE"/>
<path d="M245.622 53.8735C245.622 53.8735 247.607 53.1009 247.721 51.0339C247.834 48.962 246.46 46.3095 242.056 44.3705C237.647 42.4315 232.839 47.2101 235.553 51.6786C238.78 56.9346 245.622 53.8735 245.622 53.8735Z" fill="#75F1C1"/>
<path d="M243.613 45.2168C246.583 46.9835 247.519 49.1145 247.416 50.8615C247.327 52.8891 245.366 53.6224 245.366 53.6224C245.366 53.6224 238.706 56.5702 235.559 51.4669C234.475 49.6903 234.598 47.8989 235.406 46.5062C234.51 47.958 234.317 49.8724 235.485 51.6982C238.716 56.9541 245.554 53.898 245.554 53.898C245.554 53.898 247.539 53.1253 247.652 51.0584C247.815 49.2867 246.775 47.0426 243.613 45.2168Z" fill="#69DDAE"/>
<path opacity="0.42" d="M242.839 52.8694C243.81 52.771 244.514 52.141 244.416 51.4225C244.317 50.7089 243.485 50.1725 242.514 50.2709C241.544 50.3694 240.839 50.9993 240.938 51.7178C241.041 52.4363 241.869 52.9678 242.839 52.8694Z" fill="#A7A9CA"/>
<path opacity="0.42" d="M245.642 49.4C246.312 49.1293 246.573 48.1844 246.174 47.2986C245.775 46.4128 244.923 45.9157 244.253 46.1913C243.583 46.462 243.322 47.4069 243.721 48.2927C244.075 49.149 244.933 49.646 245.642 49.4Z" fill="#A7A9CA"/>
<path d="M242.869 52.7219C243.839 52.6235 244.543 51.9936 244.445 51.2751C244.346 50.5615 243.514 50.0251 242.544 50.1235C241.573 50.2219 240.869 50.8518 240.967 51.5703C241.026 52.2643 241.923 52.781 242.869 52.7219Z" fill="white"/>
<path opacity="0.16" d="M243.721 50.2613C244.061 50.4582 244.317 50.7141 244.341 51.0586C244.42 51.7082 243.829 52.2397 242.992 52.3086C242.154 52.3726 241.386 51.9296 241.347 51.3046C241.268 50.655 241.859 50.1235 242.696 50.0546C242.874 50.0448 243.046 50.0399 243.199 50.0694C243.002 50.0103 242.785 49.9956 242.544 50.0202C241.573 50.1186 240.869 50.7485 240.967 51.467C241.066 52.1806 241.898 52.717 242.869 52.6186C243.839 52.5202 244.543 51.8903 244.445 51.1718C244.42 50.8273 244.149 50.5074 243.721 50.2613Z" fill="#A7A9CA"/>
<path d="M245.627 49.2278C246.297 48.9572 246.558 48.0123 246.159 47.1264C245.76 46.2406 244.903 45.7436 244.238 46.0142C243.568 46.2849 243.307 47.2298 243.706 48.1156C244.105 49.0015 244.957 49.4985 245.627 49.2278Z" fill="white"/>
<path d="M240.307 51.1373C240.307 51.1373 240.199 50.6353 240.608 49.7248C241.021 48.8144 239.539 49.1097 239.401 50.2317C239.312 51.3833 240.386 51.7869 240.307 51.1373Z" fill="#3CAF8E"/>
<path d="M243.701 45.2662C243.701 45.2662 243.174 45.2908 242.381 45.8715C241.588 46.4522 241.563 45.0152 242.657 44.6067C243.721 44.2376 244.336 45.2514 243.701 45.2662Z" fill="#3CAF8E"/>
<path opacity="0.42" d="M239.529 50.906C239.529 50.906 239.697 51.6048 240.244 51.6441C240.746 51.6589 240.253 50.9355 240.702 50.1579C241.15 49.3803 240.746 49.09 240.347 49.1884C240.347 49.1884 240.633 49.1884 240.46 49.5821C240.288 49.9758 240.027 50.5319 240.115 50.9699C240.14 51.4227 239.603 51.1717 239.529 50.906Z" fill="#A7A9CA"/>
<path opacity="0.42" d="M241.928 45.1726C241.928 45.1726 241.81 45.3793 241.908 45.6008C242.076 45.8075 242.78 45.1726 243.268 45.1234C243.75 45.0742 243.864 44.9758 243.741 44.7937C243.741 44.7937 243.992 45.0496 243.829 45.2268L243.672 45.3006L243.755 45.3498C243.755 45.3498 243.184 45.3498 242.588 45.9896C242.041 46.5555 241.455 45.9945 241.928 45.1726Z" fill="#A7A9CA"/>
<path opacity="0.16" d="M245.716 48.7798C245.135 48.9914 244.366 48.5485 244.051 47.8202C243.691 47.0623 243.878 46.2404 244.484 45.9894C244.573 45.9304 244.681 45.9402 244.795 45.9501C244.617 45.9599 244.445 45.9648 244.243 46.014C243.573 46.2847 243.312 47.2296 243.711 48.1154C244.11 49.0013 244.967 49.4983 245.637 49.2276C246.282 48.9963 246.494 48.1351 246.223 47.3231C246.405 47.9776 246.203 48.6273 245.716 48.7798Z" fill="#A7A9CA"/>
<path d="M246.026 50.6055C245.79 51.014 245.45 51.3093 245.312 51.452C245.287 51.4914 245.243 51.4668 245.204 51.4422C245.159 51.4176 245.184 51.3782 245.209 51.3339C245.347 51.1961 245.736 50.8172 245.972 50.4038C245.997 50.3644 245.997 50.3644 246.041 50.389C246.085 50.4136 246.061 50.453 246.061 50.453C246.076 50.5219 246.051 50.5662 246.026 50.6055Z" fill="#3CAF8E"/>
<path d="M250.11 52.9089C249.913 52.9581 249.612 53.278 249.361 53.5192C249.11 53.7554 248.903 54.0211 248.75 53.9867C248.642 53.9769 248.405 53.8981 248.13 53.6816C247.918 53.5585 247.726 53.3961 247.726 53.3961L247.75 53.3568C247.75 53.3568 248.474 53.8834 248.799 53.908C248.952 53.9424 249.159 53.6767 249.41 53.4404C249.593 53.2091 249.868 52.9335 250.11 52.9089Z" fill="#8F8F99"/>
<path d="M250.07 54.3607C249.858 54.2377 249.435 54.3755 249.08 54.4985C248.858 54.5871 248.656 54.6363 248.548 54.6314C248.312 54.5477 247.563 54.0654 247.523 54.0408L247.548 54.0015C247.548 54.0015 248.336 54.5133 248.573 54.592C248.656 54.6412 248.883 54.5527 249.105 54.4591C249.435 54.3755 249.853 54.2377 250.07 54.3607Z" fill="#8F8F99"/>
<path d="M248.351 57.0377C248.056 56.7572 248.08 56.2257 248.1 55.7975C248.11 55.5859 248.139 55.4383 248.075 55.3448C247.952 55.1627 247.051 54.7542 247.051 54.7542L247.075 54.7148C247.12 54.7395 248.021 55.1528 248.1 55.3054C248.12 55.3694 248.134 55.5416 248.125 55.7582C248.105 56.1863 248.08 56.7178 248.351 57.0377Z" fill="#8F8F99"/>
<path d="M247.154 57.333C246.987 57.1263 247.253 56.5702 247.381 56.1519C247.435 55.9649 247.553 55.7582 247.534 55.6942C247.475 55.6057 246.874 55.2562 246.593 55.1529L246.617 55.1135C246.617 55.1135 246.829 55.2366 247.046 55.3596C247.174 55.4334 247.475 55.6057 247.534 55.6942C247.553 55.7582 247.479 55.8812 247.381 56.1519C247.297 56.5948 247.031 57.1509 247.154 57.333Z" fill="#8F8F99"/>
<path d="M248.44 55.0103C248.391 55.094 248.346 55.1727 248.322 55.217C248.115 55.4778 247.933 55.596 247.933 55.596L247.888 55.5713C247.888 55.5713 248.07 55.4582 248.277 55.1924C248.465 54.9709 248.676 54.6019 248.701 54.0654C248.706 54.4493 248.583 54.7643 248.44 55.0103Z" fill="#8F8F99"/>
<path d="M257.888 48.9128C258.425 48.6766 258.814 48.2976 258.691 48.1155C258.592 47.8941 258.085 47.9827 257.548 48.2238C257.011 48.46 256.622 48.839 256.745 49.0211C256.868 49.1982 257.356 49.149 257.888 48.9128Z" fill="#EDEDF4"/>
<path d="M257.873 48.8438C258.341 48.6224 258.686 48.3271 258.583 48.1056C258.504 47.9482 258.041 47.958 257.548 48.2188C257.08 48.4403 256.735 48.7356 256.834 48.957C256.918 49.1145 257.4 49.0653 257.873 48.8438Z" fill="#BCBCCC"/>
<path d="M258.169 47.5398L256.671 48.2632L256.952 48.8636L257.031 49.0211C257.228 49.0802 257.558 48.9965 257.893 48.8095C258.228 48.6225 258.499 48.4502 258.597 48.2829L258.455 48.0368L258.169 47.5398Z" fill="#73737F"/>
<path opacity="0.15" d="M257.858 48.6716C257.514 48.583 257.272 48.1106 257.272 48.1106L257.322 47.9236L256.627 48.2336L256.908 48.834L256.987 48.9915C257.184 49.0506 257.514 48.9669 257.849 48.7799C258.184 48.5929 258.455 48.4206 258.548 48.2533L258.425 48.0712C258.459 48.4206 258.159 48.7405 257.858 48.6716Z" fill="#73737F"/>
<path d="M257.528 48.1549C257.932 47.9482 258.208 47.6726 258.169 47.5397C258.09 47.3822 257.671 47.4167 257.267 47.6234C256.863 47.8301 256.587 48.1057 256.627 48.2385C256.706 48.3911 257.124 48.3616 257.528 48.1549Z" fill="#8F8F99"/>
<path d="M257.139 49.0261C257.085 48.7209 256.863 48.3174 256.863 48.3174C256.908 48.3469 257.129 48.7455 257.139 49.0261Z" fill="#8F8F99"/>
<path d="M257.489 49.0111C257.435 48.7059 257.188 48.3467 257.188 48.3467C257.188 48.3467 257.248 48.4353 257.331 48.5927C257.395 48.6813 257.479 48.8388 257.489 49.0111Z" fill="#8F8F99"/>
<path d="M257.873 48.8438C257.829 48.8192 257.612 48.3073 257.528 48.1548C257.607 48.3123 257.873 48.8438 257.873 48.8438Z" fill="#8F8F99"/>
<path d="M258.297 48.5979C258.297 48.5979 258.006 48.214 257.932 47.9482C258.031 48.1746 258.297 48.5979 258.297 48.5979Z" fill="#8F8F99"/>
<path d="M258.508 48.3368C258.508 48.3368 258.282 48.0415 258.1 47.6626C258.321 48.0661 258.508 48.3368 258.508 48.3368Z" fill="#8F8F99"/>
<path d="M257.721 46.8408L256.504 47.0721L256.701 48.1154C256.701 48.1154 256.676 48.1548 256.721 48.1794C256.76 48.3123 257.134 48.2532 257.514 48.0908C257.893 47.9284 258.144 47.6873 258.065 47.5347L257.721 46.8408Z" fill="#75F1C1"/>
<path d="M257.45 47.0132C257.44 48.214 256.322 48.278 255.696 47.9729C255.075 47.6678 254.859 48.0368 254.248 48.0122C253.637 47.9876 253.75 47.3971 253.75 47.3971C254.169 46.3784 255.529 46.7819 255.529 46.7819C255.529 46.7819 253.051 44.8577 253.676 43.5782C254.302 42.2986 255.376 42.3134 255.455 42.963C255.538 43.6126 254.489 44.0457 254.489 44.0457C254.489 44.0457 255.292 45.2219 256.041 45.6008C256.041 45.6008 255.829 44.9856 256.346 44.5723C256.864 44.1589 258.519 44.4591 258.74 45.463C258.957 46.467 257.785 46.7179 257.583 45.3941C257.583 45.3941 257.041 45.2465 256.844 45.2957C256.844 45.2957 258.671 46.5703 257.45 47.0132Z" fill="#75F1C1"/>
<path d="M258.075 45.7336C257.888 45.4629 257.755 45.0003 257.341 45.0348C256.967 45.0938 256.849 45.2956 256.849 45.2956C257.07 45.207 257.588 45.394 257.588 45.394C257.794 46.6096 258.834 46.4964 258.78 45.6992C258.76 46.019 258.321 46.0929 258.075 45.7336Z" fill="#69DDAE"/>
<path d="M255.76 47.5742C254.987 47.2346 254.346 47.8547 254.056 47.4659C253.952 47.3528 253.977 47.2051 254.026 47.1215C253.913 47.2199 253.864 47.3035 253.834 47.4512C253.834 47.4512 253.721 48.0417 254.332 48.0663C254.942 48.0909 255.159 47.7218 255.78 48.027C256.4 48.3321 257.479 48.2386 257.509 47.1067C257.193 47.8498 256.489 47.8843 255.76 47.5742Z" fill="#69DDAE"/>
<path d="M253.805 44.1441C253.76 43.6273 253.908 43.273 254.076 42.9875C253.913 43.1696 253.755 43.3468 253.652 43.6175C253.051 44.8576 255.317 46.6588 255.504 46.8213C255.548 46.8508 253.933 45.2071 253.805 44.1441Z" fill="#69DDAE"/>
<path d="M257.509 47.1066C257.484 47.146 257.44 47.1214 257.464 47.082C257.223 46.6145 256.356 46.334 256.356 46.334C256.312 46.3093 256.312 46.3093 256.336 46.27C256.361 46.2306 256.361 46.2306 256.405 46.2552C256.405 46.2552 256.642 46.3389 256.898 46.4865C257.238 46.6834 257.474 46.8704 257.597 47.0525C257.533 47.0623 257.509 47.1066 257.509 47.1066Z" fill="#3CAF8E"/>
<path d="M251.391 56.7131L251.061 56.6885L252.164 58.529L252.331 58.2436L251.391 56.7131Z" fill="white"/>
<path d="M252.706 57.6874L253.228 56.7868L251.607 56.7278L252.4 58.1156L252.568 57.8302L252.12 57.0231L252.731 57.0477L252.538 57.3774L252.706 57.6874Z" fill="white"/>
<path d="M251.105 56.7129L252.208 58.5535L252.351 58.3074L251.435 56.7375L251.105 56.7129Z" fill="#BCBCCC"/>
<path d="M252.706 57.6874L253.228 56.7868L251.607 56.7278L252.4 58.1156L252.568 57.8302L252.12 57.0231L252.731 57.0477L252.538 57.3774L252.706 57.6874Z" fill="#BCBCCC"/>
<path d="M251.149 56.7375L252.189 58.4895L252.307 58.2828L251.435 56.7375H251.149Z" fill="white"/>
<path d="M252.425 58.0763L251.651 56.7524L253.159 56.8017L252.686 57.6235L252.543 57.3774L252.755 57.0083L252.075 56.9985L252.563 57.8302L252.425 58.0763Z" fill="white"/>
<path d="M248.716 70.7142C248.716 70.7142 246.499 70.3106 245.046 70.4582C243.593 70.6059 243.13 71.7083 243.573 72.1266C244.016 72.5449 245.041 72.1512 245.075 71.2998C245.075 71.2998 246.499 71.2998 247.637 71.9002C247.637 71.9002 245.144 72.2693 244.898 73.3864C244.672 74.5675 246.194 74.7939 245.878 73.4602C245.878 73.4602 246.45 72.9681 247.425 73.1502C248.405 73.3323 249.297 73.9573 249.612 73.2092C249.681 73.0862 249.666 72.914 249.676 72.6974C249.676 72.6974 249.676 72.6974 249.701 72.6581C249.834 72.6236 250.016 72.5104 250.09 72.2791C250.218 71.8608 249.923 71.5803 249.78 70.8421C249.839 70.4386 250.011 70.0449 250.243 69.7397C250.947 68.8244 248.085 69.0409 248.716 70.7142Z" fill="#75F1C1"/>
<path d="M248.967 69.9859C248.691 70.7585 249.046 71.2359 249.046 71.2359C249.046 71.2359 247.618 70.8471 245.913 70.7388C244.209 70.6306 243.45 71.4524 243.844 71.9544C243.967 72.1365 244.096 72.2103 244.273 72.2005C244.672 72.102 245.061 71.7231 245.061 71.231C245.061 71.231 246.485 71.231 247.622 71.8314C247.622 71.8314 247.578 71.8067 247.514 71.8215L247.558 71.8461C247.558 71.8461 245.657 72.2792 245.199 73.165C244.987 73.5341 244.972 73.854 245.007 74.0902C245.317 74.543 246.091 74.3855 245.849 73.4259C245.849 73.4259 246.421 72.9337 247.396 73.1158C248.223 73.2635 248.948 73.6818 249.376 73.4357C249.632 73.0912 249.411 72.6877 249.706 72.3678C249.933 72.1709 249.844 71.7329 249.795 71.3245C249.755 71.1916 249.721 71.0636 249.662 70.8668C249.696 70.6109 249.795 70.3402 249.913 70.1335C250.332 69.2919 249.282 69.2378 248.967 69.9859Z" fill="#69DDAE"/>
<path opacity="0.15" d="M248.538 54.8478C248.489 54.9315 248.381 54.9217 248.297 54.8725L247.401 54.3557C247.071 54.9315 246.681 55.3055 246.484 55.2514L247.125 55.6205C246.903 56.2012 246.834 56.713 246.908 57.0821C247.021 56.9837 247.061 57.1166 247.08 57.1805C247.007 56.9197 247.021 56.4916 247.199 55.9896C247.002 56.5309 246.982 56.9591 247.1 57.2445C247.1 57.2445 247.061 56.6195 247.617 55.9551C248.071 56.1618 248.381 55.5221 248.337 55.4975C248.292 55.4728 248.046 55.6057 248.322 55.3252C248.46 55.1874 248.578 54.9807 248.632 54.7937C248.583 54.7642 248.558 54.8036 248.538 54.8478ZM247.199 55.8813L247.174 55.9207L247.199 55.8813ZM247.248 55.6894C247.223 55.7288 247.179 55.8124 247.194 55.8764C247.223 55.837 247.228 55.7337 247.248 55.6894Z" fill="#73737F"/>
<path opacity="0.15" d="M253.149 60.0791C253.366 60.0939 253.548 59.9807 253.622 59.7494C253.632 59.5378 253.509 59.3557 253.272 59.272C253.055 59.2573 252.873 59.3705 252.799 59.6018C252.789 59.8183 252.927 60.0644 253.149 60.0791Z" fill="#73737F"/>
<path d="M253.174 60.0398C253.39 60.0545 253.573 59.9413 253.622 59.7543C253.676 59.5673 253.509 59.3606 253.312 59.3016C253.095 59.2868 252.913 59.4 252.858 59.587C252.809 59.774 252.952 60.0201 253.174 60.0398Z" fill="#EDEDF4"/>
<g opacity="0.15">
<path opacity="0.15" d="M253.489 59.784C253.445 59.7594 253.425 59.6954 253.425 59.6954C253.401 59.7348 253.401 59.7348 253.376 59.7791C253.307 59.9021 253.105 59.9513 252.977 59.8775C252.893 59.8283 252.874 59.7643 252.854 59.6954L252.849 59.8037L252.805 59.7791C252.824 59.843 252.883 59.9365 252.972 59.9858C253.145 60.0842 253.386 60.0596 253.504 59.8529C253.553 59.7692 253.534 59.7052 253.578 59.6216C253.578 59.7299 253.534 59.8086 253.489 59.784Z" fill="#73737F"/>
</g>
<path d="M253.134 59.9069C253.287 59.9413 253.4 59.8429 253.43 59.6952C253.46 59.5476 253.356 59.4295 253.203 59.4C253.051 59.3655 252.937 59.4639 252.908 59.6116C252.878 59.7592 252.982 59.8724 253.134 59.9069Z" fill="white"/>
<path d="M253.09 59.8824C253.243 59.9169 253.356 59.8185 253.385 59.6708C253.415 59.5232 253.312 59.41 253.159 59.3755C253.006 59.3411 252.893 59.4395 252.863 59.5872C252.903 59.72 252.981 59.8726 253.09 59.8824Z" fill="#57DCEA"/>
<path d="M253.09 59.8824C253.243 59.9169 253.356 59.8185 253.385 59.6708C253.415 59.5232 253.312 59.41 253.159 59.3755C253.006 59.3411 252.893 59.4395 252.863 59.5872C252.903 59.72 252.981 59.8726 253.09 59.8824Z" fill="#BCBCCC"/>
<path d="M253.159 59.8676C253.267 59.8775 253.425 59.8037 253.43 59.6954C253.435 59.5871 253.356 59.4296 253.243 59.4247C253.134 59.4149 252.977 59.4887 252.972 59.597C252.942 59.7446 253.051 59.8578 253.159 59.8676Z" fill="#F2F2F2"/>
<path d="M253.139 59.7986C253.248 59.8084 253.341 59.7494 253.341 59.6411C253.346 59.5328 253.287 59.4443 253.174 59.4344C253.066 59.4246 252.977 59.4836 252.972 59.5919C252.967 59.7002 253.031 59.7937 253.139 59.7986Z" fill="white"/>
<path opacity="0.54" d="M253.194 59.5036C253.239 59.5282 253.214 59.5676 253.165 59.6514C253.115 59.7352 253.051 59.75 253.007 59.7254C252.962 59.7007 252.967 59.5923 252.992 59.5529C253.11 59.4543 253.179 59.4395 253.194 59.5036Z" fill="white"/>
<path opacity="0.54" d="M253.248 59.8087C253.203 59.784 253.228 59.7444 253.272 59.7691C253.297 59.7296 253.297 59.7296 253.341 59.7543C253.386 59.779 253.361 59.8186 253.336 59.863C253.317 59.7938 253.292 59.8334 253.248 59.8087Z" fill="white"/>
<path opacity="0.15" d="M253.711 61.2799C253.863 61.3144 253.977 61.2159 254.006 61.0683C254.036 60.9206 253.932 60.8075 253.78 60.773C253.627 60.7386 253.514 60.837 253.484 60.9846C253.454 61.1323 253.558 61.2455 253.711 61.2799Z" fill="#73737F"/>
<path d="M253.666 61.2553C253.775 61.2652 253.932 61.1913 253.937 61.0831C253.942 60.9748 253.858 60.8222 253.75 60.8124C253.642 60.8026 253.484 60.8764 253.479 60.9846C253.474 61.088 253.558 61.2455 253.666 61.2553Z" fill="#EDEDF4"/>
<g opacity="0.15">
<path opacity="0.15" d="M253.869 61.0978C253.824 61.0732 253.849 61.0339 253.849 61.0339L253.869 61.0978C253.755 61.1963 253.686 61.211 253.603 61.1618C253.558 61.1372 253.519 61.1126 253.499 61.0486C253.499 61.0486 253.519 61.1126 253.475 61.088C253.475 61.088 253.475 61.088 253.43 61.0634C253.45 61.1274 253.489 61.152 253.534 61.1766C253.667 61.2553 253.8 61.2209 253.869 61.0978C253.893 61.0585 253.918 61.0142 253.898 60.9502C253.962 61.0437 253.913 61.1224 253.869 61.0978Z" fill="#73737F"/>
</g>
<path opacity="0.15" d="M253.573 60.9256C253.524 61.0092 253.543 61.0732 253.632 61.1224C253.588 61.0978 253.568 61.0338 253.573 60.9256C253.637 60.9108 253.706 60.8911 253.789 60.9403C253.873 60.9895 253.893 61.0535 253.849 61.1372C253.898 61.0535 253.878 60.9895 253.789 60.9403C253.686 60.8271 253.617 60.8419 253.573 60.9256Z" fill="#73737F"/>
<path d="M258.252 56.5654L254.637 57.1068L258.252 56.5654Z" fill="#EDEDF4"/>
<path opacity="0.15" d="M254.686 57.52C254.903 57.5348 255.085 57.4216 255.159 57.1903C255.169 56.9787 255.046 56.7966 254.809 56.7129C254.593 56.6982 254.41 56.8114 254.336 57.0427C254.327 57.2543 254.489 57.461 254.686 57.52Z" fill="#73737F"/>
<path d="M254.666 57.4511C254.883 57.4659 255.065 57.3527 255.12 57.1657C255.129 56.9541 255.006 56.772 254.809 56.713C254.592 56.6982 254.41 56.8114 254.356 56.9984C254.346 57.2149 254.469 57.397 254.666 57.4511Z" fill="#EDEDF4"/>
<g opacity="0.15">
<path opacity="0.15" d="M255.026 57.2249C254.982 57.2003 254.967 57.1363 254.967 57.1363C254.942 57.1757 254.942 57.1757 254.918 57.22C254.849 57.343 254.647 57.3922 254.519 57.3184C254.435 57.2692 254.415 57.2052 254.395 57.1363L254.391 57.2446L254.346 57.22C254.366 57.284 254.425 57.3775 254.514 57.4267C254.686 57.5251 254.927 57.5005 255.046 57.2938C255.095 57.2101 255.075 57.1462 255.12 57.0625C255.115 57.1658 255.07 57.2495 255.026 57.2249Z" fill="#73737F"/>
</g>
<path d="M254.627 57.3185C254.78 57.3529 254.893 57.2545 254.923 57.1069C254.952 56.9592 254.849 56.846 254.696 56.8116C254.543 56.7771 254.43 56.8756 254.401 57.0232C254.396 57.1315 254.519 57.3135 254.627 57.3185Z" fill="white"/>
<path d="M254.651 57.2789C254.804 57.3134 254.917 57.2149 254.947 57.0673C254.976 56.9197 254.873 56.8065 254.72 56.772C254.568 56.7376 254.454 56.836 254.425 56.9836C254.44 57.1559 254.543 57.2691 254.651 57.2789Z" fill="#57DCEA"/>
<path d="M254.651 57.2789C254.804 57.3134 254.917 57.2149 254.947 57.0673C254.976 56.9197 254.873 56.8065 254.72 56.772C254.568 56.7376 254.454 56.836 254.425 56.9836C254.44 57.1559 254.543 57.2691 254.651 57.2789Z" fill="#BCBCCC"/>
<path d="M254.696 57.3037C254.805 57.3135 254.962 57.2397 254.967 57.1314C254.972 57.0231 254.893 56.8706 254.78 56.8607C254.667 56.8509 254.514 56.9247 254.509 57.033C254.479 57.1806 254.543 57.2692 254.696 57.3037Z" fill="#F2F2F2"/>
<path d="M254.677 57.2395C254.785 57.2494 254.874 57.1903 254.878 57.082C254.883 56.9738 254.819 56.8852 254.711 56.8753C254.603 56.8655 254.514 56.9245 254.509 57.0328C254.504 57.1411 254.568 57.2297 254.677 57.2395Z" fill="white"/>
<path opacity="0.54" d="M254.755 56.9001C254.8 56.9247 254.775 56.9641 254.726 57.0479C254.676 57.1317 254.612 57.1465 254.568 57.1219C254.523 57.0972 254.528 56.9888 254.553 56.9494C254.602 56.8705 254.716 56.8754 254.755 56.9001Z" fill="white"/>
<path opacity="0.54" d="M254.785 57.2496C254.74 57.2249 254.765 57.1853 254.809 57.2101C254.834 57.1705 254.834 57.1705 254.878 57.1952C254.923 57.2199 254.898 57.2595 254.874 57.304C254.854 57.2298 254.829 57.2743 254.785 57.2496Z" fill="white"/>
<path opacity="0.15" d="M256.149 57.1559C256.302 57.1903 256.415 57.0919 256.444 56.9443C256.474 56.7966 256.371 56.6785 256.218 56.649C256.065 56.6145 255.952 56.713 255.922 56.8606C255.932 57.0328 255.996 57.1263 256.149 57.1559Z" fill="#73737F"/>
<path d="M256.149 57.156C256.257 57.1658 256.415 57.092 256.42 56.9837C256.425 56.8754 256.341 56.7229 256.233 56.713C256.124 56.7032 255.967 56.777 255.962 56.8853C255.913 56.9689 255.996 57.1264 256.149 57.156Z" fill="#EDEDF4"/>
<g opacity="0.15">
<path opacity="0.15" d="M256.351 57.0034C256.307 56.9787 256.331 56.9394 256.331 56.9394C256.331 56.9394 256.307 56.9787 256.351 57.0034C256.238 57.1018 256.169 57.1165 256.085 57.0673C256.041 57.0427 256.001 57.0181 255.982 56.9541C255.982 56.9541 256.001 57.0181 255.957 56.9935C255.957 56.9935 255.957 56.9935 255.913 56.9689C255.932 57.0329 255.972 57.0575 256.016 57.0821C256.149 57.1559 256.282 57.1264 256.351 57.0034C256.376 56.964 256.4 56.9197 256.381 56.8557C256.4 56.9197 256.351 57.0034 256.351 57.0034Z" fill="#73737F"/>
</g>
<path opacity="0.15" d="M256.011 56.8017C255.962 56.8853 255.982 56.9493 256.07 56.9985C256.026 56.9789 256.006 56.91 256.011 56.8017C256.08 56.7869 256.144 56.7672 256.228 56.8164C256.312 56.8657 256.331 56.9296 256.287 57.0133C256.336 56.9296 256.317 56.8657 256.228 56.8164C256.164 56.7279 256.056 56.7229 256.011 56.8017Z" fill="#73737F"/>
<path opacity="0.15" d="M249.662 60.5859L247.494 59.4983C247.494 59.4983 247.45 59.4737 247.425 59.5131C247.425 59.5131 247.401 59.5525 247.445 59.5771L249.159 60.458C248.77 60.3448 248.524 60.4727 248.524 60.4727L248.499 60.5121L248.543 60.5367C248.543 60.5367 248.878 60.3497 249.543 60.6794L249.588 60.704C249.588 60.704 249.632 60.7287 249.657 60.6893C249.681 60.6548 249.706 60.6105 249.662 60.5859Z" fill="#73737F"/>
<path d="M250.962 70.97L252.76 67.466C252.76 67.466 252.903 67.22 252.981 66.8853C253.036 66.5901 253.08 66.1225 252.883 65.6796C252.435 64.8725 250.124 61.1865 250.08 61.1619C250.124 61.1865 252.435 64.8774 252.883 65.6796C253.026 65.9257 253.139 66.3194 252.981 66.8853C252.903 67.22 252.76 67.466 252.76 67.466L250.962 70.97Z" fill="#EDEDF4"/>
<path d="M246.154 58.6716L246.223 58.6569C246.268 58.6815 246.292 58.6421 246.312 58.5978L246.44 58.1795C246.465 58.1401 246.42 58.1155 246.381 58.0909L246.337 58.0663C246.292 58.0417 246.228 58.0565 246.204 58.1007L246.031 58.4945C246.071 58.6224 246.09 58.6864 246.154 58.6716Z" fill="#EDEDF4"/>
<path d="M250.529 51.3981L250.548 51.462C250.593 51.4866 250.568 51.526 250.543 51.5703L250.268 51.8508C250.243 51.8902 250.204 51.8656 250.159 51.841L250.115 51.8164C250.071 51.7918 250.056 51.7278 250.075 51.6835L250.376 51.3636C250.401 51.3242 250.509 51.3292 250.529 51.3981Z" fill="#EDEDF4"/>
<path d="M260.631 58.2682L260.966 58.5733L259.622 60.8076L259.262 60.5468L258.834 61.285L258.405 62.0232L258.814 62.2053L257.464 64.4395L257.031 64.3017L256.937 64.4641L257.39 64.6708L257.691 64.8431C257.735 64.8677 257.755 64.8283 257.755 64.8283L259.528 61.8558L259.597 61.7328L261.395 58.721C261.42 58.6816 261.375 58.657 261.375 58.657L261.075 58.4848L260.695 58.155L260.631 58.2682Z" fill="#EDEDF4"/>
<path d="M259.539 60.7591L259.307 60.5664L259.539 60.7591Z" fill="#D5D5E0"/>
<path d="M261.021 58.3813L261.322 58.5535C261.366 58.5781 261.341 58.6175 261.341 58.6175L259.568 61.59L259.499 61.713L257.726 64.6855C257.701 64.7249 257.657 64.7002 257.657 64.7002L257.356 64.528L256.992 64.3705L257.445 64.5772L257.745 64.7495C257.79 64.7741 257.809 64.7347 257.809 64.7347L259.583 61.7622L259.652 61.6392L261.4 58.7061C261.425 58.6667 261.381 58.6421 261.381 58.6421L261.08 58.4699L260.701 58.1401L261.021 58.3813Z" fill="#D5D5E0"/>
<path d="M258.73 62.1513L258.405 62.0181L258.73 62.1513Z" fill="#D5D5E0"/>
<path d="M259.642 60.8714L260.986 58.6371L260.651 58.332L260.745 58.1696L260.701 58.145L260.607 58.3074L260.942 58.6125L259.642 60.8714Z" fill="white"/>
<path d="M257.08 64.3213L257.514 64.4591L258.859 62.2248L258.814 62.2002L257.465 64.4345L257.08 64.3213L256.942 64.4591L256.987 64.4837L257.08 64.3213Z" fill="white"/>
<path d="M258.878 61.3046L259.307 60.5664L259.262 60.5417L258.878 61.3046L258.41 62.0181L258.454 62.0427L258.878 61.3046Z" fill="white"/>
<path d="M272.863 67.6778C272.818 67.6532 272.863 67.6778 272.863 67.6778C272.818 67.6532 272.843 67.6138 272.587 67.4662C272.459 67.3924 272.306 67.3579 272.306 67.3579C272.306 67.3579 272.434 67.4317 272.587 67.4662C272.868 67.5745 272.887 67.6384 272.863 67.6778Z" fill="#8F8F99"/>
<path opacity="0.19" d="M260.287 41.211L255.297 51.0339C255.272 51.0733 255.208 51.093 255.164 51.0684L245.277 45.1973C245.233 45.1726 245.218 45.1087 245.238 45.0644L251.169 35.7877C251.194 35.7484 251.258 35.7287 251.302 35.7533L260.208 41.0535C260.292 41.1027 260.311 41.1667 260.287 41.211Z" fill="white"/>
<path opacity="0.27" d="M251.43 35.822L245.406 45.2659L245.277 45.1921C245.233 45.1675 245.218 45.1035 245.238 45.0593L251.169 35.7826C251.194 35.7432 251.258 35.7236 251.302 35.7482L251.43 35.822Z" fill="white"/>
<path opacity="0.05" d="M259.277 36.8458L258.016 39.1293C257.991 39.1687 257.927 39.1884 257.839 39.1391L251.563 35.4088C251.519 35.3842 251.46 35.2956 251.484 35.2513L252.923 32.958C252.947 32.9186 253.011 32.8989 253.1 32.9481L259.08 36.5062C259.282 36.6342 259.321 36.7622 259.277 36.8458Z" fill="white"/>
<path opacity="0.05" d="M259.923 41.5456L258.1 45.0939L249.194 39.7936L251.361 36.3389L259.844 41.3881C259.927 41.4373 259.947 41.5062 259.923 41.5456Z" fill="white"/>
<path opacity="0.05" d="M257.548 41.216L256.548 43.0467C256.381 43.3321 256.006 43.3912 255.706 43.2189L250.494 40.1037C250.194 39.9315 250.081 39.5378 250.248 39.2474L251.425 37.4069C251.568 37.1608 251.967 37.0624 252.268 37.2346L257.243 40.1628C257.538 40.4433 257.696 40.8616 257.548 41.216Z" fill="white"/>
<path opacity="0.29" d="M253.223 33.519L252.12 35.2366C252.095 35.2759 252.095 35.2759 252.051 35.2513L252.006 35.2267C251.962 35.2021 251.962 35.2021 251.987 35.1627L253.09 33.4452C253.115 33.4058 253.159 33.4304 253.159 33.4304L253.203 33.4551C253.243 33.4747 253.223 33.519 253.223 33.519Z" fill="white"/>
<g opacity="0.46">
<path opacity="0.29" d="M253.252 34.2474L252.499 35.4531C252.499 35.4531 252.474 35.4925 252.43 35.4679C252.386 35.4432 252.43 35.4679 252.43 35.4679L253.184 34.2621C253.169 34.1982 253.213 34.2228 253.252 34.2474Z" fill="white"/>
<path opacity="0.29" d="M253.307 34.553L252.672 35.557C252.672 35.557 252.647 35.5963 252.603 35.5717C252.558 35.5471 252.603 35.5717 252.603 35.5717L253.238 34.5678C253.223 34.5038 253.263 34.5284 253.307 34.553Z" fill="white"/>
<path opacity="0.29" d="M253.74 34.1981L252.819 35.6942C252.819 35.6942 252.794 35.7336 252.75 35.709C252.75 35.709 252.706 35.6844 252.73 35.645L253.651 34.1489C253.696 34.1735 253.696 34.1735 253.74 34.1981Z" fill="white"/>
<path opacity="0.29" d="M253.952 34.3214L253.031 35.8175C253.031 35.8175 253.006 35.8569 252.962 35.8323C252.962 35.8323 252.918 35.8077 252.942 35.7683L253.863 34.2722C253.868 34.2722 253.868 34.2722 253.952 34.3214C253.952 34.3214 253.908 34.2968 253.952 34.3214Z" fill="white"/>
</g>
<path opacity="0.29" d="M257.987 41.7425L256.957 43.7208C256.933 43.7602 256.933 43.7602 256.888 43.7356L256.844 43.711C256.8 43.6864 256.824 43.647 256.824 43.647L257.854 41.6687C257.878 41.6293 257.878 41.6293 257.918 41.6539L257.962 41.6785C258.011 41.6982 257.987 41.7425 257.987 41.7425Z" fill="white"/>
<g opacity="0.46">
<path opacity="0.29" d="M258.016 42.5789L257.277 43.9569C257.277 43.9569 257.253 43.9962 257.208 43.9716C257.208 43.9716 257.164 43.947 257.189 43.9077L257.928 42.5297C257.928 42.5297 257.952 42.4903 257.996 42.5149L258.016 42.5789C258.041 42.5395 258.041 42.5395 258.016 42.5789Z" fill="white"/>
<path opacity="0.29" d="M258.11 42.9092L257.489 44.0854C257.489 44.0854 257.465 44.1248 257.421 44.1002C257.421 44.1002 257.376 44.0756 257.401 44.0362L258.021 42.86C258.021 42.86 258.046 42.8206 258.09 42.8452L258.11 42.9092C258.11 42.9092 258.066 42.8846 258.11 42.9092Z" fill="white"/>
<path opacity="0.29" d="M258.568 42.5149L257.706 44.2079C257.706 44.2079 257.681 44.2472 257.637 44.2226C257.637 44.2226 257.592 44.198 257.617 44.1587L258.479 42.4657C258.479 42.4657 258.504 42.4264 258.548 42.451L258.568 42.5149C258.568 42.5149 258.548 42.446 258.568 42.5149Z" fill="white"/>
<path opacity="0.29" d="M258.735 42.6136L257.873 44.3065C257.873 44.3065 257.849 44.3459 257.804 44.3213C257.804 44.3213 257.76 44.2967 257.785 44.2573L258.647 42.5644C258.652 42.5644 258.716 42.5447 258.735 42.6136C258.76 42.5693 258.735 42.6136 258.735 42.6136Z" fill="white"/>
</g>
<path opacity="0.05" d="M251.445 37.584L251.573 37.6578C251.701 37.7316 251.741 37.8645 251.667 37.9875L250.938 39.1539C250.869 39.2769 250.736 39.3114 250.608 39.2375L250.479 39.1637L250.411 39.2868C250.268 39.5328 250.361 39.8625 250.622 40.0102L255.745 43.0762C256.001 43.2238 256.336 43.1401 256.474 42.8941L257.381 41.2257C257.548 40.9403 257.435 40.5417 257.09 40.3448L252.154 37.4413C251.918 37.2543 251.583 37.3379 251.445 37.584Z" fill="white"/>
<g opacity="0.3">
<g opacity="0.3">
<path opacity="0.3" d="M252.75 37.7861L251.189 40.3895L252.75 37.7861Z" fill="white"/>
</g>
<g opacity="0.3">
<path opacity="0.3" d="M256.997 40.2954L255.524 42.948L256.997 40.2954Z" fill="white"/>
</g>
<g opacity="0.3">
<path opacity="0.3" d="M256.105 43.1203L250.529 39.8477L256.105 43.1203Z" fill="white"/>
</g>
<g opacity="0.3">
<path opacity="0.3" d="M256.44 42.5444L250.908 39.2964L256.44 42.5444Z" fill="white"/>
</g>
<g opacity="0.3">
<path opacity="0.3" d="M256.77 41.9688L251.283 38.7454L256.77 41.9688Z" fill="white"/>
</g>
<g opacity="0.3">
<path opacity="0.3" d="M257.061 41.3732L251.613 38.1743L257.061 41.3732Z" fill="white"/>
</g>
<g opacity="0.3">
<path opacity="0.3" d="M257.371 40.8368L251.947 37.5986L257.371 40.8368Z" fill="white"/>
</g>
</g>
<path opacity="0.19" d="M253.987 68.8834L249.263 78.1453C249.238 78.1847 249.174 78.2044 249.13 78.1798L241.554 75.1187C241.509 75.0941 241.47 75.0695 241.49 75.0301L244.317 65.0005C244.342 64.9612 244.43 64.9021 244.475 64.9267L253.903 68.726C253.952 68.7555 253.967 68.8195 253.987 68.8834Z" fill="white"/>
<path opacity="0.27" d="M244.627 64.961L241.701 75.153L241.573 75.0792C241.529 75.0546 241.489 75.03 241.509 74.9906L244.337 64.961C244.361 64.9216 244.45 64.8626 244.494 64.8872L244.627 64.961Z" fill="white"/>
<path opacity="0.05" d="M243.268 73.0468L242.652 75.099C242.603 75.1827 242.539 75.1975 242.43 75.1876L242.302 75.1138C242.219 75.0646 242.155 74.976 242.179 74.9317L242.795 72.8795C242.844 72.7959 242.933 72.7417 243.017 72.7909L243.145 72.8648C243.209 72.8451 243.273 72.9386 243.268 73.0468Z" fill="white"/>
<path opacity="0.05" d="M244.386 73.4701L243.686 75.4731C243.637 75.5568 243.573 75.5715 243.465 75.5617L243.336 75.4879C243.253 75.4387 243.189 75.3501 243.213 75.3058L243.873 73.2782C243.923 73.1945 244.011 73.1404 244.095 73.1896L244.223 73.2634C244.332 73.2733 244.366 73.4062 244.386 73.4701Z" fill="white"/>
<path opacity="0.05" d="M245.44 73.9179L244.696 75.8963C244.647 75.9799 244.583 75.9947 244.474 75.9848L244.346 75.911C244.263 75.8618 244.198 75.7732 244.223 75.7289L244.923 73.726C244.972 73.6423 245.061 73.5882 245.144 73.6374L245.272 73.7112C245.425 73.7456 245.489 73.8342 245.44 73.9179Z" fill="white"/>
<path opacity="0.05" d="M246.563 74.3461L245.775 76.2999C245.726 76.3835 245.662 76.3983 245.553 76.3885L245.425 76.3147C245.342 76.2654 245.278 76.1768 245.302 76.1326L246.046 74.1542C246.095 74.0705 246.184 74.0164 246.268 74.0656L246.396 74.1394C246.548 74.1689 246.588 74.3018 246.563 74.3461Z" fill="white"/>
<path opacity="0.05" d="M247.657 74.8137L246.829 76.7429C246.78 76.8265 246.716 76.8413 246.608 76.8314L246.479 76.7576C246.396 76.7084 246.332 76.6198 246.381 76.5362L247.169 74.5824C247.218 74.4987 247.307 74.4446 247.391 74.4938L247.519 74.5676C247.642 74.6415 247.706 74.7301 247.657 74.8137Z" fill="white"/>
<path opacity="0.05" d="M248.711 75.2564L247.815 77.2052C247.765 77.2889 247.701 77.3036 247.593 77.2938L247.465 77.22C247.381 77.1707 247.317 77.0822 247.342 77.0379L248.238 75.089C248.288 75.0054 248.376 74.9512 248.504 75.025L248.632 75.0989C248.721 75.0447 248.76 75.1727 248.711 75.2564Z" fill="white"/>
<path opacity="0.05" d="M249.834 75.6846L248.893 77.6039C248.844 77.6876 248.78 77.7024 248.672 77.6925L248.544 77.6187C248.46 77.5695 248.396 77.4809 248.42 77.4366L249.361 75.5173C249.411 75.4336 249.544 75.4041 249.627 75.4533L249.755 75.5271C249.819 75.5124 249.878 75.601 249.834 75.6846Z" fill="white"/>
<path opacity="0.05" d="M253.987 68.8835L252.401 72.0183L243.618 68.4848L244.627 64.9612L253.908 68.726C253.952 68.7555 253.967 68.8195 253.987 68.8835Z" fill="white"/>
<path opacity="0.29" d="M243.066 73.0911L242.524 74.9169C242.499 74.9563 242.499 74.9563 242.46 74.9317L242.416 74.9071C242.371 74.8825 242.371 74.8825 242.396 74.8431L242.938 73.0173C242.962 72.9779 242.962 72.9779 243.007 73.0025L243.051 73.0271L243.066 73.0911Z" fill="white"/>
<path opacity="0.29" d="M247.898 71.3392L247.086 73.3323C247.061 73.3717 247.061 73.3717 247.017 73.3471L246.972 73.3225C246.928 73.2979 246.928 73.2979 246.953 73.2585L247.765 71.2605C247.79 71.2211 247.79 71.2211 247.829 71.2457L247.874 71.2703C247.879 71.2703 247.923 71.2949 247.898 71.3392Z" fill="white"/>
<path opacity="0.29" d="M244.967 65.7583L244.248 68.1894C244.223 68.2288 244.223 68.2288 244.179 68.2042L244.135 68.1796C244.09 68.155 244.09 68.155 244.076 68.091L244.795 65.6599C244.82 65.6205 244.82 65.6205 244.864 65.6451L244.908 65.6697C244.948 65.6943 244.992 65.7189 244.967 65.7583Z" fill="white"/>
<path opacity="0.29" d="M243.819 69.9168L243.204 71.969C243.179 72.0083 243.179 72.0083 243.135 71.9837L243.09 71.9591C243.046 71.9345 243.046 71.9345 243.071 71.8952L243.686 69.843C243.711 69.8036 243.711 69.8036 243.755 69.8282L243.8 69.8528C243.8 69.8479 243.844 69.8725 243.819 69.9168Z" fill="white"/>
<path opacity="0.44" d="M244.44 72.2989C244.583 72.0529 244.42 71.7428 244.12 71.5657C243.819 71.3934 243.47 71.4082 243.327 71.6542C243.184 71.9003 243.347 72.2103 243.647 72.3875C243.948 72.5598 244.297 72.545 244.44 72.2989Z" fill="white"/>
<path opacity="0.19" d="M250.484 35.4973L246.982 40.8665C246.957 40.9058 246.893 40.9255 246.849 40.9009L244.307 39.3802C244.263 39.3556 244.243 39.2917 244.268 39.2474L247.898 33.952C247.923 33.9127 247.987 33.893 248.031 33.9176L250.4 35.3398C250.464 35.4284 250.504 35.453 250.484 35.4973Z" fill="white"/>
<path opacity="0.27" d="M248.135 34.0307L244.411 39.4934L244.283 39.4195C244.238 39.3949 244.219 39.331 244.243 39.2867L247.874 33.9913C247.898 33.952 247.962 33.9323 248.007 33.9569L248.135 34.0307Z" fill="white"/>
<path opacity="0.05" d="M248.701 35.1234L245.77 39.5082C245.745 39.5476 245.681 39.5673 245.593 39.5181L245.548 39.4935C245.504 39.4689 245.484 39.4049 245.509 39.3606L248.44 34.9757C248.464 34.9364 248.528 34.9167 248.573 34.9413L248.617 34.9659C248.73 34.9757 248.75 35.0446 248.701 35.1234Z" fill="white"/>
<path opacity="0.05" d="M249.509 35.6991L248.568 37.1263C248.519 37.2099 248.386 37.2395 248.258 37.1657L248.174 37.1164C248.09 37.0672 248.051 36.9344 248.1 36.8556L249.041 35.4284C249.09 35.3448 249.223 35.3152 249.307 35.3645L249.391 35.4137C249.519 35.4875 249.583 35.5761 249.509 35.6991Z" fill="white"/>
<path opacity="0.29" d="M249.218 35.8074L248.558 36.8507C248.534 36.8901 248.489 36.8655 248.489 36.8655L248.445 36.8409C248.401 36.8163 248.401 36.8163 248.425 36.7769L249.125 35.7582C249.149 35.7188 249.194 35.7434 249.194 35.7434L249.238 35.768C249.223 35.6991 249.243 35.768 249.218 35.8074Z" fill="white"/>
<path opacity="0.29" d="M246.125 37.9087L245.401 38.9668C245.376 39.0061 245.332 38.9815 245.332 38.9815L245.287 38.9569C245.243 38.9323 245.268 38.8929 245.268 38.8929L245.992 37.8349C246.016 37.7955 246.056 37.8201 246.056 37.8201L246.1 37.8447C246.105 37.8398 246.149 37.8644 246.125 37.9087Z" fill="white"/>
<path opacity="0.27" d="M247.977 36.1862L245.77 39.513C245.745 39.5524 245.681 39.5721 245.593 39.5229L245.548 39.4983C245.504 39.4737 245.484 39.4097 245.509 39.3654L247.755 36.0632C247.78 36.0238 247.844 36.0042 247.932 36.0534L247.977 36.078C247.982 36.078 248.001 36.1419 247.977 36.1862Z" fill="white"/>
<g opacity="0.46">
<path opacity="0.29" d="M247.253 38.2288L246.361 39.5772C246.361 39.5772 246.337 39.6166 246.297 39.592C246.297 39.592 246.253 39.5674 246.277 39.528L247.169 38.1796C247.169 38.1796 247.194 38.1402 247.238 38.1648L247.253 38.2288Z" fill="white"/>
<path opacity="0.29" d="M247.278 38.5738L246.504 39.7155C246.504 39.7155 246.48 39.7549 246.435 39.7303C246.435 39.7303 246.391 39.7057 246.416 39.6663L247.189 38.5246C247.189 38.5246 247.214 38.4852 247.258 38.5098L247.278 38.5738C247.302 38.5344 247.302 38.5344 247.278 38.5738Z" fill="white"/>
<path opacity="0.29" d="M247.8 38.1646L246.741 39.7985C246.741 39.7985 246.716 39.8378 246.677 39.8132C246.677 39.8132 246.632 39.7886 246.657 39.7493L247.716 38.1154C247.716 38.1154 247.741 38.076 247.785 38.1006L247.8 38.1646Z" fill="white"/>
<path opacity="0.29" d="M248.016 38.2879L246.957 39.9218C246.957 39.9218 246.933 39.9611 246.888 39.9365C246.888 39.9365 246.844 39.9119 246.868 39.8726L247.928 38.2387C247.928 38.2387 247.952 38.1993 247.997 38.2239L248.016 38.2879Z" fill="white"/>
</g>
<path opacity="0.19" d="M243.815 61.5359L241.14 71.1029C241.11 71.2505 240.977 71.285 240.825 71.2505L233.741 67.9287C233.658 67.8794 233.593 67.7909 233.598 67.6826L235.313 57.6136C235.342 57.466 235.5 57.3922 235.628 57.466L243.716 61.3144C243.785 61.2997 243.82 61.4325 243.815 61.5359Z" fill="white"/>
<path opacity="0.27" d="M235.583 57.4413C235.455 57.3675 235.298 57.4413 235.268 57.589L233.554 67.6579C233.549 67.7662 233.608 67.8548 233.697 67.904L233.825 67.9778L235.623 57.4659L235.583 57.4413Z" fill="white"/>
<path opacity="0.05" d="M234.303 67.6532L237.268 69.036C237.312 69.0607 237.376 69.0459 237.357 68.977L238.268 64.7398C238.293 64.7004 238.248 64.6758 238.204 64.6512L235.115 63.1945C235.071 63.1699 235.007 63.1846 235.027 63.2535L234.268 67.5252C234.214 67.604 234.258 67.6286 234.303 67.6532Z" fill="white"/>
<path opacity="0.05" d="M243.697 61.2504L235.692 57.4512L235.081 60.8764L242.908 64.6855L243.815 61.5408C243.82 61.4325 243.785 61.2996 243.697 61.2504Z" fill="white"/>
<path opacity="0.05" d="M236.022 57.9679C235.977 57.9433 235.913 57.9581 235.933 58.027L235.465 60.714C235.44 60.7534 235.485 60.778 235.529 60.8026C235.573 60.8272 235.637 60.8124 235.618 60.7435L236.086 58.0565C236.105 58.0171 236.061 57.9925 236.022 57.9679Z" fill="white"/>
<path d="M279.774 32.5296C279.774 32.5296 271.873 -0.55139 234.504 17.0816C197.141 34.7147 178.482 79.8381 178.142 85.5566C177.777 91.3146 240.691 92.2004 240.691 92.2004L267.36 89.6364L279.774 32.5296Z" fill="url(#paint0_radial_2308_4257)"/>
<path d="M272.232 106.95C272.232 106.95 286.971 57.7564 282.207 33.0564C281.724 30.5367 278.296 29.8674 276.996 32.018L240.923 91.9988L268.74 112.703L272.232 106.95Z" fill="#345763"/>
<path d="M275.257 6.11728C224.613 -23.1152 174.649 63.3865 174.649 63.3865L272.858 121.266C272.833 121.305 323.3 33.839 275.257 6.11728Z" fill="url(#paint1_radial_2308_4257)"/>
<path opacity="0.1" d="M275.173 6.06789C224.485 -23.1892 174.521 63.3125 174.521 63.3125L272.73 121.192C272.705 121.231 323.216 33.7896 275.173 6.06789ZM271.282 117.781L178.177 62.904C178.177 62.904 225.554 -19.1193 273.592 8.60236C319.157 34.8969 271.282 117.781 271.282 117.781Z" fill="url(#paint2_linear_2308_4257)"/>
<path opacity="0.1" d="M275.129 6.04327C224.441 -23.2139 174.477 63.2829 174.477 63.2829L272.686 121.162C272.666 121.207 323.172 33.765 275.129 6.04327ZM271.237 117.757L178.132 62.8745C178.132 62.8745 194.614 34.3408 218.022 16.5995C227.057 9.44389 235.303 10.753 236.82 16.6093C238.534 19.9509 219.781 36.9343 219.037 48.8783C218.229 60.837 248.874 58.4896 260.725 45.5712C272.577 32.6527 272.124 19.0306 260.986 17.0965C250.681 15.3101 264.06 3.48911 274.823 9.32086C318.211 36.4323 271.237 117.757 271.237 117.757Z" fill="url(#paint3_linear_2308_4257)"/>
<path opacity="0.21" d="M250.001 98.7703L268.735 112.703L272.257 106.905C272.257 106.905 282.557 72.5053 283.178 46.8604C283.212 46.1124 282.956 45.3644 282.434 44.7886C282.183 44.5327 281.907 44.321 281.626 44.2128C277.725 42.7856 257.336 80.4532 250.001 98.7703Z" fill="#27272D"/>
<path opacity="0.11" d="M286.01 21.3435C280.488 21.8258 269.814 53.3271 258.484 79.3607C247.149 105.394 212.87 72.3085 205.574 61.3635C198.279 50.4186 209.776 33.0759 209.776 33.0759L184.417 56.6539C184.417 56.6539 184.275 57.8842 184.033 59.8822L255.622 102.073C260.233 99.917 265.971 98.9574 271.947 102.023C286.256 109.405 291.527 20.8612 286.01 21.3435Z" fill="#27272D"/>
<path d="M135.119 127.102L176.955 56.7032C180.019 51.5063 203.106 53.7062 227.84 66.0488L228.51 68.5439L242.332 76.7526L244.563 75.9308C267.405 91.7478 280.468 111.108 277.36 116.285L277.316 116.261L235.48 186.66C230.47 195.125 189.181 264.377 189.181 264.377L88.8442 204.775C88.8196 204.82 130.109 135.567 135.119 127.102Z" fill="#F5F5F7"/>
<path d="M170.945 180.966L171.103 181.001C125.528 153.938 140.828 129.986 140.828 129.986L185.974 54.0605C195.56 54.0901 211.362 57.7663 227.84 66.0439L228.51 68.539L242.332 76.7477L244.563 75.9259C259.834 86.4968 270.759 98.7115 275.365 107.166L230.219 183.092C230.194 183.136 216.476 208.004 170.945 180.966Z" fill="white"/>
<path d="M251.676 159.534C253.548 156.399 250.07 150.351 241.879 142.526C233.692 134.701 221.825 126.035 208.397 118.052C195.013 110.094 181.664 103.8 170.871 100.38C160.078 96.9595 153.088 96.7922 151.246 99.8828L151.335 99.932C155.128 93.5736 180.698 101.718 208.303 118.111C221.687 126.069 233.598 134.755 241.741 142.56C245.696 146.364 248.602 149.74 250.272 152.634C252.026 155.577 252.459 157.875 251.499 159.431L251.676 159.534Z" fill="#C9C9D6"/>
<path d="M189.979 108.475L190.048 108.456L217.879 61.5851C217.904 61.5408 217.86 61.5162 217.86 61.5162C217.815 61.4916 217.791 61.5359 217.791 61.5359L189.959 108.406C189.959 108.406 189.934 108.451 189.979 108.475Z" fill="#C9C9D6"/>
<path d="M228.485 68.5833L242.307 76.792L244.539 75.9702C244.583 75.9948 244.672 76.044 244.716 76.0735L192.59 163.776C189.856 168.407 183.881 169.933 179.25 167.201C174.62 164.47 173.093 158.495 175.822 153.869L227.869 66.2998L228.485 68.5833Z" fill="#D5D5E0"/>
<path d="M193.659 158.072C193.659 158.072 194.929 155.469 196.028 155.695C197.126 155.921 193.796 161.079 192.003 164.086C190.21 167.088 184.447 169.972 179.245 166.911L176.777 161.04L193.659 158.072Z" fill="#E6E6EF"/>
<path d="M180.319 150.139C180.319 150.139 181.984 147.762 181.285 146.95C180.585 146.138 177.644 151.527 175.851 154.529C174.058 157.531 174.26 163.973 179.462 167.034L185.817 166.369L180.319 150.139Z" fill="#E6E6EF"/>
<path d="M184.107 158.997C190.865 163.013 195.55 155.415 195.55 155.415L242.337 76.7475L228.47 68.5093L182.614 146.069C182.61 146.074 175.836 154.051 184.107 158.997Z" fill="#E6E6EF"/>
<path d="M180.137 165.666C176.339 163.417 175.344 158.043 177.925 153.677L223.273 77.4021C225.525 73.6078 230.441 72.2889 234.239 74.5379C234.283 74.5626 234.283 74.5625 234.327 74.5872C234.372 74.6118 234.372 74.6118 234.416 74.6364C238.214 76.8854 239.416 81.7969 237.165 85.5912L191.816 161.866C189.151 166.182 183.935 167.915 180.137 165.666Z" fill="url(#paint4_radial_2308_4257)"/>
<path d="M233.864 75.0842C233.908 75.1088 233.908 75.1088 233.953 75.1334C233.997 75.158 233.997 75.158 234.041 75.1826C237.795 77.4071 238.997 82.3185 236.775 86.0686L191.663 161.837C189.082 166.202 183.92 167.846 180.166 165.621C183.92 167.846 189.043 166.178 191.594 161.857L236.386 86.5459C238.613 82.7959 237.425 77.9533 233.672 75.7289C233.628 75.7043 233.628 75.7043 233.583 75.6797C233.539 75.6551 233.539 75.6551 233.495 75.6305C229.785 73.4307 224.963 74.6856 222.692 78.411L177.9 153.722C175.344 158.043 176.324 163.348 180.073 165.572C176.275 163.323 175.324 157.974 177.881 153.653L222.948 77.8598C225.219 74.1344 230.11 72.8598 233.864 75.0842Z" fill="#04B2C4"/>
<path opacity="0.4" d="M181.885 162.634C179.541 161.222 178.964 157.964 180.511 155.282L225.199 80.1484C226.613 77.8009 229.593 77.0037 231.894 78.3915L231.938 78.4161L231.982 78.4407C234.283 79.8285 235.012 82.8256 233.672 85.1533L189.028 160.311C187.407 163.013 184.235 164.047 181.885 162.634Z" fill="url(#paint5_radial_2308_4257)"/>
<path opacity="0.44" d="M233.864 75.0842L180.403 165.001" stroke="#A9FBFF" stroke-width="0.2285" stroke-miterlimit="10"/>
<path opacity="0.44" d="M192.215 160.577L178.61 152.491" stroke="#A9FBFF" stroke-width="0.2285" stroke-miterlimit="10"/>
<path opacity="0.44" d="M194.742 156.296L181.137 148.21" stroke="#A9FBFF" stroke-width="0.2285" stroke-miterlimit="10"/>
<path opacity="0.44" d="M197.313 152.043L183.713 143.958" stroke="#A9FBFF" stroke-width="0.2285" stroke-miterlimit="10"/>
<path opacity="0.44" d="M199.846 147.767L186.24 139.681" stroke="#A9FBFF" stroke-width="0.2285" stroke-miterlimit="10"/>
<path opacity="0.44" d="M202.402 143.446L188.772 135.405" stroke="#A9FBFF" stroke-width="0.2285" stroke-miterlimit="10"/>
<path opacity="0.44" d="M204.929 139.169L191.324 131.084" stroke="#A9FBFF" stroke-width="0.2285" stroke-miterlimit="10"/>
<path opacity="0.44" d="M207.461 134.893L193.855 126.807" stroke="#A9FBFF" stroke-width="0.2285" stroke-miterlimit="10"/>
<path opacity="0.44" d="M210.032 130.641L196.427 122.555" stroke="#A9FBFF" stroke-width="0.2285" stroke-miterlimit="10"/>
<path opacity="0.44" d="M212.56 126.364L198.954 118.279" stroke="#A9FBFF" stroke-width="0.2285" stroke-miterlimit="10"/>
<path opacity="0.44" d="M215.116 122.043L201.51 113.958" stroke="#A9FBFF" stroke-width="0.2285" stroke-miterlimit="10"/>
<path opacity="0.44" d="M217.643 117.767L204.038 109.681" stroke="#A9FBFF" stroke-width="0.2285" stroke-miterlimit="10"/>
<path opacity="0.44" d="M220.219 113.515L206.614 105.429" stroke="#A9FBFF" stroke-width="0.2285" stroke-miterlimit="10"/>
<path opacity="0.44" d="M222.747 109.238L209.141 101.152" stroke="#A9FBFF" stroke-width="0.2285" stroke-miterlimit="10"/>
<path opacity="0.44" d="M225.303 104.917L211.697 96.8315" stroke="#A9FBFF" stroke-width="0.2285" stroke-miterlimit="10"/>
<path opacity="0.44" d="M227.83 100.636L214.225 92.5498" stroke="#A9FBFF" stroke-width="0.2285" stroke-miterlimit="10"/>
<path opacity="0.44" d="M230.362 96.3591L216.756 88.2734" stroke="#A9FBFF" stroke-width="0.2285" stroke-miterlimit="10"/>
<path opacity="0.44" d="M232.933 92.1069L219.328 84.0212" stroke="#A9FBFF" stroke-width="0.2285" stroke-miterlimit="10"/>
<path opacity="0.44" d="M235.49 87.7862L221.884 79.7004" stroke="#A9FBFF" stroke-width="0.2285" stroke-miterlimit="10"/>
<path opacity="0.44" d="M238.017 83.5095L224.416 75.4238" stroke="#A9FBFF" stroke-width="0.2285" stroke-miterlimit="10"/>
<path opacity="0.44" d="M189.659 164.898L176.053 156.812" stroke="#A9FBFF" stroke-width="0.2285" stroke-miterlimit="10"/>
<path opacity="0.44" d="M235.49 87.7862L221.884 79.7004" stroke="#A9FBFF" stroke-width="0.2285" stroke-miterlimit="10"/>
<path d="M232.051 93.9425L221.003 81.1274L216.476 88.7604L227.091 101.91L232.051 93.9425Z" fill="url(#paint6_radial_2308_4257)"/>
<path d="M198.639 150.06L187.767 137.349L183.245 144.977L193.644 158.003L198.639 150.06Z" fill="url(#paint7_radial_2308_4257)"/>
<path d="M224.874 105.955L213.825 93.1404L212.938 94.6758L223.554 107.826L224.874 105.955Z" fill="url(#paint8_radial_2308_4257)"/>
<path d="M180.181 165.69C180.137 165.666 180.137 165.666 180.093 165.641C180.048 165.616 180.048 165.616 180.004 165.592C176.206 163.343 175.004 158.431 177.255 154.637L222.604 78.3617C225.106 74.1294 230.096 72.3823 233.864 74.3803C230.204 72.5004 225.377 74.1687 222.953 78.2682L177.709 154.366C175.512 158.072 176.679 162.846 180.344 165.016C180.388 165.041 180.388 165.041 180.433 165.065C180.477 165.09 180.477 165.09 180.521 165.114C184.186 167.29 188.94 166.049 191.142 162.344L236.386 86.2456C238.815 82.1412 237.982 77.0969 234.574 74.779C238.111 77.1707 238.938 82.3332 236.436 86.5655L191.078 162.846C188.895 166.62 183.979 167.939 180.181 165.69Z" fill="#E6E6EF"/>
<path d="M194.235 157.176L236.578 85.9012C238.775 82.1955 237.608 77.4218 233.943 75.2515C233.898 75.2269 233.898 75.2269 233.854 75.2023C233.81 75.1777 233.81 75.1777 233.765 75.1531C230.101 72.9779 225.347 74.2181 223.145 77.9238L181.181 148.54C181.161 148.471 181.482 147.718 181.437 147.693L223.249 77.3382C225.5 73.5439 230.416 72.2249 234.214 74.474C234.258 74.4986 234.258 74.4986 234.302 74.5232C234.347 74.5478 234.347 74.5478 234.391 74.5724C238.189 76.8214 239.391 81.7329 237.14 85.5272L195.235 156.054C195.077 156.025 194.279 157.201 194.235 157.176Z" fill="#D5D5E0"/>
<path d="M199.875 113.249L199.737 113.283L200.639 115.675L200.777 115.636L199.875 113.249Z" fill="#C9C9D6"/>
<path d="M178.925 165.434L180.92 166.645L181.378 165.853L179.383 164.642L178.925 165.434Z" fill="#E6E6EF"/>
<path d="M189.772 111.162C191.211 111.408 192.614 110.399 192.816 108.938C193.063 107.501 192.053 106.098 190.59 105.896C189.152 105.65 187.748 106.659 187.546 108.121C187.344 109.587 188.334 110.921 189.772 111.162Z" fill="#F5F5F7"/>
<path d="M189.354 106.005C188.999 106.212 188.664 106.487 188.437 106.881C187.777 108.023 188.122 109.45 189.265 110.109C190.408 110.769 191.836 110.424 192.496 109.282C192.723 108.889 192.866 108.441 192.821 108.008C192.945 108.608 192.816 109.233 192.486 109.804C191.752 111.079 190.112 111.477 188.841 110.744C187.57 110.011 187.166 108.372 187.9 107.097C188.25 106.6 188.777 106.197 189.354 106.005Z" fill="#D9D9E2"/>
<path d="M190.112 110.07C191.127 110.247 192.053 109.553 192.225 108.539C192.398 107.526 191.703 106.6 190.693 106.428C189.684 106.256 188.752 106.95 188.58 107.959C188.432 108.928 189.097 109.898 190.112 110.07Z" fill="white"/>
<path d="M190.117 109.957C191.087 110.104 191.989 109.455 192.136 108.49C192.284 107.521 191.634 106.62 190.668 106.472C189.703 106.325 188.797 106.974 188.649 107.939C188.501 108.908 189.151 109.809 190.117 109.957Z" fill="#57DCEA"/>
<path d="M190.117 109.957C191.087 110.104 191.989 109.455 192.136 108.49C192.284 107.521 191.634 106.62 190.668 106.472C189.703 106.325 188.797 106.974 188.649 107.939C188.501 108.908 189.151 109.809 190.117 109.957Z" fill="#C8C8CE"/>
<path d="M190.072 109.932C190.929 110.075 191.737 109.489 191.88 108.633C192.023 107.776 191.437 106.969 190.58 106.827C189.723 106.684 188.915 107.27 188.772 108.126C188.629 108.982 189.22 109.789 190.072 109.932Z" fill="#D9D9DD"/>
<path d="M190.215 109.489C190.915 109.597 191.53 109.135 191.683 108.465C191.791 107.767 191.328 107.151 190.659 106.994C189.959 106.886 189.343 107.348 189.191 108.018C189.033 108.692 189.516 109.376 190.215 109.489Z" fill="#F2F2F2"/>
<path d="M189.59 107.427C189.432 107.801 189.826 108.032 190.289 108.239C190.821 108.431 191.225 108.544 191.407 108.126C191.565 107.752 191.279 107.23 190.791 107.068C190.259 106.876 189.747 107.053 189.59 107.427Z" fill="white"/>
<path d="M190.319 109.607C190.378 109.405 190.201 109.302 189.954 109.223C189.708 109.14 189.511 109.081 189.452 109.282C189.393 109.484 189.521 109.671 189.738 109.799C190.058 109.863 190.265 109.809 190.319 109.607Z" fill="white"/>
<path d="M216.707 123.136L214.224 123.579L214.219 123.692L216.702 123.249L216.707 123.136Z" fill="#C9C9D6"/>
<path d="M183.644 170.848C192.732 172.349 201.289 166.158 202.786 157.073C204.284 147.988 198.097 139.44 189.003 137.939C179.91 136.438 171.359 142.629 169.861 151.714C168.364 160.804 174.551 169.352 183.644 170.848Z" fill="#F5F5F7"/>
<path d="M184.368 169.396C193.102 170.804 201.318 164.893 202.702 156.207C204.111 147.482 198.2 139.268 189.511 137.88C180.777 136.473 172.561 142.383 171.176 151.069C169.718 159.77 175.634 167.984 184.368 169.396Z" fill="white"/>
<path d="M184.826 167.083C192.25 168.323 199.215 163.269 200.451 155.848C201.693 148.426 196.634 141.468 189.21 140.227C181.787 138.987 174.827 144.041 173.58 151.463C172.339 158.884 177.398 165.843 184.826 167.083Z" fill="#E6E6EF"/>
<path d="M184.585 166.886C191.338 167.974 197.722 163.407 198.836 156.611C199.924 149.864 195.353 143.481 188.555 142.363C181.802 141.276 175.418 145.843 174.304 152.639C173.221 159.391 177.792 165.774 184.585 166.886Z" fill="url(#paint9_radial_2308_4257)"/>
<path d="M184.289 166.483C190.659 167.521 196.693 163.161 197.732 156.798C198.772 150.434 194.407 144.401 188.043 143.362C181.674 142.324 175.639 146.684 174.6 153.048C173.605 159.435 177.925 165.439 184.289 166.483Z" fill="url(#paint10_radial_2308_4257)"/>
<path d="M184.994 164.253C190.304 165.095 195.294 161.532 196.132 156.222C196.974 150.912 193.408 145.926 188.097 145.09C182.787 144.248 177.797 147.811 176.96 153.121C176.098 158.358 179.708 163.368 184.994 164.253Z" fill="url(#paint11_radial_2308_4257)"/>
<path d="M181.196 148.83L182.083 152.974L177.94 153.859L178.989 158.736L184.536 157.546L185.728 163.092L190.61 162.044L189.723 157.9L193.866 157.014L191.605 146.635L181.196 148.83ZM189.708 161.468L186.299 162.196L185.27 157.388L185.112 156.65L184.373 156.812L179.561 157.841L178.832 154.435L187.762 152.565L189.708 161.468ZM192.935 156.483L189.526 157.211L188.496 152.403L188.334 151.665L187.6 151.827L182.787 152.856L182.058 149.45L190.989 147.58L192.935 156.483Z" fill="white"/>
<path d="M196.358 155.533C194.348 157.186 190.289 155.897 187.28 152.693C184.27 149.489 183.482 145.582 185.462 143.978C187.472 142.329 191.531 143.613 194.54 146.817C197.58 149.972 198.363 153.879 196.358 155.533Z" fill="url(#paint12_radial_2308_4257)"/>
<path d="M183.083 163.5C181.891 164.45 179.501 163.717 177.728 161.817C175.955 159.918 175.482 157.595 176.674 156.645C177.866 155.695 180.255 156.428 182.028 158.328C183.787 160.159 184.304 162.506 183.083 163.5Z" fill="url(#paint13_radial_2308_4257)"/>
<path d="M197.875 201.773C199.831 203.255 201.372 205.253 202.367 207.585C204.702 212.974 206.786 228.634 200.643 238.964C192.58 252.517 189.678 247.094 189.678 247.094L168.876 234.741C168.876 234.741 163.733 232.182 173.95 217.236C183.018 203.973 189.92 195.779 197.875 201.773Z" fill="white"/>
<path d="M139.734 167.172C137.498 166.173 134.976 165.774 132.513 165.991C126.666 166.478 111.937 172.206 105.819 182.492C97.7553 196.045 103.942 195.986 103.942 195.986L124.745 208.338C124.745 208.338 129.454 211.641 137.675 195.489C144.842 181.242 148.758 171.325 139.734 167.172Z" fill="white"/>
<path d="M152.734 259.441L166.458 236.395L123.893 211.124L110.607 234.426L152.734 259.441Z" fill="#C9C9D6"/>
<g opacity="0.21">
<path opacity="0.21" d="M150.305 257.975L164.024 234.928L126.306 212.517L112.981 235.789L150.305 257.975Z" fill="#27272D"/>
</g>
<g opacity="0.21">
<path opacity="0.21" d="M145.497 255.145L159.221 232.098L131.089 215.396L117.676 238.619L145.497 255.145Z" fill="#27272D"/>
</g>
<path d="M153.251 258.447C155.931 253.905 148.65 244.613 137.025 237.669C125.331 230.745 113.701 228.777 111.016 233.314C108.336 237.856 115.617 247.148 127.242 254.092C138.941 261.021 150.567 262.989 153.251 258.447Z" fill="#AEAEBA"/>
<path d="M193.339 262.148C197.077 255.878 190.634 245.135 178.965 238.161C167.27 231.237 154.803 230.715 151.064 236.985C147.325 243.255 153.768 253.998 165.438 260.967C177.108 267.94 189.644 268.442 193.339 262.148Z" fill="#AEAEBA"/>
<path d="M192.801 261.252C196.417 255.199 190.196 244.879 179.009 238.191C167.753 231.518 155.739 231.026 152.123 237.079C148.512 243.132 154.729 253.452 165.916 260.14C177.176 266.808 189.191 267.305 192.801 261.252Z" fill="#747480"/>
<path d="M190.56 258.142C193.496 253.162 188.146 244.574 178.605 238.89C169.063 233.206 158.916 232.62 155.98 237.6C153.044 242.581 158.394 251.168 167.935 256.853C177.477 262.537 187.624 263.122 190.56 258.142Z" fill="#5BD9E5"/>
<path d="M131.069 225.159C134.808 218.89 128.365 208.142 116.696 201.173C105.001 194.249 92.5338 193.727 88.795 199.997C85.0562 206.267 91.4994 217.015 103.169 223.983C114.838 230.957 127.331 231.429 131.069 225.159Z" fill="#AEAEBA"/>
<path d="M130.533 224.264C134.144 218.211 127.927 207.891 116.74 201.198C105.484 194.524 93.4701 194.032 89.8544 200.085C86.2388 206.139 92.4602 216.459 103.647 223.152C114.932 229.781 126.922 230.317 130.533 224.264Z" fill="#747480"/>
<path d="M128.291 221.153C131.227 216.173 125.877 207.585 116.336 201.901C106.794 196.217 96.6467 195.632 93.7109 200.612C90.775 205.592 96.1246 214.18 105.666 219.864C115.163 225.524 125.311 226.109 128.291 221.153Z" fill="#5BD9E5"/>
<path d="M129.217 203.018L139.178 186.286C146.409 174.071 161.467 169.293 173.009 175.779C173.314 175.956 173.625 176.133 173.93 176.311L173.536 176.084C173.841 176.261 174.152 176.439 174.432 176.66C185.644 183.717 188.619 199.249 181.368 211.394L171.413 228.127C171.364 228.097 129.803 202.01 129.217 203.018Z" fill="#F5F5F7"/>
<path d="M133.148 205.341L143.458 187.994C150.99 175.361 164.586 169.16 174.044 174.386C174.305 174.539 174.526 174.667 174.792 174.819L174.443 174.618C174.709 174.77 174.925 174.898 175.167 175.09C184.226 180.902 185.354 195.779 177.797 208.456L167.482 225.799C167.463 225.73 133.754 204.288 133.148 205.341Z" fill="white"/>
<path d="M171.349 228.029C175.088 221.759 168.644 211.011 156.975 204.042C145.281 197.118 132.813 196.596 129.074 202.866C125.336 209.136 131.779 219.879 143.448 226.852C155.113 233.826 167.58 234.348 171.349 228.029Z" fill="#AEAEBA"/>
<path d="M170.768 227.108C174.383 221.055 168.206 210.759 156.951 204.086C145.739 197.442 133.725 196.945 130.139 202.954C126.528 209.008 132.7 219.303 143.956 225.976C155.162 232.625 167.221 233.142 170.768 227.108Z" fill="#747480"/>
<path d="M168.669 223.85C171.655 218.781 166.359 210.105 156.813 204.426C147.271 198.742 137.074 198.245 134.089 203.314C131.104 208.383 136.4 217.059 145.946 222.738C155.443 228.393 165.635 228.89 168.669 223.85Z" fill="#5BD9E5"/>
<g opacity="0.5">
<path opacity="0.5" d="M136.197 225.715C140.498 218.476 132.68 205.946 118.769 197.689C104.859 189.426 90.1153 188.589 85.8198 195.823C81.5195 203.063 89.337 215.592 103.248 223.85C117.154 232.113 131.897 232.955 136.197 225.715Z" fill="#5BD9E5"/>
</g>
<g opacity="0.5">
<path opacity="0.5" d="M175.014 229.795C179.314 222.556 171.497 210.026 157.586 201.768C143.675 193.505 128.932 192.669 124.636 199.903C120.341 207.142 128.153 219.672 142.064 227.93C155.975 236.193 170.714 237.034 175.014 229.795Z" fill="#5BD9E5"/>
</g>
<g opacity="0.5">
<path opacity="0.5" d="M197.269 262.95C201.565 255.711 193.752 243.181 179.841 234.923C165.931 226.66 151.187 225.824 146.892 233.058C142.596 240.297 150.409 252.827 164.32 261.085C178.231 269.348 192.969 270.189 197.269 262.95Z" fill="#5BD9E5"/>
</g>
<path d="M152.921 259.018C155.423 254.786 147.99 245.755 136.32 238.786C124.626 231.862 113.149 229.628 110.641 233.86C108.139 238.093 115.572 247.123 127.242 254.092C138.941 261.021 150.418 263.25 152.921 259.018Z" fill="#AEAEBA"/>
<path d="M152.138 258.039C154.517 254.023 147.463 245.45 136.365 238.811C125.267 232.172 114.321 230.13 111.942 234.141C109.563 238.156 116.617 246.734 127.715 253.373C138.798 259.943 149.763 262.054 152.138 258.039Z" fill="#747480"/>
<path d="M149.99 249.894C150.542 250.563 150.901 251.355 151.054 252.207C151.207 253.058 151.074 253.796 150.719 254.412C148.67 257.857 139.281 256.065 129.695 250.356C120.109 244.648 114.05 237.29 116.099 233.845C116.454 233.23 117.075 232.768 117.887 232.477C118.7 232.187 119.612 232.128 120.444 232.315C125.07 233.23 130.774 235.524 136.503 238.89C142.286 242.345 146.98 246.282 149.99 249.894Z" fill="white"/>
<path d="M92.5584 368.891C96.0312 365.672 99.2971 361.794 102.425 357.03C118.809 332.025 105.991 308.797 118.444 301.503C130.252 294.589 142.31 313.713 125.498 319.412C122.277 320.514 119.341 322.429 117.173 325.052C113.489 329.658 109.612 337.867 116.213 348.349C128.932 368.664 103.061 381.844 98.4351 378.473C98.4351 378.473 115.233 390.426 124.912 374.043C132.498 361.189 115.917 349.791 120.597 340.106C125.237 330.396 137.05 337.916 133.114 346.415C133.114 346.415 146.241 347.099 151.729 322.212C157.241 297.286 148.714 288.92 160.059 277.857C169.048 269.102 180.378 289.313 164.389 290.691C164.389 290.691 170.984 297.837 180.378 289.313C191.856 278.865 191.974 254.972 177.26 244.17C177.26 244.17 168.265 235.587 160.665 236.532C160.665 236.532 167.65 217.354 141.197 209.898C141.197 209.898 133.675 207.064 125.084 213.363C125.084 213.363 123.843 207.211 107.509 204.623C91.1742 202.034 74.5984 223.643 75.8644 235.253C75.8644 235.253 81.8593 229.072 86.8 234.136C91.9033 239.288 81.5785 254.653 63.1456 252.148C41.57 249.121 31.4373 265.352 36.7426 276.592C39.8361 283.172 33.1417 298.309 16.5511 296.065C16.5511 296.065 31.9595 305.765 40.5503 296.671C47.7816 288.998 35.7968 280.844 41.6045 275.632C47.4368 270.381 59.7369 273.334 53.9981 284.023C48.2102 294.678 25.8759 315.062 24.1814 336.272C24.1814 336.272 33.3289 316.243 51.2347 317.045C69.1799 317.872 65.8155 341.883 46.0428 340.485C50.7224 344.319 52.2002 356.312 35.4717 360.554C35.0875 360.657 34.7279 360.717 34.3092 360.795C20.7874 363.6 8.10806 390.205 41.9838 416.052C59.5103 429.452 43.7029 447.952 20.5904 444.039C3.95549 441.224 -5.96536 453.267 3.94564 463.995C-1.07882 455.063 6.47757 445.53 21.9598 453.232C36.4125 460.388 50.7864 458.075 55.8503 449.959C67.3425 431.554 40.7129 421.514 45.5551 405.953C50.3973 390.387 71.1503 392.887 77.5047 367.424C83.9035 342.089 103.617 357.665 92.5584 368.891Z" fill="url(#paint14_linear_2308_4257)" fill-opacity="0.5"/>
<path opacity="0.2" d="M92.6225 368.423C96.1003 365.205 99.3612 361.327 102.494 356.558C118.883 331.543 106.056 308.305 118.518 301.006C130.331 294.087 142.399 313.226 125.577 318.925C122.356 320.027 119.415 321.942 117.252 324.57C113.568 329.176 109.686 337.385 116.292 347.877C129.02 368.202 103.139 381.381 98.509 378.01C98.509 378.01 115.316 389.974 124.996 373.581C132.582 360.721 115.996 349.319 120.676 339.629C125.316 329.919 137.138 337.439 133.198 345.943C133.198 345.943 146.33 346.627 151.818 321.73C157.33 296.794 148.798 288.423 160.147 277.36C169.142 268.6 180.477 288.821 164.482 290.199C164.482 290.199 171.078 297.345 180.477 288.821C191.954 278.373 192.072 254.471 177.349 243.658C177.349 243.658 168.349 235.071 160.743 236.016C160.743 236.016 167.728 216.832 141.261 209.367C141.261 209.367 133.734 206.532 125.139 212.831C125.139 212.831 123.897 206.675 107.553 204.086C91.2088 201.493 74.6281 223.112 75.894 234.726C75.894 234.726 81.8889 228.545 86.8346 233.609C91.9428 238.767 81.6081 254.131 63.1703 251.626C41.5848 248.594 31.4522 264.83 36.7574 276.08C39.8558 282.66 33.1516 297.808 16.561 295.558C16.561 295.558 31.9792 305.263 40.575 296.164C47.8112 288.491 35.8166 280.327 41.6292 275.115C47.4664 269.864 59.7714 272.822 54.0278 283.511C48.2447 294.176 25.9006 314.569 24.211 335.79C24.211 335.79 33.3585 315.751 51.2742 316.558C69.2292 317.384 65.8648 341.405 46.0822 340.008C50.7668 343.841 52.2446 355.844 35.5111 360.087C35.1269 360.19 34.7673 360.249 34.3486 360.328C20.8171 363.133 8.13768 389.747 42.0331 415.609C59.5695 429.014 43.7572 447.523 20.6348 443.601C3.99003 440.781 -5.93082 452.833 3.9851 463.562C-1.03936 454.63 6.51211 445.092 22.0091 452.794C36.4668 459.955 50.8456 457.642 55.9144 449.521C67.4116 431.111 40.7671 421.066 45.6093 405.491C50.4515 389.92 71.2144 392.42 77.5738 366.947C83.9627 341.612 103.691 357.198 92.6225 368.423Z" fill="url(#paint15_linear_2308_4257)"/>
<path opacity="0.1" d="M144.271 316.814C119.656 296.73 144.818 283.615 157.443 284.5C170.073 285.386 173.511 276.262 173.511 276.262C166.945 279.594 162.457 278.309 162.457 278.309C177.191 274.53 176.812 261.833 176.812 261.833C180.629 265.411 179.787 270.15 179.787 270.15C179.787 270.15 185.186 262.158 176.156 252.896C167.172 243.663 153.852 244.992 153.852 244.992C157.295 239.141 160.216 226.39 146.827 217.876C133.468 209.318 129.606 213.624 129.606 213.624C133.857 214.185 136.158 218.122 136.158 218.122C127.523 214.967 117.917 221.183 117.917 221.183C114.42 213.545 106.671 208.619 98.3019 209.077C98.0212 209.111 97.7404 209.145 97.4103 209.15C85.6866 210.095 78.0021 225.322 83.0167 233.506C83.0167 233.506 84.2187 227.01 90.5584 227.467C95.839 227.837 101.164 238.422 94.7306 246.729C95.0951 243.609 94.5976 240.056 91.7603 237.044C91.7603 237.044 95.6813 246.557 84.3812 254.343C72.9826 260.834 63.4065 265.302 63.1603 278.29C63.1603 278.29 65.037 271.533 71.8151 270.548C71.8151 270.548 77.81 270.809 75.5244 278.049C73.2683 285.239 62.7859 289.579 53.732 284.874C53.732 284.874 57.5151 290.322 66.8104 290.071C57.7368 293.787 47.8553 297.424 43.353 308.61C43.353 308.61 45.8357 304.422 50.9882 302.63C54.067 301.597 57.5053 302.212 59.8845 304.432C60.8697 305.327 61.6381 306.489 61.781 307.941C62.9287 317.158 49.7765 309.373 45.6731 324.058C45.6731 324.058 46.8849 322.074 49.2346 320.952C51.7419 319.786 54.466 322.079 53.7763 324.747C53.5202 325.642 53.1212 326.784 52.4365 328.088C52.4365 328.088 52.4365 328.088 52.4069 328.138C48.1509 336.528 48.5795 346.312 57.9585 352.705C50.2986 344.688 60.7564 324.201 69.7955 327.916C70.3915 328.128 70.9038 328.492 71.3866 328.9C73.1796 330.328 75.2042 332.931 72.559 338.984C70.7364 343.157 73.0959 346.09 74.1402 349.373C73.2584 347.621 71.6772 345.598 69.0812 343.187C63.0962 337.705 65.8991 334.097 65.8991 334.097C65.8991 334.097 61.1899 339.875 68.2143 347.975C74.8101 355.569 68.7118 360.805 67.8892 361.44C67.4409 361.77 67.037 362.124 66.5345 362.424C50.4956 374.009 56.1112 387.833 56.1112 387.833C56.7516 367.818 91.8293 370.815 92.7652 342.478C92.9327 336.76 93.6568 330.972 94.8833 325.8C96.499 329.343 99.1147 330.136 99.1147 330.136C95.7749 326.641 96.0212 322.473 96.7503 319.624C96.9079 319.127 99.4398 311.115 108.75 311.523C118.39 311.927 124.065 303.57 125.094 299.525C125.523 304.673 127.843 308.689 127.843 308.689C125.488 302.689 132.897 294.619 132.897 294.619C127.685 307.945 133.242 308.733 140.493 325.721C144.655 335.377 133.36 347.803 133.36 347.803C145.305 340.15 158.704 328.61 144.271 316.814Z" fill="#5BD9E5"/>
<path opacity="0.8" d="M154.28 250.43C149.177 253.427 145.817 250.1 145.817 250.1C150.96 257.094 161.418 250.652 165.851 253.275C170.28 255.898 170.29 259.205 170.29 259.205C166.925 255.878 164.009 257.497 164.009 257.497C169.827 265.607 159.27 277.94 145.886 278.004C132.552 278.098 131.394 286.74 131.394 286.74C131.394 286.74 131.306 276.715 143.276 274.515C155.201 272.286 156.443 265.671 156.443 265.671C150.778 272.965 141.685 271.548 132.857 272.989C124.03 274.431 123.444 283.339 123.444 283.339C120.148 275.43 126.395 270.45 126.395 270.45C126.395 270.45 113.952 275.75 118.656 285.79C123.331 295.883 112.306 306.622 106.198 299.003C100.095 291.385 95.9817 294.958 95.9817 294.958C99.4644 289.043 104.888 292.237 104.888 292.237C98.4447 285.086 84.2531 286.666 87.2874 298.457C90.3514 310.194 75.5391 312.739 75.5391 312.739C85.4501 302.675 80.2778 292.296 79.1744 286.311C78.071 280.327 82.4403 276.311 82.4403 276.311C81.3812 280.322 84.2481 283.364 84.2481 283.364C84.0757 271.311 93.5138 260.913 93.5138 260.913C84.6865 262.355 82.3467 266.287 82.3467 266.287C85.0116 253.895 98.7107 252.025 102.11 244.082C105.459 236.109 103.001 231.326 103.001 231.326C106.154 233.87 106.499 236.71 106.499 236.71C105.41 222.812 93.0853 218.865 93.0853 218.865C101.075 214.298 109.183 219.702 109.183 219.702C107.72 215.489 103.735 214.839 103.735 214.839C114.725 215.371 119.227 227.94 119.227 227.94C128.695 220.927 133.335 224.333 133.335 224.333C131.173 222.359 127.838 222.413 127.838 222.413C135.749 219.121 146.098 225.228 146.098 225.228C146.098 225.228 151.206 227.251 153.3 233.806C153.3 233.806 151.064 230.469 148.221 233.452C144.197 237.807 148.788 251.818 154.28 250.43Z" fill="url(#paint16_linear_2308_4257)"/>
<path d="M163.073 211.429C171.413 197.393 171.507 189.426 170.689 185.676C170.255 183.786 168.743 182.856 166.891 183.427C163.236 184.48 156.276 188.422 147.931 202.457C139.641 216.404 139.183 224.805 139.803 228.796C140.109 230.903 141.724 231.956 143.744 231.306C147.448 230.164 154.428 225.991 163.073 211.429Z" fill="#474854"/>
<path opacity="0.1" d="M165.591 200.179C170.522 191.842 170.625 187.103 170.098 184.868C169.871 183.741 168.95 183.21 167.842 183.505C165.669 184.125 161.507 186.463 156.576 194.8C151.67 203.092 151.369 208.068 151.749 210.454C151.946 211.739 152.887 212.339 154.089 211.98C156.31 211.276 160.438 208.796 165.591 200.179Z" fill="white"/>
<path opacity="0.21" d="M166.935 183.451C167.837 183.21 168.63 183.259 169.285 183.638C168.669 183.284 167.901 183.19 167.073 183.417C163.768 184.377 157.438 187.925 149.955 200.582C142.448 213.171 142.039 220.774 142.596 224.377C142.892 226.301 144.359 227.207 146.143 226.655C149.546 225.632 155.842 221.833 163.649 208.717C171.206 196.045 171.275 188.825 170.521 185.464C170.324 184.588 169.905 183.998 169.29 183.643C169.95 184.022 170.388 184.687 170.6 185.631C171.408 189.199 171.27 196.847 163.324 210.292C155.059 224.195 148.384 228.25 144.773 229.328C142.852 229.918 141.32 228.914 141.01 226.921C140.424 223.068 140.837 215.056 148.798 201.675C156.738 188.225 163.418 184.47 166.935 183.451Z" fill="#27272D"/>
<defs>
<radialGradient id="paint0_radial_2308_4257" cx="0" cy="0" r="1" gradientUnits="userSpaceOnUse" gradientTransform="translate(240.143 -7.55548) rotate(9.98096) scale(184.842 179.295)">
<stop offset="0.1106" stop-color="#57DCEA" stop-opacity="0"/>
<stop offset="0.6861" stop-color="#57C8CE"/>
</radialGradient>
<radialGradient id="paint1_radial_2308_4257" cx="0" cy="0" r="1" gradientUnits="userSpaceOnUse" gradientTransform="translate(256.329 -56.9253) rotate(30.5271) scale(331.404 318.39)">
<stop stop-color="#57DCEA" stop-opacity="0"/>
<stop offset="0.5938" stop-color="#57C8CE"/>
</radialGradient>
<linearGradient id="paint2_linear_2308_4257" x1="224.96" y1="90.0252" x2="289.565" y2="-17.7787" gradientUnits="userSpaceOnUse">
<stop stop-color="#5ADFE5" stop-opacity="0"/>
<stop offset="0.1095" stop-color="#75E4E9" stop-opacity="0.1269"/>
<stop offset="0.3679" stop-color="#B0F0F3" stop-opacity="0.4267"/>
<stop offset="0.5886" stop-color="#DBF8F9" stop-opacity="0.6827"/>
<stop offset="0.7604" stop-color="#F5FDFD" stop-opacity="0.8819"/>
<stop offset="0.8622" stop-color="white"/>
</linearGradient>
<linearGradient id="paint3_linear_2308_4257" x1="313.272" y1="-61.706" x2="224.555" y2="90.8464" gradientUnits="userSpaceOnUse">
<stop offset="0.339" stop-color="white"/>
<stop offset="1" stop-color="white" stop-opacity="0"/>
</linearGradient>
<radialGradient id="paint4_radial_2308_4257" cx="0" cy="0" r="1" gradientUnits="userSpaceOnUse" gradientTransform="translate(239.192 69.5141) rotate(-149.293) scale(150.181 150.146)">
<stop offset="0.339" stop-color="#57DCEA"/>
<stop offset="1" stop-color="#04B2C4"/>
</radialGradient>
<radialGradient id="paint5_radial_2308_4257" cx="0" cy="0" r="1" gradientUnits="userSpaceOnUse" gradientTransform="translate(206.934 120.558) rotate(29.988) scale(34.8547 34.8462)">
<stop offset="0.1795" stop-color="#5ADFE5" stop-opacity="0"/>
<stop offset="1" stop-color="white"/>
</radialGradient>
<radialGradient id="paint6_radial_2308_4257" cx="0" cy="0" r="1" gradientUnits="userSpaceOnUse" gradientTransform="translate(227.123 63.3363) rotate(-149.293) scale(34.3938 34.3859)">
<stop offset="0.339" stop-color="white"/>
<stop offset="1" stop-color="white" stop-opacity="0"/>
</radialGradient>
<radialGradient id="paint7_radial_2308_4257" cx="0" cy="0" r="1" gradientUnits="userSpaceOnUse" gradientTransform="translate(194.498 130.905) rotate(-149.295) scale(23.5422 23.8808)">
<stop offset="0.339" stop-color="white"/>
<stop offset="1" stop-color="white" stop-opacity="0"/>
</radialGradient>
<radialGradient id="paint8_radial_2308_4257" cx="0" cy="0" r="1" gradientUnits="userSpaceOnUse" gradientTransform="translate(226.189 120.334) rotate(-149.293) scale(32.788 32.7804)">
<stop offset="0.339" stop-color="white"/>
<stop offset="1" stop-color="white" stop-opacity="0"/>
</radialGradient>
<radialGradient id="paint9_radial_2308_4257" cx="0" cy="0" r="1" gradientUnits="userSpaceOnUse" gradientTransform="translate(173.246 156.3) rotate(51.43) scale(31.6066 31.6099)">
<stop offset="0.1823" stop-color="#57DCEA"/>
<stop offset="0.6861" stop-color="#04B2C4"/>
</radialGradient>
<radialGradient id="paint10_radial_2308_4257" cx="0" cy="0" r="1" gradientUnits="userSpaceOnUse" gradientTransform="translate(179.859 165.875) rotate(6.44402) scale(31.0575 31.0428)">
<stop offset="0.3849" stop-color="#57DCEA"/>
<stop offset="0.7584" stop-color="#04B2C4"/>
</radialGradient>
<radialGradient id="paint11_radial_2308_4257" cx="0" cy="0" r="1" gradientUnits="userSpaceOnUse" gradientTransform="translate(191.082 142.465) rotate(6.444) scale(20.0707 20.0612)">
<stop offset="0.1823" stop-color="#57DCEA"/>
<stop offset="0.6861" stop-color="#04B2C4"/>
</radialGradient>
<radialGradient id="paint12_radial_2308_4257" cx="0" cy="0" r="1" gradientUnits="userSpaceOnUse" gradientTransform="translate(218.386 135.644) rotate(6.44403) scale(37.2955 37.2779)">
<stop offset="0.339" stop-color="white"/>
<stop offset="1" stop-color="white" stop-opacity="0"/>
</radialGradient>
<radialGradient id="paint13_radial_2308_4257" cx="0" cy="0" r="1" gradientUnits="userSpaceOnUse" gradientTransform="translate(196.09 151.694) rotate(6.44405) scale(22.1196 22.109)">
<stop offset="0.339" stop-color="white"/>
<stop offset="1" stop-color="white" stop-opacity="0"/>
</radialGradient>
<linearGradient id="paint14_linear_2308_4257" x1="142.297" y1="194.082" x2="12.1493" y2="494.854" gradientUnits="userSpaceOnUse">
<stop stop-color="#3B98F4"/>
<stop offset="1" stop-color="#3B98F4" stop-opacity="0"/>
</linearGradient>
<linearGradient id="paint15_linear_2308_4257" x1="142.741" y1="193.809" x2="21.4749" y2="470.818" gradientUnits="userSpaceOnUse">
<stop stop-color="#5BD9E5"/>
<stop offset="1" stop-color="#5BD9E5" stop-opacity="0"/>
</linearGradient>
<linearGradient id="paint16_linear_2308_4257" x1="141.305" y1="222.412" x2="85.7682" y2="318.646" gradientUnits="userSpaceOnUse">
<stop stop-color="#5BD9E5"/>
<stop offset="1" stop-color="#69DBFF" stop-opacity="0"/>
</linearGradient>
</defs>
</svg>
