<svg width="187" height="25" viewBox="0 0 187 25" fill="none" xmlns="http://www.w3.org/2000/svg">
<g id="logo-kinghost">
<g id="kinghost">
<path id="Vector" d="M76.831 24.2339C75.8691 24.2339 75.0704 24.2702 74.2718 24.1976C74.1084 24.1794 73.8543 23.8164 73.8362 23.5986C73.7817 22.8726 73.818 22.1465 73.818 21.4205C73.818 15.2493 73.818 9.07803 73.818 2.90678C73.818 2.52562 73.8543 2.14445 73.8725 1.67253C74.8163 1.67253 75.6875 1.61808 76.5588 1.70883C76.831 1.72698 77.1215 2.10815 77.2848 2.38041C80.5701 7.55337 83.8372 12.7445 87.1225 17.9356C87.304 18.2078 87.4855 18.4801 87.8122 18.9702C87.8122 13.1075 87.8122 7.49891 87.8122 1.63623C88.9194 2.27151 89.8633 2.77973 90.7526 3.32425C90.8797 3.39685 90.916 3.68726 90.916 3.86877C90.916 10.5301 90.916 17.1732 90.916 23.8346C90.916 23.9253 90.8797 23.9979 90.8252 24.2157C89.9177 24.2157 88.992 24.2702 88.0663 24.1794C87.8304 24.1613 87.5581 23.7983 87.3948 23.526C84.0913 18.3167 80.806 13.1075 77.5208 7.89823C77.3574 7.64412 77.1941 7.40816 76.831 7.19035C76.831 12.8352 76.831 18.4801 76.831 24.2339Z" fill="#737380"/>
<path id="Vector_2" d="M110.374 8.49729C109.375 8.49729 108.486 8.49729 107.633 8.49729C107.415 7.71681 107.306 6.93633 106.961 6.2466C105.346 3.01578 100.427 2.76167 98.0674 5.73839C97.178 6.86373 96.6335 8.17058 96.5972 9.56819C96.5427 12.0367 96.3612 14.5596 96.7424 16.9737C97.6681 22.673 103.295 23.1994 106.635 21.1847C107.252 20.8216 107.578 20.3497 107.542 19.5511C107.469 18.1716 107.524 16.774 107.524 15.3038C105.781 15.3038 104.13 15.3038 102.424 15.3038C102.424 14.487 102.424 13.7792 102.424 12.9261C105.001 13.1076 107.76 12.2545 110.083 14.1966C110.283 14.36 110.464 14.6685 110.483 14.9045C110.519 16.8648 110.519 18.8432 110.483 20.8035C110.483 21.1483 110.265 21.5658 110.011 21.8199C108.559 23.3627 106.743 24.1977 104.674 24.4336C102.169 24.724 99.7191 24.6514 97.5229 23.1631C95.1996 21.6021 93.7657 19.424 93.6568 16.6288C93.5479 13.7792 93.4208 10.8569 93.8746 8.06168C94.6369 3.46954 98.9205 0.746938 103.567 1.38221C105.818 1.69078 107.778 2.43495 109.176 4.30448C110.101 5.53873 110.482 6.88188 110.374 8.49729Z" fill="#737380"/>
<path id="Vector_3" d="M65.6139 24.2341C64.307 24.2341 63.2361 24.2704 62.1653 24.2159C61.893 24.1978 61.6026 23.9074 61.4029 23.6714C59.0433 20.8399 56.6474 18.0447 54.3604 15.1406C53.5437 14.106 52.6906 13.7974 51.3837 14.106C51.3837 17.4094 51.3837 20.7492 51.3837 24.2523C50.458 24.2523 49.6231 24.2704 48.7882 24.2341C48.643 24.2341 48.4615 23.9981 48.407 23.8348C48.3344 23.6533 48.3707 23.4173 48.3707 23.1995C48.3707 16.3748 48.3707 9.53202 48.3707 2.70734C48.3707 2.41693 48.3889 2.10837 48.407 1.76351C49.3871 1.76351 50.2947 1.76351 51.293 1.76351C51.293 5.04879 51.293 8.29777 51.293 11.583C52.3094 11.819 53.0717 11.7646 53.7978 10.8752C56.1574 7.9529 58.5896 5.10324 61.0218 2.25358C61.2759 1.96317 61.7478 1.74536 62.129 1.72721C62.982 1.6546 63.8533 1.70906 64.9423 1.70906C61.8022 5.3755 58.7892 8.89674 55.7399 12.4543C59.0252 16.3385 62.2197 20.1683 65.6139 24.2341Z" fill="#737380"/>
<path id="Vector_4" d="M133.643 12.563C133.77 11.238 133.77 9.49555 134.151 7.84383C135.131 3.61471 138.453 1.18251 142.845 1.34587C146.983 1.49108 150.378 4.35889 150.94 8.53356C151.412 11.8733 151.612 15.2856 150.65 18.5891C149.434 22.7819 146.076 24.8511 141.284 24.5425C137.69 24.3065 134.587 21.3661 133.969 17.4819C133.752 15.9754 133.77 14.4688 133.643 12.563ZM135.44 12.6719C135.549 14.4144 135.549 15.8483 135.766 17.2459C136.293 20.6038 138.725 22.8182 141.901 22.9997C145.441 23.1993 148.127 21.4206 148.98 17.9538C149.761 14.7411 149.724 11.4014 149.016 8.17054C148.272 4.79451 145.749 2.92499 142.446 2.92499C139.07 2.92499 136.728 4.70375 135.912 8.15239C135.549 9.73151 135.567 11.3832 135.44 12.6719Z" fill="#737380"/>
<path id="Vector_5" d="M114.24 1.70898C114.839 1.70898 115.347 1.70898 115.964 1.70898C115.964 5.21207 115.964 8.66071 115.964 12.2183C120.302 12.2183 124.549 12.2183 128.887 12.2183C128.887 8.73331 128.887 5.26653 128.887 1.74529C129.523 1.74529 130.085 1.74529 130.757 1.74529C130.757 2.16275 130.757 2.54392 130.757 2.92508C130.757 9.5138 130.757 16.1207 130.757 22.7094C130.757 24.4155 130.757 24.4155 128.942 24.1614C128.942 20.7672 128.942 17.3731 128.942 13.8881C124.604 13.8881 120.375 13.8881 116 13.8881C116 17.3186 116 20.7309 116 24.1796C115.365 24.1796 114.839 24.1796 114.24 24.1796C114.24 16.6833 114.24 9.24153 114.24 1.70898Z" fill="#737380"/>
<path id="Vector_6" d="M168.456 7.98921C167.875 7.98921 167.403 7.98921 166.877 7.98921C166.804 7.64435 166.804 7.29949 166.659 7.00908C166.241 6.15599 165.896 5.194 165.279 4.54058C163.156 2.28989 158.691 2.28989 156.512 4.41352C154.643 6.24675 154.843 9.06011 157.111 10.367C158.509 11.1656 160.106 11.5831 161.613 12.2183C163.21 12.8899 164.916 13.4344 166.368 14.3783C169.726 16.5382 169.617 21.0033 166.278 23.1995C163.047 25.3232 157.529 24.9601 154.625 22.4009C153.282 21.2211 152.81 19.6964 152.846 17.8995C153.409 17.8995 153.917 17.8995 154.425 17.8995C154.461 17.9903 154.534 18.0629 154.552 18.1355C155.26 21.33 157.111 22.8728 160.506 23.0543C162.103 23.1451 163.646 22.9091 165.025 22.0379C167.566 20.4588 167.693 17.2098 165.17 15.6125C163.882 14.8139 162.375 14.3601 160.959 13.7611C159.344 13.0896 157.638 12.5995 156.131 11.7464C152.81 9.82244 152.519 5.64777 155.423 3.10667C158.436 0.474816 164.245 0.747075 166.967 3.66934C168.056 4.88544 168.546 6.3012 168.456 7.98921Z" fill="#737380"/>
<path id="Vector_7" d="M70.1694 24.2884C69.1167 24.2884 68.1002 24.2884 67.0475 24.2884C67.0475 16.7014 67.0475 9.15072 67.0475 1.56372C68.1002 1.56372 69.1167 1.56372 70.1694 1.56372C70.1694 9.15072 70.1694 16.6833 70.1694 24.2884Z" fill="#737380"/>
<path id="Vector_8" d="M179.146 24.1795C178.493 24.1795 177.967 24.1795 177.368 24.1795C177.368 17.1915 177.368 10.276 177.368 3.21541C174.681 3.21541 172.086 3.21541 169.418 3.21541C169.418 2.63459 169.418 2.19897 169.418 1.72705C175.208 1.72705 180.961 1.72705 186.715 1.72705C187.006 3.12466 186.951 3.17911 185.626 3.17911C183.811 3.17911 181.996 3.17911 180.181 3.17911C179.854 3.17911 179.528 3.21541 179.128 3.23356C179.146 10.2397 179.146 17.1552 179.146 24.1795Z" fill="#737380"/>
</g>
<g id="crown">
<path id="Vector_9" d="M8.46502 12.8418C8.36254 11.7658 8.26006 10.677 8.1704 9.60099C8.14478 9.3448 8.0295 8.97333 8.38816 8.89647C8.78525 8.794 8.86211 9.17828 8.95177 9.46008C9.27201 10.5233 9.56663 11.5864 10.079 12.5856C10.2711 12.9571 10.5145 13.2773 10.8091 13.5463C11.5777 14.2508 12.7305 14.1611 13.3198 13.3029C14.0627 12.2269 14.2933 10.9588 14.6135 9.71627C15.1003 7.8461 15.2284 5.9375 15.4974 4.0289C15.523 3.83676 15.5742 3.65743 15.6383 3.4781C15.7023 3.29876 15.8432 3.2091 16.0354 3.22191C16.2275 3.23472 16.3556 3.33719 16.4068 3.51652C16.5349 3.99047 16.6118 4.47723 16.663 4.96399C16.9064 7.47463 17.2907 9.95965 18.1873 12.3294C18.4948 13.1492 18.8919 13.9306 19.9038 14.0074C20.9926 14.0843 21.5434 13.3413 21.9917 12.4959C22.4657 11.5864 22.7347 10.5873 23.0421 9.6138C23.0805 9.47289 23.119 9.31918 23.183 9.19109C23.2727 9.01176 23.388 8.84523 23.6185 8.89647C23.8747 8.94771 23.8875 9.15266 23.8747 9.3448C23.8363 9.88279 23.8107 10.408 23.7466 10.9332C23.6442 11.7145 23.5417 12.4959 23.6057 13.2901C23.657 13.969 23.6826 14.6991 24.4511 15.0066C25.0404 15.2371 25.7449 14.9041 26.2957 14.1483C27.1539 12.9955 27.7816 11.7145 28.4605 10.4592C28.627 10.1646 28.7807 9.85718 28.9472 9.56256C29.0881 9.31918 29.2547 9.02457 29.5877 9.19109C29.8695 9.33199 29.7542 9.66504 29.6902 9.88279C29.5237 10.4592 29.3059 11.01 29.101 11.5736C28.025 14.5838 26.9362 17.5812 25.8602 20.5915C25.4887 21.6162 25.3094 21.6674 24.2846 21.2447C20.8645 19.8357 17.3035 19.4002 13.6272 19.7845C11.4368 20.015 9.29763 20.4762 7.28655 21.4497C6.79979 21.6931 6.50518 21.4497 6.33866 21.0014C5.86471 19.7204 5.39076 18.4395 4.92962 17.1585C4.09701 14.8528 3.27721 12.5471 2.45741 10.2415C2.32932 9.88279 2.00908 9.38323 2.49584 9.17828C2.94417 8.98614 3.09788 9.54975 3.2644 9.86999C3.9433 11.1765 4.64781 12.4703 5.42919 13.7128C5.50604 13.8409 5.59571 13.9562 5.68538 14.0843C6.23618 14.84 6.97913 15.2243 7.56836 15.0066C8.37535 14.6991 8.37535 13.9434 8.45221 13.2389C8.46502 13.1108 8.45221 12.9827 8.45221 12.8546C8.45221 12.8418 8.45221 12.8418 8.46502 12.8418Z" fill="#737380"/>
<path id="Vector_10" d="M24.9251 23.3326C24.9123 24.0371 24.4896 24.3317 23.8363 24.0883C19.2249 22.4103 14.5623 22.231 9.82281 23.4991C9.20796 23.6656 8.60592 23.8706 8.00388 24.114C7.52993 24.3061 7.2225 24.2164 7.03036 23.7425C6.82541 23.2814 6.88946 22.9483 7.40183 22.7049C9.61786 21.693 11.9492 21.1422 14.3702 20.9757C17.8415 20.7323 21.2104 21.2703 24.4127 22.6921C24.7201 22.8202 24.9379 22.9739 24.9251 23.3326Z" fill="#737380"/>
<path id="Vector_11" d="M17.1368 1.53092C17.1368 2.09453 16.5988 2.63253 16.0352 2.64534C15.4203 2.65815 14.8951 2.12015 14.908 1.5053C14.908 0.890452 15.3819 0.429313 16.0096 0.416504C16.65 0.416504 17.1368 0.890452 17.1368 1.53092Z" fill="#737380"/>
<path id="Vector_12" d="M8.04243 6.47534C8.542 6.47534 8.93909 6.85962 8.92628 7.35919C8.91347 7.83314 8.49076 8.26866 8.02963 8.25585C7.55568 8.25585 7.15858 7.84595 7.15858 7.34638C7.15858 6.834 7.51725 6.47534 8.04243 6.47534Z" fill="#737380"/>
<path id="Vector_13" d="M23.9515 8.2302C23.4519 8.21739 23.0677 7.80749 23.0805 7.32074C23.0933 6.84679 23.4519 6.48813 23.9515 6.48813C24.4767 6.47532 24.8354 6.83398 24.8482 7.35916C24.8482 7.85873 24.4767 8.2302 23.9515 8.2302Z" fill="#737380"/>
<path id="Vector_14" d="M1.79116 6.75714C2.29073 6.74433 2.71344 7.14142 2.72625 7.61537C2.72625 8.0637 2.29073 8.52483 1.82959 8.53764C1.38126 8.55045 0.984169 8.15336 0.95855 7.69222C0.945741 7.16704 1.29159 6.76995 1.79116 6.75714Z" fill="#737380"/>
<path id="Vector_15" d="M31.0605 7.64115C31.0605 8.10229 30.6762 8.51219 30.2278 8.525C29.7795 8.5378 29.2928 8.10229 29.2671 7.66677C29.2543 7.21844 29.7027 6.77011 30.1638 6.77011C30.689 6.7573 31.0605 7.11596 31.0605 7.64115Z" fill="#737380"/>
</g>
</g>
</svg>
