<svg width="119" height="34" viewBox="0 0 119 34" fill="none" xmlns="http://www.w3.org/2000/svg">
<path d="M9.98229 0.943385C9.82977 0.418022 8.26215 0 7.7961 0C4.68064 0 0.771484 5.15196 0.771484 9.22777C0.771484 10.9705 2.14422 12.7387 3.53672 13.3149C4.10727 13.5521 4.49703 13.5493 4.64108 13.3488C4.77949 13.1567 4.70889 12.7952 4.37277 12.3009C3.77397 11.4196 3.56776 9.77854 3.54799 8.8295C3.5028 6.84385 4.87553 3.31885 6.41207 2.13819C6.55048 2.03086 6.79621 1.85572 6.79621 2.18901C6.79621 8.12336 6.79621 14.0436 6.79621 19.9751C6.79621 20.9072 6.57025 22.2912 6.38384 23.3278C6.32452 23.6611 5.62687 25.3982 6.18048 25.3982C6.69172 25.3982 7.77069 24.6638 8.15765 24.2543C8.90615 23.4578 9.43715 22.4099 9.7309 21.3196C9.90602 20.6671 9.99643 19.139 9.99643 18.4979V0.98576C9.98795 0.971637 9.98512 0.960332 9.98229 0.943385Z" fill="#8C8A97"/>
<path d="M118.707 17.1393C118.611 17.0546 118.492 16.9953 118.356 16.9953C118.097 16.9953 117.93 17.1421 117.876 17.3568C117.772 17.7805 117.622 18.464 117.475 18.9357C117.221 19.7577 116.837 20.5457 116.193 20.5457C115.004 20.5457 114.738 18.2578 114.682 17.5178C114.611 16.6026 114.605 15.5632 114.583 14.761V11.8885L114.699 10.383C114.727 10.013 114.786 9.73056 114.69 9.37184C114.608 9.06679 114.427 8.80127 114.185 8.61485C113.673 8.22506 112.289 7.74208 111.764 7.74208C111.47 7.74208 111.205 7.8607 111.013 8.05277C110.804 8.26179 110.643 8.64593 110.535 8.90579C110.264 9.55825 110.03 10.1458 109.829 10.7022C109.581 11.3857 109.25 12.4816 108.979 13.5437C108.793 14.278 108.668 14.9361 108.555 15.6621C108.538 15.7694 108.538 15.8005 108.521 15.9078C108.521 15.9106 108.513 15.9812 108.502 16.0038C108.476 16.0688 108.397 16.0518 108.386 15.9841C108.372 15.8965 108.363 15.8231 108.358 15.7355C108.214 14.0464 108.064 12.2896 108.106 10.5864C108.117 10.1486 108.129 9.62602 108.044 9.30685C107.971 9.03569 107.835 8.78998 107.651 8.58944C107.214 8.10644 106.457 7.87764 105.844 7.79573C105.541 7.75618 105.18 7.68841 104.912 7.84658C104.657 7.99629 104.454 8.40583 104.335 8.64309C103.564 10.1881 102.946 12.25 102.375 13.9645L102.395 9.01029C102.395 8.89731 102.403 8.70242 102.375 8.58944C102.338 8.44821 102.254 8.32394 102.141 8.2392C102.101 8.21095 101.954 8.14032 101.833 8.10642C101.327 7.96519 100.853 7.86354 100.327 7.78728C100.212 7.77033 100.036 7.74208 99.9207 7.74208C99.7286 7.74208 99.5704 7.85505 99.4913 8.01605C99.3388 8.31545 99.3473 13.9221 99.3614 16.2298C99.2852 16.8568 99.1665 17.6788 98.9321 18.4527C98.7344 19.1052 98.0678 20.444 97.2797 20.5994C96.4465 20.766 95.9663 19.9017 95.7799 18.5657C95.537 16.3795 95.6415 12.2698 95.7771 9.9565C95.842 8.83516 96.051 8.41147 94.8647 8.10925C94.0598 7.90306 93.5739 7.87201 93.2406 7.92003C92.896 7.97087 92.7351 8.38607 92.7915 9.12045C91.7662 7.55001 90.289 7.32685 89.258 7.43701C86.8374 7.69969 85.1116 11.2417 84.8151 13.9306C84.6343 15.5689 84.7896 17.0602 84.9902 18.3002C84.9309 19.1306 84.8037 20.6333 83.3124 20.5513C82.0809 20.4836 81.3748 18.4612 81.5923 15.7525C81.7307 14.0323 82.2956 11.6089 82.4622 10.8039C82.8237 9.03571 81.79 8.69675 80.3382 8.88882C79.5755 8.99051 78.5248 9.21084 77.3668 9.40573C77.6097 8.51601 77.5165 7.56412 76.8273 7.23648C76.1974 6.93707 75.1071 6.9964 74.4942 7.67429C73.6214 8.63463 73.3926 10.3491 74.7174 11.2162C74.5564 12.5522 73.0396 16.1846 71.1161 18.7295C71.1471 17.2692 71.2968 10.7022 71.2206 8.95099C71.1923 8.31829 70.6302 8.07256 70.1162 7.9624C70.0371 7.94545 69.3761 7.8833 69.3761 7.87482C69.0259 7.84658 68.6954 7.89177 68.461 8.08101C68.1616 8.32109 68.1757 8.60072 68.2153 9.13456C67.1193 7.45678 65.5828 7.31841 64.484 7.53872C62.1764 7.99912 60.5551 11.2868 60.2642 13.9334C60.1484 14.9983 60.1399 16.0462 60.2021 16.9953C60.2275 17.3737 60.2614 17.7325 60.3122 18.077C59.945 19.4018 59.3265 20.4355 58.5441 20.605C57.7136 20.7858 57.2306 19.9073 57.0442 18.5713C56.8013 16.3851 56.9058 12.2755 57.0414 9.96216C57.1063 8.84082 57.3154 8.41713 56.1291 8.1149C55.3241 7.90871 54.8383 7.87766 54.505 7.92568C54.1604 7.97652 53.9994 8.39173 54.0559 9.12611C53.0306 7.55567 51.5533 7.3325 50.5224 7.44266C48.1017 7.70534 46.376 11.2473 46.0794 13.9363C45.9749 14.8825 45.9833 15.7807 46.0455 16.6083C45.8591 17.1817 45.5625 17.9019 45.3337 18.3313C43.8706 21.0908 42.2408 20.7632 41.9838 17.4076C41.9047 16.3767 41.885 15.2892 41.885 14.2526C41.9669 11.8631 42.0516 9.4707 42.1335 7.08115C43.4497 7.09244 44.7829 7.08397 46.1641 7.0416C46.7234 7.02465 47.0849 5.19151 46.5652 5.15479C45.1106 5.05311 43.6616 4.95991 42.2097 4.878L42.3425 1.04508C42.3425 1.03378 42.3425 1.0225 42.334 0.994258C42.2578 0.728752 42.0516 0.621421 41.8002 0.536685C41.5036 0.440651 41.0319 0.290945 40.58 0.177964C39.9304 0.016965 39.0491 -0.208999 38.9813 0.776764C38.9305 1.51679 38.8768 3.0138 38.8288 4.70005C37.8176 4.65203 36.8008 4.60967 35.7755 4.57013C35.1767 4.54753 34.4762 6.92012 35.4337 6.94271C36.5635 6.96813 37.6707 6.99639 38.7751 7.02181C38.7412 8.61202 38.6085 12.0495 38.6113 15.0181C38.0379 16.5066 37.2414 17.9358 36.2726 18.6984C36.5494 17.7268 36.4505 15.8541 34.3152 14.2046C33.5582 13.6199 32.6515 12.9279 31.3805 11.9732C32.1742 11.0016 33.0329 9.62602 33.0526 8.56965C33.0639 7.91718 32.564 7.29862 31.4426 7.30709C29.4174 7.32121 28.0617 9.208 28.0673 10.7643C28.0701 11.7444 28.6943 12.4365 28.9655 12.798C25.6975 18.9159 24.9744 19.6644 24.3474 19.6644C23.9407 19.6644 23.7542 18.7775 23.7853 16.0434C23.8136 13.5973 23.983 11.9478 23.9859 9.96216C23.9859 9.13175 23.4661 8.65724 22.9323 8.35219C22.6357 8.18272 21.3506 7.70535 20.9664 7.69405C20.4043 7.6771 19.5965 8.19401 18.9243 8.94533C17.3567 10.6937 16.4839 13.3629 15.7439 15.5858L15.7636 9.01312C15.7636 8.90014 15.7721 8.70525 15.7439 8.59227C15.6733 8.30981 15.4671 8.18269 15.2044 8.10925C14.7073 7.97085 13.809 7.74491 13.2922 7.74491C13.1001 7.74491 12.9702 7.87764 12.9108 8.03863C12.86 8.17704 12.8996 11.2897 12.8826 14.5407C12.8713 16.6845 12.8544 18.7493 12.8939 20.0994C12.9363 21.5286 12.9645 22.4325 14.792 22.4409C15.645 22.4438 15.8342 22.4664 15.9529 21.7518C16.3653 19.3142 17.7097 13.3968 20.6586 10.2474C20.7518 10.1599 20.9212 10.2135 20.91 10.4113C20.7122 13.5663 20.4834 17.3116 20.9043 20.3734C21.0229 21.2434 21.5426 22.5681 22.6047 22.5681C24.0311 22.5681 25.0705 22.2432 27.7877 17.8765C28.4515 16.8088 29.2056 15.518 30.1179 13.9306C30.6744 14.4391 31.2421 14.9362 31.79 15.453C32.7956 16.3964 33.352 17.3907 33.3746 18.3002C33.4 19.4215 32.8238 20.3734 31.9115 20.3706C30.6292 20.3649 29.988 19.1221 29.2169 19.1249C28.4062 19.1278 27.7566 20.5485 27.7623 21.1614C27.7708 21.8619 29.6039 22.6726 31.9624 22.6669C33.7503 22.6641 35.1654 21.9721 36.3827 20.8903C37.3402 20.0373 38.3091 18.3736 38.8486 17.0207C38.939 19.3763 40.2241 22.4325 42.4301 22.4325C43.478 22.4325 44.492 21.7292 45.2744 20.7349C45.7998 20.0684 46.102 19.5402 46.4183 18.7662C46.6189 19.4272 46.9013 20.1559 47.1244 20.492C47.7826 21.4919 48.661 22.3929 49.9631 22.4777C51.446 22.5737 52.4374 22.037 53.2085 21.2942C53.7988 20.7265 54.1321 20.2406 54.5615 19.4921C54.7253 21.023 56.1658 22.489 57.9057 22.4551C59.5242 22.424 60.3094 21.1671 60.7613 19.7153C60.9167 20.0797 61.1144 20.4299 61.3658 20.7688C63.2695 23.3476 66.3652 22.8505 68.3283 20.2661C68.3396 20.8649 68.3508 21.4467 68.3537 21.6134C66.625 23.2714 64.662 24.8023 63.2158 26.6269C62.3063 27.7765 61.9307 29.0532 61.9843 29.9881C62.0945 31.8608 64.1197 33.1544 65.9358 33.1544C69.5061 33.1544 70.6302 30.4767 71.1612 26.7484C71.4465 24.7514 71.2206 22.7093 71.2657 20.8959C73.435 18.3821 76.0646 14.3713 76.8301 11.2021L78.9428 11.1485C79.0445 11.1456 79.1829 11.1598 79.2564 11.2332C79.3157 11.2925 79.2535 11.4648 79.2112 11.6823C78.6576 14.4871 77.9091 17.755 79.31 20.3338C79.9823 21.571 81.0302 22.4466 82.4933 22.472C83.849 22.4946 85.0693 21.3563 85.702 20.2378C86.377 21.3337 87.2894 22.3845 88.7016 22.4749C90.1845 22.5709 91.1759 22.0342 91.947 21.2914C92.5373 20.7236 92.8706 20.2378 93.2999 19.4893C93.3903 19.7802 93.4723 20.2435 93.605 20.5005C94.1869 21.6049 95.2715 22.4268 96.2855 22.4664C98.37 22.5483 98.8784 21.1727 99.384 20.1333C99.3925 20.5598 99.449 21.4298 99.5167 21.7433C99.5506 21.9015 99.6636 22.0173 99.8077 22.0879C100.327 22.3477 101.025 22.4325 101.672 22.4297C102.067 22.4268 102.618 22.4833 102.864 22.1161C103.005 21.9071 102.997 21.4496 103.008 21.1982C103.056 20.2068 103.09 18.5346 103.155 17.8822C103.367 16.0829 103.61 15.1056 104.081 13.9476C104.372 13.2301 104.624 12.476 105.208 11.4874C105.236 11.4394 105.287 11.4027 105.347 11.4027C105.457 11.4027 105.502 11.4987 105.502 11.5778C105.519 12.3913 105.533 13.1341 105.57 13.8289C105.669 15.7524 105.827 17.3144 106.123 18.9922C106.177 19.3029 106.233 19.656 106.332 19.9582C106.601 20.7773 107.372 21.3676 108.278 21.3676C108.555 21.3676 108.818 21.314 109.058 21.2151C109.129 21.1869 109.194 21.153 109.256 21.1106C109.38 21.0287 109.445 20.9468 109.476 20.7999C109.496 20.7067 109.493 20.5937 109.496 20.4949C109.499 20.413 109.501 20.331 109.504 20.2491C109.558 18.7973 109.691 17.5856 109.987 16.3287C110.459 14.3204 111.052 12.4421 111.685 11.3066C111.707 11.2643 111.73 11.2106 111.784 11.2106C111.829 11.2106 111.857 11.2417 111.863 11.2868C111.868 11.3264 111.863 11.3886 111.86 11.4168C111.789 12.0438 111.77 12.6822 111.767 13.3177C111.764 14.2865 111.764 15.2554 111.818 16.2242C111.883 17.3738 112.01 18.4922 112.244 19.334C112.36 19.7548 112.504 20.1248 112.671 20.4525C113.244 21.5682 114.261 22.4297 115.574 22.4297C117.133 22.4297 118.113 21.2546 118.52 19.8734C118.616 19.5458 118.704 19.2294 118.766 18.882C118.822 18.5261 118.986 17.385 118.707 17.1393ZM53.9287 15.535C53.8214 19.2238 52.1747 20.7378 50.9489 20.509C49.4603 20.2322 48.9802 18.2606 49.2174 14.7215C49.4321 11.5128 50.5789 9.78138 51.864 9.77573C53.8779 9.77008 54.1321 13.3205 53.9287 15.535ZM68.1136 15.535C68.0063 19.2238 66.3595 20.7378 65.1337 20.509C63.6452 20.2322 63.165 18.2606 63.4022 14.7215C63.7101 10.1062 66.4669 8.53578 67.7153 10.7107C68.2407 11.6286 68.1814 13.233 68.1136 15.535ZM66.7465 31.5642C65.3625 32.3042 63.8203 31.1433 64.3513 29.3046C64.8484 27.5844 67.2436 25.1214 68.5005 23.6951C68.5288 25.5875 68.6728 30.5304 66.7465 31.5642ZM92.6644 15.535C92.5571 19.2238 90.9104 20.7378 89.6846 20.509C88.196 20.2322 87.7159 18.2606 87.9531 14.7215C88.1678 11.5128 89.3145 9.78138 90.5997 9.77573C92.6136 9.77008 92.8678 13.3205 92.6644 15.535Z" fill="#8C8A97"/>
</svg>
