<svg width="120" height="24" viewBox="0 0 120 24" fill="none" xmlns="http://www.w3.org/2000/svg">
<path d="M11.4828 0.00278649V3.63118H9.47342C9.47342 3.63118 7.65921 3.37168 7.65921 5.12158V7.9738H11.4828L11.0281 11.9122H7.65921V22.9444H3.25232V11.8617H0.271484V7.9738H3.3832V4.66919C3.3832 4.66919 2.9951 2.85498 4.6141 1.36457C6.23541 -0.125831 8.37341 0.00278649 8.37341 0.00278649H11.4828Z" fill="#8C8A97"/>
<path d="M22.1082 8.03806V10.0153C20.9829 8.53638 19.4121 7.61549 17.6714 7.61549C14.2542 7.61549 11.4824 10.6284 11.4824 15.5383C11.4824 20.416 14.2542 23.4611 17.6714 23.4611C19.4282 23.4611 21.0127 22.5241 22.1403 21.0199L22.1105 22.9421H26.3543V8.03576H22.1082V8.03806ZM21.8716 17.0149C21.8716 18.5191 20.5948 19.9314 19.0171 19.9314C17.4394 19.9314 16.1626 18.5191 16.1626 17.0149V14.1627C16.1626 12.6585 17.4394 11.2462 19.0171 11.2462C20.5948 11.2462 21.8716 12.6585 21.8716 14.1627V17.0149Z" fill="#8C8A97"/>
<path d="M61.0313 23.0408V21.0636C62.1566 22.5425 63.7274 23.4633 65.4681 23.4633C68.8852 23.4633 71.6571 20.4504 71.6571 15.5406C71.6571 10.6629 68.8852 7.61776 65.4681 7.61776C63.7113 7.61776 62.1267 8.55472 60.9992 10.0589L61.029 0.213966L56.6152 0.71001V22.9719L61.0313 23.0408ZM61.2679 14.0662C61.2679 12.5621 62.5447 11.1497 64.1224 11.1497C65.7 11.1497 66.9769 12.5621 66.9769 14.0662V16.9184C66.9769 18.4226 65.7 19.835 64.1224 19.835C62.5447 19.835 61.2679 18.4226 61.2679 16.9184V14.0662Z" fill="#8C8A97"/>
<path d="M35.9466 19.8487C35.9466 19.8487 32.5432 20.0439 32.5432 15.637V15.3958C32.5432 10.9889 35.9466 11.1841 35.9466 11.1841C38.2477 11.152 39.0583 11.9626 39.0583 11.9626L40.1285 8.7545C38.2821 7.39269 32.7086 7.16764 30.2123 9.46639C28.0536 11.4574 28.0537 14.684 28.0927 15.5176C28.0537 16.3512 28.0536 19.5777 30.2123 21.5687C32.7063 23.8698 38.2798 23.6425 40.1285 22.2807L39.0583 19.0725C39.0583 19.0702 38.2477 19.8808 35.9466 19.8487Z" fill="#8C8A97"/>
<path d="M54.7729 17.1114C54.7729 17.1114 56.555 7.77861 48.0328 7.72809C39.5106 7.67757 40.7415 16.1722 40.7415 16.1722C40.9367 21.3254 43.3021 22.8158 47.3507 23.3004C51.4017 23.7872 54.4789 22.2302 54.4789 22.2302L53.5397 19.2173C53.5397 19.2173 50.2672 20.2208 47.6745 19.9958C45.0818 19.7684 45.277 17.1114 45.277 17.1114H54.7729ZM45.215 14.0985C45.215 14.0985 44.9877 10.7939 47.9685 10.7939C50.9493 10.7939 50.7219 14.0985 50.7219 14.0985H45.215Z" fill="#8C8A97"/>
<path d="M80.4387 7.81986C74.8905 7.81986 73.0234 11.1658 73.0234 15.6416C73.0234 20.3884 75.4301 23.4634 80.4387 23.4634C84.5333 23.4634 87.854 20.7122 87.854 15.6416C87.8517 11.322 85.7344 7.81986 80.4387 7.81986ZM83.3277 16.9345C83.3277 18.4387 82.0164 19.851 80.3997 19.851C78.783 19.851 77.4717 18.4387 77.4717 16.9345V14.0823C77.4717 12.5781 78.783 11.1658 80.3997 11.1658C82.0164 11.1658 83.3277 12.5781 83.3277 14.0823V16.9345Z" fill="#8C8A97"/>
<path d="M96.8098 7.81986C91.2615 7.81986 89.3945 11.1658 89.3945 15.6416C89.3945 20.3884 91.8012 23.4634 96.8098 23.4634C100.904 23.4634 104.225 20.7122 104.225 15.6416C104.225 11.322 102.108 7.81986 96.8098 7.81986ZM99.7011 16.9345C99.7011 18.4387 98.3898 19.851 96.7731 19.851C95.1564 19.851 93.8451 18.4387 93.8451 16.9345V14.0823C93.8451 12.5781 95.1564 11.1658 96.7731 11.1658C98.3898 11.1658 99.7011 12.5781 99.7011 14.0823V16.9345Z" fill="#8C8A97"/>
<path d="M119.772 23.0086L114.924 15.5038L119.556 8.00125H114.819L110.292 14.7184V0.135872L105.842 0.604359V23.0086H110.292V15.3752L115.177 23.0086H119.772Z" fill="#8C8A97"/>
</svg>
