<svg width="745" height="554" viewBox="0 0 745 554" fill="none" xmlns="http://www.w3.org/2000/svg">
<rect width="369.825" height="369.825" rx="12" transform="matrix(0.983255 -0.182236 -0.439155 0.898411 224.41 96.3953)" fill="#7A7786"/>
<rect opacity="0.4" width="369.825" height="369.825" rx="12" transform="matrix(0.983255 -0.182236 -0.439155 0.898411 319.308 192.578)" fill="url(#paint0_linear_2201_1305)"/>
<path d="M260.1 221.78L256.568 229.005L255.179 229.262L258.71 222.037L260.1 221.78ZM261.521 219.454C261.46 219.577 261.375 219.699 261.264 219.819C261.161 219.933 261.042 220.042 260.906 220.145C260.778 220.242 260.643 220.326 260.5 220.395C260.357 220.465 260.218 220.513 260.082 220.538C259.947 220.563 259.831 220.563 259.735 220.537C259.644 220.511 259.571 220.466 259.517 220.403C259.47 220.333 259.446 220.251 259.445 220.156C259.447 220.057 259.478 219.945 259.538 219.821C259.599 219.698 259.682 219.576 259.787 219.457C259.895 219.334 260.013 219.223 260.141 219.126C260.276 219.023 260.413 218.937 260.551 218.868C260.694 218.799 260.833 218.751 260.968 218.726C261.103 218.701 261.219 218.701 261.316 218.726C261.412 218.752 261.484 218.799 261.53 218.868C261.584 218.932 261.61 219.016 261.606 219.12C261.61 219.219 261.581 219.33 261.521 219.454Z" fill="white"/>
<path d="M265.698 217.759L260.563 228.264L259.173 228.522L264.309 218.016L265.698 217.759Z" fill="white"/>
<path d="M269.692 217.018L264.557 227.524L263.168 227.782L268.303 217.276L269.692 217.018Z" fill="white"/>
<path d="M271.74 219.622L269.488 224.23C269.22 224.777 269.151 225.174 269.281 225.423C269.41 225.671 269.753 225.744 270.31 225.641C270.716 225.565 271.141 225.407 271.586 225.164C272.031 224.922 272.482 224.615 272.937 224.246L275.541 218.918L276.931 218.66L273.399 225.885L272.572 226.039C272.374 226.075 272.292 226.011 272.326 225.844L272.597 225.087C272.083 225.498 271.561 225.85 271.03 226.143C270.501 226.431 269.961 226.626 269.409 226.729C268.977 226.809 268.626 226.815 268.356 226.749C268.093 226.676 267.908 226.542 267.8 226.346C267.693 226.15 267.664 225.893 267.715 225.577C267.77 225.259 267.898 224.896 268.098 224.487L270.35 219.88L271.74 219.622Z" fill="white"/>
<path d="M283.158 218.589C283.044 218.706 282.922 218.776 282.792 218.8C282.714 218.814 282.638 218.805 282.565 218.771C282.492 218.737 282.397 218.702 282.282 218.667C282.174 218.627 282.034 218.599 281.862 218.583C281.692 218.563 281.472 218.578 281.201 218.628C280.967 218.671 280.742 218.739 280.527 218.831C280.314 218.918 280.117 219.021 279.935 219.141C279.758 219.261 279.602 219.391 279.467 219.533C279.338 219.669 279.238 219.811 279.166 219.958C279.076 220.144 279.057 220.288 279.111 220.39C279.171 220.492 279.275 220.57 279.423 220.624C279.571 220.679 279.75 220.719 279.96 220.745C280.172 220.766 280.386 220.794 280.601 220.827C280.824 220.855 281.035 220.894 281.233 220.944C281.431 220.994 281.592 221.072 281.714 221.179C281.837 221.286 281.905 221.433 281.917 221.621C281.937 221.804 281.876 222.04 281.734 222.33C281.571 222.663 281.355 222.984 281.086 223.293C280.818 223.598 280.506 223.878 280.149 224.135C279.794 224.387 279.403 224.606 278.975 224.794C278.547 224.981 278.092 225.119 277.608 225.209C277.056 225.311 276.596 225.323 276.228 225.244C275.861 225.161 275.585 225.02 275.398 224.821L275.963 224.275C276.035 224.206 276.108 224.149 276.181 224.105C276.255 224.061 276.338 224.03 276.432 224.013C276.526 223.996 276.608 224.011 276.68 224.058C276.751 224.105 276.84 224.156 276.946 224.21C277.058 224.262 277.201 224.303 277.377 224.331C277.558 224.358 277.807 224.342 278.124 224.283C278.395 224.233 278.647 224.158 278.88 224.059C279.115 223.955 279.327 223.835 279.516 223.701C279.705 223.566 279.865 223.422 279.998 223.268C280.135 223.113 280.243 222.954 280.322 222.793C280.42 222.593 280.44 222.44 280.383 222.334C280.334 222.222 280.235 222.139 280.087 222.084C279.941 222.024 279.759 221.985 279.542 221.964C279.332 221.938 279.116 221.911 278.893 221.884C278.675 221.855 278.464 221.816 278.261 221.767C278.065 221.713 277.907 221.63 277.786 221.518C277.666 221.406 277.598 221.254 277.583 221.063C277.576 220.865 277.647 220.612 277.798 220.303C277.933 220.027 278.125 219.751 278.373 219.476C278.623 219.196 278.914 218.939 279.247 218.705C279.581 218.465 279.951 218.256 280.355 218.077C280.76 217.899 281.186 217.768 281.633 217.685C282.154 217.589 282.582 217.578 282.919 217.654C283.263 217.724 283.523 217.862 283.697 218.068L283.158 218.589Z" fill="white"/>
<path d="M284.791 223.878C284.166 223.994 283.763 223.924 283.58 223.668C283.403 223.411 283.461 222.983 283.753 222.384L285.915 217.962L284.963 218.138C284.879 218.154 284.82 218.145 284.783 218.113C284.749 218.076 284.755 218.01 284.802 217.915L285.049 217.409L286.418 217.019L287.83 214.727C287.875 214.654 287.937 214.59 288.015 214.537C288.095 214.479 288.18 214.441 288.268 214.425L288.971 214.295L287.754 216.784L290.018 216.365L289.568 217.285L287.304 217.704L285.185 222.041C285.036 222.345 285.006 222.556 285.095 222.673C285.185 222.791 285.357 222.826 285.612 222.779C285.758 222.752 285.891 222.712 286.011 222.659C286.139 222.601 286.252 222.543 286.351 222.486C286.45 222.429 286.534 222.379 286.602 222.336C286.678 222.287 286.737 222.259 286.778 222.251C286.851 222.238 286.896 222.266 286.914 222.336L287.024 222.867C286.684 223.116 286.317 223.331 285.92 223.513C285.526 223.69 285.15 223.811 284.791 223.878Z" fill="white"/>
<path d="M288.274 223.128L291.806 215.903L292.602 215.756C292.753 215.728 292.844 215.735 292.876 215.776C292.907 215.818 292.902 215.901 292.86 216.026L292.403 217.135C292.92 216.581 293.445 216.127 293.977 215.773C294.518 215.414 295.056 215.184 295.592 215.085C295.81 215.044 295.996 215.032 296.15 215.046C296.306 215.056 296.44 215.088 296.551 215.141L295.908 216.123C295.813 216.248 295.704 216.323 295.579 216.346C295.506 216.359 295.405 216.359 295.275 216.344C295.147 216.324 294.948 216.339 294.677 216.39C294.193 216.479 293.725 216.683 293.271 217C292.823 217.317 292.37 217.74 291.912 218.271L289.663 222.871L288.274 223.128Z" fill="white"/>
<path d="M300.088 220.939L299.472 221.053C299.336 221.078 299.236 221.079 299.172 221.057C299.107 221.034 299.092 220.963 299.126 220.845L299.298 220.203C299.006 220.413 298.728 220.605 298.462 220.78C298.2 220.949 297.936 221.102 297.671 221.238C297.408 221.369 297.14 221.481 296.867 221.575C296.599 221.668 296.314 221.742 296.013 221.798C295.705 221.855 295.435 221.87 295.202 221.844C294.976 221.813 294.802 221.737 294.681 221.617C294.56 221.496 294.498 221.328 294.495 221.113C294.499 220.892 294.581 220.617 294.741 220.289C294.881 220.004 295.1 219.714 295.4 219.421C295.702 219.123 296.093 218.836 296.572 218.561C297.057 218.286 297.641 218.026 298.323 217.783C299.007 217.535 299.802 217.319 300.706 217.134L300.981 216.57C301.256 216.009 301.33 215.611 301.204 215.374C301.086 215.133 300.769 215.059 300.254 215.155C299.915 215.218 299.609 215.311 299.336 215.435C299.069 215.554 298.826 215.679 298.606 215.811C298.393 215.937 298.204 216.052 298.039 216.156C297.883 216.254 297.744 216.314 297.625 216.336C297.531 216.354 297.458 216.348 297.406 216.318C297.362 216.283 297.335 216.236 297.326 216.178L297.275 215.817C297.9 215.351 298.512 214.976 299.11 214.692C299.707 214.409 300.313 214.21 300.927 214.096C301.37 214.014 301.73 214.008 302.008 214.077C302.287 214.147 302.485 214.279 302.603 214.473C302.721 214.667 302.757 214.922 302.712 215.238C302.666 215.553 302.545 215.913 302.347 216.317L300.088 220.939ZM296.862 220.83C297.107 220.784 297.341 220.722 297.565 220.641C297.791 220.556 298.012 220.457 298.229 220.343C298.453 220.224 298.674 220.09 298.894 219.941C299.118 219.791 299.346 219.626 299.576 219.445L300.312 217.94C299.663 218.077 299.096 218.226 298.611 218.385C298.129 218.539 297.718 218.702 297.379 218.872C297.04 219.043 296.765 219.222 296.556 219.408C296.352 219.592 296.202 219.785 296.104 219.984C296.011 220.175 295.965 220.332 295.965 220.458C295.965 220.583 296 220.68 296.071 220.749C296.143 220.814 296.247 220.853 296.383 220.867C296.52 220.876 296.68 220.864 296.862 220.83Z" fill="white"/>
<path d="M304.534 220.219C303.909 220.334 303.506 220.264 303.323 220.008C303.146 219.752 303.204 219.324 303.497 218.724L305.658 214.302L304.706 214.479C304.623 214.494 304.563 214.486 304.527 214.454C304.493 214.417 304.499 214.351 304.545 214.256L304.793 213.749L306.162 213.359L307.573 211.068C307.618 210.994 307.68 210.931 307.758 210.878C307.839 210.82 307.923 210.782 308.012 210.766L308.714 210.636L307.497 213.125L309.761 212.705L309.311 213.625L307.048 214.045L304.928 218.381C304.779 218.686 304.75 218.897 304.839 219.014C304.928 219.132 305.1 219.167 305.355 219.119C305.501 219.092 305.634 219.053 305.754 219C305.882 218.942 305.996 218.884 306.095 218.827C306.194 218.769 306.277 218.719 306.346 218.676C306.421 218.628 306.48 218.6 306.522 218.592C306.595 218.578 306.64 218.607 306.658 218.677L306.767 219.208C306.428 219.457 306.06 219.672 305.664 219.854C305.27 220.03 304.893 220.152 304.534 220.219Z" fill="white"/>
<path d="M313.095 211.958L309.563 219.183L308.173 219.44L311.705 212.215L313.095 211.958ZM314.515 209.632C314.455 209.755 314.369 209.877 314.259 209.997C314.156 210.111 314.036 210.22 313.901 210.323C313.773 210.42 313.637 210.504 313.494 210.573C313.351 210.643 313.212 210.691 313.077 210.716C312.942 210.741 312.826 210.741 312.729 210.715C312.638 210.689 312.565 210.644 312.511 210.581C312.465 210.511 312.441 210.429 312.44 210.334C312.441 210.235 312.472 210.123 312.533 209.999C312.593 209.876 312.676 209.754 312.782 209.635C312.889 209.512 313.007 209.401 313.135 209.304C313.271 209.201 313.407 209.115 313.545 209.046C313.688 208.977 313.827 208.929 313.963 208.904C314.098 208.879 314.214 208.879 314.31 208.905C314.407 208.93 314.478 208.977 314.525 209.046C314.579 209.11 314.604 209.194 314.6 209.298C314.604 209.397 314.576 209.508 314.515 209.632Z" fill="white"/>
<path d="M318.8 210.797C319.377 210.69 319.855 210.681 320.232 210.771C320.614 210.86 320.888 211.037 321.052 211.3C321.222 211.563 321.28 211.909 321.226 212.338C321.18 212.762 321.019 213.257 320.742 213.822C320.463 214.393 320.124 214.923 319.724 215.412C319.329 215.9 318.888 216.337 318.403 216.721C317.922 217.104 317.404 217.427 316.85 217.69C316.303 217.947 315.741 218.129 315.163 218.236C314.586 218.343 314.104 218.354 313.72 218.27C313.343 218.18 313.069 218.003 312.899 217.741C312.73 217.478 312.668 217.135 312.714 216.711C312.76 216.288 312.923 215.791 313.202 215.22C313.478 214.654 313.817 214.127 314.217 213.637C314.619 213.143 315.063 212.704 315.549 212.32C316.035 211.936 316.552 211.613 317.102 211.351C317.656 211.089 318.222 210.904 318.8 210.797ZM315.648 217.244C316.428 217.1 317.128 216.754 317.745 216.207C318.365 215.655 318.884 214.952 319.302 214.096C319.723 213.235 319.858 212.6 319.708 212.191C319.558 211.783 319.092 211.65 318.311 211.795C317.916 211.868 317.542 211.994 317.19 212.172C316.839 212.349 316.507 212.573 316.195 212.842C315.889 213.111 315.602 213.426 315.336 213.787C315.078 214.141 314.844 214.533 314.634 214.961C314.425 215.389 314.285 215.763 314.214 216.083C314.147 216.402 314.154 216.661 314.232 216.858C314.319 217.05 314.477 217.18 314.708 217.25C314.939 217.319 315.252 217.318 315.648 217.244Z" fill="white"/>
<path d="M320.687 217.121L324.218 209.896L325.046 209.743C325.243 209.706 325.325 209.771 325.291 209.937L325.017 210.702C325.53 210.291 326.05 209.939 326.576 209.647C327.107 209.354 327.651 209.156 328.208 209.053C328.64 208.973 328.987 208.969 329.25 209.041C329.521 209.108 329.706 209.242 329.806 209.444C329.913 209.641 329.942 209.897 329.891 210.213C329.841 210.53 329.716 210.892 329.516 211.301L327.267 215.902L325.877 216.159L328.126 211.559C328.393 211.012 328.462 210.614 328.333 210.366C328.211 210.112 327.869 210.037 327.307 210.141C326.896 210.217 326.467 210.379 326.019 210.626C325.577 210.872 325.13 211.178 324.677 211.543L322.076 216.864L320.687 217.121Z" fill="white"/>
<rect width="98.4245" height="98.4245" rx="12" transform="matrix(0.983255 -0.182236 -0.439155 0.898411 577.224 236.936)" fill="#5F5C6B"/>
<path opacity="0.6" d="M621.874 252.687L625.227 262.613L611.054 267.841L621.874 252.687Z" fill="white"/>
<path opacity="0.4" d="M614.407 277.766L625.227 262.613L611.055 267.841L614.407 277.766Z" fill="white"/>
<path opacity="0.7" d="M600.235 282.995L614.407 277.766L611.055 267.841" fill="white"/>
<path opacity="0.4" d="M607.702 257.916L596.879 273.071L611.055 267.841L607.702 257.916Z" fill="white"/>
<path opacity="0.6" d="M611.055 267.841L596.879 273.071L600.235 282.995L611.055 267.841Z" fill="white"/>
<path opacity="0.7" d="M607.702 257.916L593.527 263.145L596.879 273.071L607.702 257.916Z" fill="white"/>
<path opacity="0.4" d="M593.526 263.145L582.707 278.299L596.879 273.071L593.526 263.145Z" fill="white"/>
<path opacity="0.6" d="M596.879 273.071L582.707 278.299L586.059 288.224L596.879 273.071Z" fill="white"/>
<defs>
<linearGradient id="paint0_linear_2201_1305" x1="247.361" y1="420.186" x2="186.849" y2="-22.2413" gradientUnits="userSpaceOnUse">
<stop stop-color="#7A7786"/>
<stop offset="1" stop-color="#7A7786" stop-opacity="0"/>
</linearGradient>
</defs>
</svg>
