<svg width="24" height="24" viewBox="0 0 24 24" fill="none" xmlns="http://www.w3.org/2000/svg">
<g id="Group 15" opacity="0.6">
<circle id="Ellipse 1" cx="12" cy="12" r="11.5" stroke="#ACABB7"/>
<path id="i" d="M12.8332 17.6793H11.021V9.61044H12.8332V17.6793ZM10.9092 7.51492C10.9092 7.23651 10.9962 7.00533 11.1702 6.82138C11.3492 6.63743 11.6027 6.54546 11.9308 6.54546C12.259 6.54546 12.5125 6.63743 12.6915 6.82138C12.8705 7.00533 12.96 7.23651 12.96 7.51492C12.96 7.78835 12.8705 8.01705 12.6915 8.201C12.5125 8.37997 12.259 8.46946 11.9308 8.46946C11.6027 8.46946 11.3492 8.37997 11.1702 8.201C10.9962 8.01705 10.9092 7.78835 10.9092 7.51492Z" fill="#ACABB7"/>
</g>
</svg>
