<svg width="987" height="465" viewBox="0 0 987 465" fill="none" xmlns="http://www.w3.org/2000/svg">
<path d="M785.236 464.534C785.236 371.809 748.401 282.881 682.834 217.315C617.268 151.748 528.34 114.913 435.615 114.913C342.89 114.913 253.962 151.748 188.396 217.315C122.829 282.881 85.9942 371.809 85.9941 464.534L435.615 464.534H785.236Z" fill="#F1F0F5"/>
<path d="M13.8493 392.945C13.8493 411.931 21.3917 430.14 34.8172 443.566C48.2428 456.992 66.4517 464.534 85.4383 464.534C104.425 464.534 122.634 456.992 136.059 443.566C149.485 430.14 157.027 411.932 157.027 392.945L85.4383 392.945L13.8493 392.945Z" fill="#ACABB7"/>
<path d="M794.116 286.394C794.116 277.121 790.432 268.229 783.875 261.672C777.319 255.115 768.426 251.432 759.153 251.432C749.881 251.432 740.988 255.115 734.432 261.672C727.875 268.229 724.191 277.121 724.191 286.394L759.153 286.394H794.116Z" fill="#C6C5CE"/>
<path fill-rule="evenodd" clip-rule="evenodd" d="M572.217 117.228C572.217 117.228 705.441 105.521 714.157 105.267C722.874 105.014 724.191 108.917 724.191 108.917C724.191 108.917 699.31 224.721 698.043 230.955C696.776 237.189 694.546 241.902 694.546 241.902C694.546 241.902 626.794 266.786 625.071 267.039C624.031 267.188 623.427 267.842 622.809 268.51C622.372 268.982 621.929 269.462 621.321 269.776C619.801 270.537 616.811 274.033 615.342 275.757C614.379 276.848 615.937 278.55 617.583 280.347C618.535 281.386 619.516 282.457 620.054 283.46C621.524 286.197 622.537 290.91 622.537 296.89C622.537 302.46 617.352 307.59 614.224 310.683C613.993 310.912 613.774 311.129 613.568 311.334C611.555 313.348 610.461 315.821 609.574 317.825C609.144 318.797 608.762 319.659 608.349 320.305C607.132 322.332 604.649 323.548 591.93 324.055C579.211 324.562 572.471 315.591 571.001 312.855C569.892 310.788 569.764 308.288 569.659 306.227C569.625 305.559 569.594 304.937 569.532 304.391C569.515 304.241 569.498 304.088 569.48 303.934C569.242 301.803 568.974 299.407 568.265 299.171C567.886 299.045 566.702 298.301 565.364 297.462C564.018 296.618 562.516 295.676 561.525 295.167C560.786 294.788 560.011 294.345 559.278 293.926C558.051 293.224 556.94 292.589 556.305 292.43C555.454 292.218 556.891 303.23 558.123 312.677C558.358 314.478 558.586 316.223 558.789 317.821C560.005 327.805 563.248 340.982 565.984 349.446C566.976 352.514 568.654 358.206 570.569 364.702C573.936 376.126 578.036 390.034 580.427 396.528C581.843 400.427 584.105 406.161 586.344 411.835C589.955 420.985 593.505 429.982 593.349 430.889C593.189 431.85 592.543 432.79 592.026 433.544C591.724 433.984 591.466 434.36 591.373 434.64C591.3 434.858 591.432 435.239 591.61 435.754C592.053 437.034 592.782 439.141 591.373 441.634C589.396 445.08 581.896 450.554 579.413 451.821C577.659 452.68 578.383 454.297 579.405 456.583C579.831 457.534 580.308 458.601 580.68 459.777C581.135 461.275 581.561 462.907 581.904 464.534H368.769C369.081 463.141 369.402 461.45 369.518 458.814C369.608 456.79 369.761 455.164 369.91 453.579C370.182 450.681 370.442 447.92 370.279 443.104C370.133 438.836 370.321 435.783 370.603 431.19C370.813 427.765 371.076 423.484 371.292 417.206C371.437 412.542 371.714 407.052 372.001 401.372C372.619 389.15 373.28 376.047 372.762 368.4C372.496 364.203 372.294 359.025 372.105 354.189C371.791 346.119 371.514 339.006 371.038 339.006C370.746 339.006 369.983 339.155 368.969 339.354C367.345 339.673 365.079 340.117 363.082 340.273C361.492 340.397 356.364 341.777 351.26 343.152C345.959 344.579 340.682 346 339.417 346C337.446 346 334.997 346.798 330.953 348.116C329.902 348.458 328.744 348.836 327.458 349.243C321.225 351.22 320.262 350.966 316.259 347.976C312.306 344.986 307.34 329.072 306.073 314.628C304.806 300.185 307.543 281.737 310.533 273.527C313.523 265.316 314.536 261.312 314.536 261.312C314.536 261.312 314.789 258.779 315.296 257.055C315.45 256.531 315.717 255.889 316.021 255.158C316.716 253.488 317.603 251.355 317.78 249.099C317.881 247.805 318.135 247.229 318.311 246.83C318.576 246.229 318.663 246.031 317.78 244.385C316.668 242.384 318.509 238.785 319.679 236.499C320.109 235.658 320.448 234.995 320.516 234.655C320.572 234.375 320.64 234.098 320.715 233.794C320.98 232.716 321.332 231.288 321.529 228.168C321.674 225.906 321.902 223.71 322.166 221.173C322.363 219.276 322.579 217.188 322.796 214.737C323.071 211.637 323.776 209.339 324.405 207.288C324.938 205.55 325.416 203.99 325.533 202.27C325.667 200.281 325.73 199.561 325.76 198.839C325.786 198.2 325.786 197.56 325.786 196.036C325.786 194.258 326.395 193.15 327.104 191.86C327.689 190.798 328.341 189.612 328.776 187.826C329.284 185.739 330.498 183.779 331.606 181.992C332.597 180.393 333.503 178.931 333.742 177.639C334.016 176.159 334.942 175.554 335.855 174.957C336.631 174.45 337.396 173.95 337.745 172.926C338.132 171.711 339.195 170.782 340.288 169.827C341.201 169.029 342.135 168.214 342.711 167.199C343.506 165.742 344.755 164.934 346.006 164.125C346.67 163.696 347.334 163.266 347.931 162.739C349.654 161.219 353.15 159.242 359.13 155.999C365.11 152.806 387.254 145.812 387.254 145.812L387.508 144.798C387.616 144.365 388.863 144.163 390.488 143.9C392.667 143.548 395.525 143.085 397.238 141.808C399.959 139.779 399.993 139.596 400.742 135.644C400.816 135.254 400.896 134.827 400.987 134.358C402.001 129.138 410.97 124.171 410.97 124.171C410.97 124.171 411.984 122.955 410.97 119.458C410.545 118.011 410.03 115.938 409.448 113.596C408.644 110.361 407.713 106.613 406.714 103.291C404.991 97.5639 402.254 95.3339 402.254 95.3339C402.254 95.3339 401.291 96.0941 400.531 96.6009C399.822 97.1077 398.555 96.3478 396.072 94.3713C393.589 92.344 390.346 87.6305 388.369 84.6404C386.393 81.6502 385.38 77.4438 385.126 74.2002C384.873 70.9567 390.092 70.9566 390.092 70.9566C387.863 68.9294 385.126 61.4794 382.136 44.0453C379.146 26.6112 400.937 6.4911 411.274 2.94346C423.773 -1.34231 428.163 -0.283646 437.361 1.9347C439.911 2.54947 442.829 3.25331 446.392 3.95714C462.81 7.20069 466.307 25.3444 466.814 29.0948C467.321 32.7944 470.057 44.5016 470.31 45.2619C470.564 45.9714 472.033 45.5151 472.793 44.5015C473.554 43.5386 475.023 43.5385 476.29 45.0082C477.506 46.5286 479.787 65.6859 478.52 69.1829C477.253 72.6798 475.53 73.1865 475.53 73.1865C475.53 73.1865 474.263 80.6368 472.793 86.3636C471.324 92.0905 474.06 108.764 474.06 108.764C474.06 108.764 474.82 110.994 476.29 110.488C477.456 110.099 479.635 110.455 481.479 110.757C482.04 110.849 482.569 110.935 483.03 110.994C484.051 111.099 485.085 111.42 486.119 111.741C487.086 112.041 488.054 112.341 489.009 112.464C490.01 112.592 490.893 113.356 491.843 114.178C492.771 114.981 493.762 115.839 494.989 116.215C496.059 116.542 497.035 116.907 498.079 117.298C499.457 117.814 500.955 118.374 502.945 118.951C504.804 119.49 505.603 120.373 506.279 121.12C506.874 121.777 507.374 122.329 508.418 122.448C509.463 122.564 511.072 122.734 512.722 122.907C514.675 123.113 516.686 123.325 517.894 123.462C518.278 123.504 518.767 123.569 519.337 123.644C522.152 124.013 526.948 124.643 530.867 124.222C533.853 123.901 537.552 125.696 541.254 127.493C543.394 128.532 545.534 129.571 547.539 130.202C553.012 131.925 565.224 135.169 565.224 135.169L566.491 129.189C568.214 120.218 572.217 117.228 572.217 117.228ZM364.907 285.741C365.718 285.741 370.025 286.146 370.025 286.146C370.025 286.146 370.684 274.692 368.251 271.297C368.251 271.297 364.907 282.903 364.907 283.967C364.907 284.4 364.781 284.774 364.683 285.066C364.54 285.491 364.456 285.741 364.907 285.741Z" fill="#C6C5CE"/>
<g filter="url(#filter0_d_2201_230)">
<rect x="20.5098" y="158.199" width="230.861" height="104.331" rx="6" fill="white"/>
</g>
<g filter="url(#filter1_d_2201_230)">
<rect x="759.707" y="321.356" width="206.443" height="84.353" rx="6" fill="white"/>
</g>
<circle cx="803.549" cy="365.197" r="21.6432" fill="#C6C5CE"/>
<circle cx="86.5494" cy="210.92" r="21.6432" fill="#C6C5CE"/>
<rect opacity="0.4" x="840.73" y="352.433" width="95.452" height="6.65944" rx="3.32972" fill="#C6C5CE"/>
<rect opacity="0.4" x="123.73" y="198.156" width="95.452" height="6.65944" rx="3.32972" fill="#C6C5CE"/>
<rect opacity="0.4" x="840.73" y="372.412" width="54.3855" height="6.65944" rx="3.32972" fill="#C6C5CE"/>
<rect opacity="0.4" x="123.73" y="218.134" width="54.3855" height="6.65944" rx="3.32972" fill="#C6C5CE"/>
<defs>
<filter id="filter0_d_2201_230" x="0.509766" y="148.199" width="270.861" height="144.331" filterUnits="userSpaceOnUse" color-interpolation-filters="sRGB">
<feFlood flood-opacity="0" result="BackgroundImageFix"/>
<feColorMatrix in="SourceAlpha" type="matrix" values="0 0 0 0 0 0 0 0 0 0 0 0 0 0 0 0 0 0 127 0" result="hardAlpha"/>
<feOffset dy="10"/>
<feGaussianBlur stdDeviation="10"/>
<feColorMatrix type="matrix" values="0 0 0 0 0.4795 0 0 0 0 0.468125 0 0 0 0 0.525 0 0 0 0.1 0"/>
<feBlend mode="normal" in2="BackgroundImageFix" result="effect1_dropShadow_2201_230"/>
<feBlend mode="normal" in="SourceGraphic" in2="effect1_dropShadow_2201_230" result="shape"/>
</filter>
<filter id="filter1_d_2201_230" x="739.707" y="311.356" width="246.443" height="124.353" filterUnits="userSpaceOnUse" color-interpolation-filters="sRGB">
<feFlood flood-opacity="0" result="BackgroundImageFix"/>
<feColorMatrix in="SourceAlpha" type="matrix" values="0 0 0 0 0 0 0 0 0 0 0 0 0 0 0 0 0 0 127 0" result="hardAlpha"/>
<feOffset dy="10"/>
<feGaussianBlur stdDeviation="10"/>
<feColorMatrix type="matrix" values="0 0 0 0 0.4795 0 0 0 0 0.468125 0 0 0 0 0.525 0 0 0 0.1 0"/>
<feBlend mode="normal" in2="BackgroundImageFix" result="effect1_dropShadow_2201_230"/>
<feBlend mode="normal" in="SourceGraphic" in2="effect1_dropShadow_2201_230" result="shape"/>
</filter>
</defs>
</svg>
