<svg width="106" height="25" viewBox="0 0 106 25" fill="none" xmlns="http://www.w3.org/2000/svg">
<path fill-rule="evenodd" clip-rule="evenodd" d="M0.437785 1.43187H7.26534C11.6256 1.43187 15.2175 3.94776 15.2175 9.69945V10.9129C15.2175 16.7131 11.8441 19.3179 7.3948 19.3179H0.429688V1.43187H0.437785ZM4.25604 4.6677V16.0416H7.17637C9.65178 16.0416 11.3101 14.4237 11.3101 10.832V9.88549C11.3101 6.29372 9.55467 4.6758 7.03881 4.6758H4.25604V4.6677ZM17.2399 4.85375H20.2976L20.7911 8.22714C21.3735 5.93779 22.862 4.72434 25.5559 4.72434H26.5024V8.59118H24.933C21.8347 8.59118 21.0662 9.66708 21.0662 12.7249V19.3746H17.2883V4.86185H17.2399V4.85375ZM27.2628 12.4013V11.9969C27.2628 7.14311 30.3611 4.48976 34.592 4.48976C38.9037 4.48976 41.9211 7.14311 41.9211 11.9969V12.4013C41.9211 17.1661 39.0008 19.7305 34.592 19.7305C29.9162 19.682 27.2628 17.1661 27.2628 12.4013ZM38.0543 12.3528V11.9969C38.0543 9.30303 36.7033 7.6851 34.5515 7.6851C32.4401 7.6851 31.0487 9.16551 31.0487 11.9969V12.3528C31.0487 14.9576 32.3997 16.4461 34.5515 16.4461C36.7033 16.3976 38.0543 14.9657 38.0543 12.3528ZM43.895 4.85375H47.0418L47.3977 7.59613C48.1582 5.7517 49.7761 4.49785 52.1625 4.49785C55.8514 4.49785 58.2783 7.1512 58.2783 12.0454V12.4499C58.2783 17.2146 55.5844 19.7305 52.1625 19.7305C49.8732 19.7305 48.2957 18.6951 47.5353 17.0367V24.3659H43.8464L43.895 4.85375ZM54.4519 12.3528V12.0373C54.4519 9.15741 52.9715 7.72559 50.9896 7.72559C48.8782 7.72559 47.4867 9.34347 47.4867 12.0373V12.3043C47.4867 14.8687 48.8377 16.4866 50.9491 16.4866C53.109 16.4461 54.4519 15.0547 54.4519 12.3528ZM63.8439 16.6727L63.5284 19.326H60.2926V0H63.9814V7.41818C64.7903 5.53331 66.4083 4.49785 68.6977 4.49785C72.16 4.54639 74.7163 6.92468 74.7163 11.7299V12.183C74.7163 16.9882 72.2894 19.7305 68.6006 19.7305C66.1818 19.682 64.6124 18.5575 63.8439 16.6727ZM70.8575 12.1749V11.8189C70.8575 9.16553 69.4177 7.6851 67.3953 7.6851C65.3243 7.6851 63.8924 9.35159 63.8924 11.8674V12.183C63.8924 14.8768 65.2838 16.4542 67.3548 16.4542C69.5551 16.4461 70.8575 15.0547 70.8575 12.1749ZM76.3423 12.4013V11.9969C76.3423 7.14311 79.4406 4.48976 83.6715 4.48976C87.9832 4.48976 91.0006 7.14311 91.0006 11.9969V12.4013C91.0006 17.1661 88.0318 19.7305 83.6715 19.7305C78.9957 19.682 76.3423 17.1661 76.3423 12.4013ZM87.1742 12.3528V11.9969C87.1742 9.30303 85.8233 7.6851 83.6715 7.6851C81.5601 7.6851 80.1686 9.16551 80.1686 11.9969V12.3528C80.1686 14.9576 81.5197 16.4461 83.6715 16.4461C85.8233 16.3976 87.1742 14.9657 87.1742 12.3528ZM95.9352 11.8189L90.855 4.85375H95.2152L98.1357 9.21404L101.104 4.85375H105.416L100.247 11.7785L105.683 19.326H101.412L98.0871 14.5208L94.8512 19.326H90.402L95.9352 11.8189Z" fill="#8C8A97"/>
</svg>
