<svg width="30" height="40" viewBox="0 0 30 40" fill="none" xmlns="http://www.w3.org/2000/svg">
<path fill-rule="evenodd" clip-rule="evenodd" d="M14.6069 39.9999C22.674 39.9999 29.2138 33.3913 29.2138 25.2393C29.2138 17.0872 22.674 10.4786 14.6069 10.4786C6.53972 10.4786 0 17.0872 0 25.2393C0 33.3913 6.53972 39.9999 14.6069 39.9999ZM14.6069 31.8508C18.0885 31.8508 20.9109 28.8908 20.9109 25.2393C20.9109 21.5879 18.0885 18.6278 14.6069 18.6278C11.1253 18.6278 8.30288 21.5879 8.30288 25.2393C8.30288 28.8908 11.1253 31.8508 14.6069 31.8508Z" fill="#fff"/>
<path d="M14.7075 10.1844C6.66218 10.1844 0.202087 16.4826 0.202087 24.6388C0.202087 32.7949 6.66218 39.0931 14.7075 39.0931C22.7528 39.0931 29.2129 32.7949 29.2129 24.6388C29.2215 16.4741 22.7613 10.1844 14.7075 10.1844ZM14.7075 31.0904C11.1451 31.0904 8.40931 28.5165 8.40931 24.6302C8.40931 20.7439 11.1451 18.1701 14.7075 18.1701C18.2699 18.1701 21.0057 20.7439 21.0057 24.6302C21.0057 28.5165 18.2699 31.0904 14.7075 31.0904Z" fill="#fff"/>
<path d="M8.32404 0L3.91785 7.5084C7.59108 7.5084 12.5257 7.5084 16.1989 7.5084C17.6392 7.5084 19.0881 7.5084 20.5284 7.5084L16.037 0H8.32404Z" fill="#F7B40D"/>
<path d="M25.9659 7.57656L21.5256 0H17.5541L22.0881 7.57656H25.9659Z" fill="#ED0394"/>
</svg>
