<svg width="176" height="60" viewBox="0 0 176 60" fill="none" xmlns="http://www.w3.org/2000/svg">
<rect width="176" height="60" rx="8" fill="#4E4B59"/>
<path d="M59.528 14.636C60.44 14.636 61.228 14.808 61.892 15.152C62.564 15.488 63.076 15.972 63.428 16.604C63.788 17.236 63.968 17.98 63.968 18.836C63.968 19.692 63.788 20.436 63.428 21.068C63.076 21.692 62.564 22.172 61.892 22.508C61.228 22.836 60.44 23 59.528 23H56.924V14.636H59.528ZM59.528 22.1C60.608 22.1 61.432 21.816 62 21.248C62.568 20.672 62.852 19.868 62.852 18.836C62.852 17.796 62.564 16.984 61.988 16.4C61.42 15.816 60.6 15.524 59.528 15.524H58.016V22.1H59.528ZM68.2764 23.108C67.6604 23.108 67.1004 22.968 66.5964 22.688C66.1004 22.408 65.7084 22.012 65.4204 21.5C65.1404 20.98 65.0004 20.38 65.0004 19.7C65.0004 19.028 65.1444 18.436 65.4324 17.924C65.7284 17.404 66.1284 17.008 66.6324 16.736C67.1364 16.456 67.7004 16.316 68.3244 16.316C68.9484 16.316 69.5124 16.456 70.0164 16.736C70.5204 17.008 70.9164 17.4 71.2044 17.912C71.5004 18.424 71.6484 19.02 71.6484 19.7C71.6484 20.38 71.4964 20.98 71.1924 21.5C70.8964 22.012 70.4924 22.408 69.9804 22.688C69.4684 22.968 68.9004 23.108 68.2764 23.108ZM68.2764 22.148C68.6684 22.148 69.0364 22.056 69.3804 21.872C69.7244 21.688 70.0004 21.412 70.2084 21.044C70.4244 20.676 70.5324 20.228 70.5324 19.7C70.5324 19.172 70.4284 18.724 70.2204 18.356C70.0124 17.988 69.7404 17.716 69.4044 17.54C69.0684 17.356 68.7044 17.264 68.3124 17.264C67.9124 17.264 67.5444 17.356 67.2084 17.54C66.8804 17.716 66.6164 17.988 66.4164 18.356C66.2164 18.724 66.1164 19.172 66.1164 19.7C66.1164 20.236 66.2124 20.688 66.4044 21.056C66.6044 21.424 66.8684 21.7 67.1964 21.884C67.5244 22.06 67.8844 22.148 68.2764 22.148ZM81.8442 16.424L79.7922 23H78.6642L77.0802 17.78L75.4962 23H74.3682L72.3042 16.424H73.4202L74.9322 21.944L76.5642 16.424H77.6802L79.2762 21.956L80.7642 16.424H81.8442ZM86.1319 16.304C86.9319 16.304 87.5799 16.548 88.0759 17.036C88.5719 17.516 88.8199 18.212 88.8199 19.124V23H87.7399V19.28C87.7399 18.624 87.5759 18.124 87.2479 17.78C86.9199 17.428 86.4719 17.252 85.9039 17.252C85.3279 17.252 84.8679 17.432 84.5239 17.792C84.1879 18.152 84.0199 18.676 84.0199 19.364V23H82.9279V16.424H84.0199V17.36C84.2359 17.024 84.5279 16.764 84.8959 16.58C85.2719 16.396 85.6839 16.304 86.1319 16.304ZM91.6957 14.12V23H90.6037V14.12H91.6957ZM96.4248 23.108C95.8088 23.108 95.2488 22.968 94.7448 22.688C94.2488 22.408 93.8568 22.012 93.5688 21.5C93.2888 20.98 93.1488 20.38 93.1488 19.7C93.1488 19.028 93.2928 18.436 93.5808 17.924C93.8768 17.404 94.2768 17.008 94.7808 16.736C95.2848 16.456 95.8488 16.316 96.4728 16.316C97.0968 16.316 97.6608 16.456 98.1648 16.736C98.6688 17.008 99.0648 17.4 99.3528 17.912C99.6488 18.424 99.7968 19.02 99.7968 19.7C99.7968 20.38 99.6448 20.98 99.3408 21.5C99.0448 22.012 98.6408 22.408 98.1288 22.688C97.6168 22.968 97.0488 23.108 96.4248 23.108ZM96.4248 22.148C96.8168 22.148 97.1848 22.056 97.5288 21.872C97.8728 21.688 98.1488 21.412 98.3568 21.044C98.5728 20.676 98.6808 20.228 98.6808 19.7C98.6808 19.172 98.5768 18.724 98.3688 18.356C98.1608 17.988 97.8888 17.716 97.5528 17.54C97.2168 17.356 96.8528 17.264 96.4608 17.264C96.0608 17.264 95.6928 17.356 95.3568 17.54C95.0288 17.716 94.7648 17.988 94.5648 18.356C94.3648 18.724 94.2648 19.172 94.2648 19.7C94.2648 20.236 94.3608 20.688 94.5528 21.056C94.7528 21.424 95.0168 21.7 95.3448 21.884C95.6728 22.06 96.0328 22.148 96.4248 22.148ZM100.825 19.688C100.825 19.016 100.961 18.428 101.233 17.924C101.505 17.412 101.877 17.016 102.349 16.736C102.829 16.456 103.361 16.316 103.945 16.316C104.521 16.316 105.021 16.44 105.445 16.688C105.869 16.936 106.185 17.248 106.393 17.624V16.424H107.497V23H106.393V21.776C106.177 22.16 105.853 22.48 105.421 22.736C104.997 22.984 104.501 23.108 103.933 23.108C103.349 23.108 102.821 22.964 102.349 22.676C101.877 22.388 101.505 21.984 101.233 21.464C100.961 20.944 100.825 20.352 100.825 19.688ZM106.393 19.7C106.393 19.204 106.293 18.772 106.093 18.404C105.893 18.036 105.621 17.756 105.277 17.564C104.941 17.364 104.569 17.264 104.161 17.264C103.753 17.264 103.381 17.36 103.045 17.552C102.709 17.744 102.441 18.024 102.241 18.392C102.041 18.76 101.941 19.192 101.941 19.688C101.941 20.192 102.041 20.632 102.241 21.008C102.441 21.376 102.709 21.66 103.045 21.86C103.381 22.052 103.753 22.148 104.161 22.148C104.569 22.148 104.941 22.052 105.277 21.86C105.621 21.66 105.893 21.376 106.093 21.008C106.293 20.632 106.393 20.196 106.393 19.7ZM108.934 19.688C108.934 19.016 109.07 18.428 109.342 17.924C109.614 17.412 109.986 17.016 110.458 16.736C110.938 16.456 111.474 16.316 112.066 16.316C112.578 16.316 113.054 16.436 113.494 16.676C113.934 16.908 114.27 17.216 114.502 17.6V14.12H115.606V23H114.502V21.764C114.286 22.156 113.966 22.48 113.542 22.736C113.118 22.984 112.622 23.108 112.054 23.108C111.47 23.108 110.938 22.964 110.458 22.676C109.986 22.388 109.614 21.984 109.342 21.464C109.07 20.944 108.934 20.352 108.934 19.688ZM114.502 19.7C114.502 19.204 114.402 18.772 114.202 18.404C114.002 18.036 113.73 17.756 113.386 17.564C113.05 17.364 112.678 17.264 112.27 17.264C111.862 17.264 111.49 17.36 111.154 17.552C110.818 17.744 110.55 18.024 110.35 18.392C110.15 18.76 110.05 19.192 110.05 19.688C110.05 20.192 110.15 20.632 110.35 21.008C110.55 21.376 110.818 21.66 111.154 21.86C111.49 22.052 111.862 22.148 112.27 22.148C112.678 22.148 113.05 22.052 113.386 21.86C113.73 21.66 114.002 21.376 114.202 21.008C114.402 20.632 114.502 20.196 114.502 19.7ZM123.099 21.992L125.139 16.424H126.303L123.723 23H122.451L119.871 16.424H121.047L123.099 21.992ZM127.941 15.356C127.733 15.356 127.557 15.284 127.413 15.14C127.269 14.996 127.197 14.82 127.197 14.612C127.197 14.404 127.269 14.228 127.413 14.084C127.557 13.94 127.733 13.868 127.941 13.868C128.141 13.868 128.309 13.94 128.445 14.084C128.589 14.228 128.661 14.404 128.661 14.612C128.661 14.82 128.589 14.996 128.445 15.14C128.309 15.284 128.141 15.356 127.941 15.356ZM128.469 16.424V23H127.377V16.424H128.469ZM129.922 19.688C129.922 19.016 130.058 18.428 130.33 17.924C130.602 17.412 130.974 17.016 131.446 16.736C131.926 16.456 132.458 16.316 133.042 16.316C133.618 16.316 134.118 16.44 134.542 16.688C134.966 16.936 135.282 17.248 135.49 17.624V16.424H136.594V23H135.49V21.776C135.274 22.16 134.95 22.48 134.518 22.736C134.094 22.984 133.598 23.108 133.03 23.108C132.446 23.108 131.918 22.964 131.446 22.676C130.974 22.388 130.602 21.984 130.33 21.464C130.058 20.944 129.922 20.352 129.922 19.688ZM135.49 19.7C135.49 19.204 135.39 18.772 135.19 18.404C134.99 18.036 134.718 17.756 134.374 17.564C134.038 17.364 133.666 17.264 133.258 17.264C132.85 17.264 132.478 17.36 132.142 17.552C131.806 17.744 131.538 18.024 131.338 18.392C131.138 18.76 131.038 19.192 131.038 19.688C131.038 20.192 131.138 20.632 131.338 21.008C131.538 21.376 131.806 21.66 132.142 21.86C132.478 22.052 132.85 22.148 133.258 22.148C133.666 22.148 134.038 22.052 134.374 21.86C134.718 21.66 134.99 21.376 135.19 21.008C135.39 20.632 135.49 20.196 135.49 19.7Z" fill="white"/>
<path d="M64.448 36.32C64.2453 35.9467 63.952 35.664 63.568 35.472C63.1947 35.2693 62.752 35.168 62.24 35.168C61.3547 35.168 60.6453 35.4613 60.112 36.048C59.5787 36.624 59.312 37.3973 59.312 38.368C59.312 39.4027 59.5893 40.2133 60.144 40.8C60.7093 41.376 61.4827 41.664 62.464 41.664C63.136 41.664 63.7013 41.4933 64.16 41.152C64.6293 40.8107 64.9707 40.32 65.184 39.68H61.712V37.664H67.664V40.208C67.4613 40.8907 67.1147 41.5253 66.624 42.112C66.144 42.6987 65.5307 43.1733 64.784 43.536C64.0373 43.8987 63.1947 44.08 62.256 44.08C61.1467 44.08 60.1547 43.84 59.28 43.36C58.416 42.8693 57.7387 42.192 57.248 41.328C56.768 40.464 56.528 39.4773 56.528 38.368C56.528 37.2587 56.768 36.272 57.248 35.408C57.7387 34.5333 58.416 33.856 59.28 33.376C60.144 32.8853 61.1307 32.64 62.24 32.64C63.584 32.64 64.7147 32.9653 65.632 33.616C66.56 34.2667 67.1733 35.168 67.472 36.32H64.448ZM73.2435 44.128C72.3688 44.128 71.5795 43.9413 70.8755 43.568C70.1822 43.1947 69.6328 42.6613 69.2275 41.968C68.8328 41.2747 68.6355 40.464 68.6355 39.536C68.6355 38.6187 68.8382 37.8133 69.2435 37.12C69.6488 36.416 70.2035 35.8773 70.9075 35.504C71.6115 35.1307 72.4008 34.944 73.2755 34.944C74.1502 34.944 74.9395 35.1307 75.6435 35.504C76.3475 35.8773 76.9022 36.416 77.3075 37.12C77.7128 37.8133 77.9155 38.6187 77.9155 39.536C77.9155 40.4533 77.7075 41.264 77.2915 41.968C76.8862 42.6613 76.3262 43.1947 75.6115 43.568C74.9075 43.9413 74.1182 44.128 73.2435 44.128ZM73.2435 41.76C73.7662 41.76 74.2088 41.568 74.5715 41.184C74.9448 40.8 75.1315 40.2507 75.1315 39.536C75.1315 38.8213 74.9502 38.272 74.5875 37.888C74.2355 37.504 73.7982 37.312 73.2755 37.312C72.7422 37.312 72.2995 37.504 71.9475 37.888C71.5955 38.2613 71.4195 38.8107 71.4195 39.536C71.4195 40.2507 71.5902 40.8 71.9315 41.184C72.2835 41.568 72.7208 41.76 73.2435 41.76ZM83.431 44.128C82.5563 44.128 81.767 43.9413 81.063 43.568C80.3697 43.1947 79.8203 42.6613 79.415 41.968C79.0203 41.2747 78.823 40.464 78.823 39.536C78.823 38.6187 79.0257 37.8133 79.431 37.12C79.8363 36.416 80.391 35.8773 81.095 35.504C81.799 35.1307 82.5883 34.944 83.463 34.944C84.3377 34.944 85.127 35.1307 85.831 35.504C86.535 35.8773 87.0897 36.416 87.495 37.12C87.9003 37.8133 88.103 38.6187 88.103 39.536C88.103 40.4533 87.895 41.264 87.479 41.968C87.0737 42.6613 86.5137 43.1947 85.799 43.568C85.095 43.9413 84.3057 44.128 83.431 44.128ZM83.431 41.76C83.9537 41.76 84.3963 41.568 84.759 41.184C85.1323 40.8 85.319 40.2507 85.319 39.536C85.319 38.8213 85.1377 38.272 84.775 37.888C84.423 37.504 83.9857 37.312 83.463 37.312C82.9297 37.312 82.487 37.504 82.135 37.888C81.783 38.2613 81.607 38.8107 81.607 39.536C81.607 40.2507 81.7777 40.8 82.119 41.184C82.471 41.568 82.9083 41.76 83.431 41.76ZM92.9465 34.944C93.5758 34.944 94.1252 35.072 94.5945 35.328C95.0745 35.584 95.4425 35.92 95.6985 36.336V35.072H98.4345V43.984C98.4345 44.8053 98.2692 45.5467 97.9385 46.208C97.6185 46.88 97.1225 47.4133 96.4505 47.808C95.7892 48.2027 94.9625 48.4 93.9705 48.4C92.6478 48.4 91.5758 48.0853 90.7545 47.456C89.9332 46.8373 89.4638 45.9947 89.3465 44.928H92.0505C92.1358 45.2693 92.3385 45.536 92.6585 45.728C92.9785 45.9307 93.3732 46.032 93.8425 46.032C94.4078 46.032 94.8558 45.8667 95.1865 45.536C95.5278 45.216 95.6985 44.6987 95.6985 43.984V42.72C95.4318 43.136 95.0638 43.4773 94.5945 43.744C94.1252 44 93.5758 44.128 92.9465 44.128C92.2105 44.128 91.5438 43.9413 90.9465 43.568C90.3492 43.184 89.8745 42.6453 89.5225 41.952C89.1812 41.248 89.0105 40.4373 89.0105 39.52C89.0105 38.6027 89.1812 37.7973 89.5225 37.104C89.8745 36.4107 90.3492 35.8773 90.9465 35.504C91.5438 35.1307 92.2105 34.944 92.9465 34.944ZM95.6985 39.536C95.6985 38.8533 95.5065 38.3147 95.1225 37.92C94.7492 37.5253 94.2905 37.328 93.7465 37.328C93.2025 37.328 92.7385 37.5253 92.3545 37.92C91.9812 38.304 91.7945 38.8373 91.7945 39.52C91.7945 40.2027 91.9812 40.7467 92.3545 41.152C92.7385 41.5467 93.2025 41.744 93.7465 41.744C94.2905 41.744 94.7492 41.5467 95.1225 41.152C95.5065 40.7573 95.6985 40.2187 95.6985 39.536ZM103.15 32.16V44H100.414V32.16H103.15ZM113.549 39.392C113.549 39.648 113.533 39.9147 113.501 40.192H107.309C107.351 40.7467 107.527 41.1733 107.837 41.472C108.157 41.76 108.546 41.904 109.005 41.904C109.687 41.904 110.162 41.616 110.429 41.04H113.341C113.191 41.6267 112.919 42.1547 112.525 42.624C112.141 43.0933 111.655 43.4613 111.069 43.728C110.482 43.9947 109.826 44.128 109.101 44.128C108.226 44.128 107.447 43.9413 106.765 43.568C106.082 43.1947 105.549 42.6613 105.165 41.968C104.781 41.2747 104.589 40.464 104.589 39.536C104.589 38.608 104.775 37.7973 105.149 37.104C105.533 36.4107 106.066 35.8773 106.749 35.504C107.431 35.1307 108.215 34.944 109.101 34.944C109.965 34.944 110.733 35.1253 111.405 35.488C112.077 35.8507 112.599 36.368 112.973 37.04C113.357 37.712 113.549 38.496 113.549 39.392ZM110.749 38.672C110.749 38.2027 110.589 37.8293 110.269 37.552C109.949 37.2747 109.549 37.136 109.069 37.136C108.61 37.136 108.221 37.2693 107.901 37.536C107.591 37.8027 107.399 38.1813 107.325 38.672H110.749ZM126.943 36.384C126.943 37.0347 126.793 37.632 126.495 38.176C126.196 38.7093 125.737 39.1413 125.119 39.472C124.5 39.8027 123.732 39.968 122.815 39.968H121.119V44H118.383V32.768H122.815C123.711 32.768 124.468 32.9227 125.087 33.232C125.705 33.5413 126.169 33.968 126.479 34.512C126.788 35.056 126.943 35.68 126.943 36.384ZM122.607 37.792C123.129 37.792 123.519 37.6693 123.775 37.424C124.031 37.1787 124.159 36.832 124.159 36.384C124.159 35.936 124.031 35.5893 123.775 35.344C123.519 35.0987 123.129 34.976 122.607 34.976H121.119V37.792H122.607ZM131.103 32.16V44H128.367V32.16H131.103ZM132.542 39.52C132.542 38.6027 132.712 37.7973 133.054 37.104C133.406 36.4107 133.88 35.8773 134.478 35.504C135.075 35.1307 135.742 34.944 136.478 34.944C137.107 34.944 137.656 35.072 138.126 35.328C138.606 35.584 138.974 35.92 139.23 36.336V35.072H141.966V44H139.23V42.736C138.963 43.152 138.59 43.488 138.11 43.744C137.64 44 137.091 44.128 136.462 44.128C135.736 44.128 135.075 43.9413 134.478 43.568C133.88 43.184 133.406 42.6453 133.054 41.952C132.712 41.248 132.542 40.4373 132.542 39.52ZM139.23 39.536C139.23 38.8533 139.038 38.3147 138.654 37.92C138.28 37.5253 137.822 37.328 137.278 37.328C136.734 37.328 136.27 37.5253 135.886 37.92C135.512 38.304 135.326 38.8373 135.326 39.52C135.326 40.2027 135.512 40.7467 135.886 41.152C136.27 41.5467 136.734 41.744 137.278 41.744C137.822 41.744 138.28 41.5467 138.654 41.152C139.038 40.7573 139.23 40.2187 139.23 39.536ZM153.065 35.072L147.465 48.24H144.521L146.569 43.696L142.937 35.072H145.993L148.057 40.656L150.105 35.072H153.065Z" fill="white"/>
<path d="M35.8024 27.9854L25.6477 17.6099L38.5674 25.1678L35.8024 27.9854ZM22.9982 17C22.3997 17.3188 22 17.9002 22 18.6549V39.3451C22 40.0998 22.4005 40.6812 22.9982 41L34.8049 28.9974L22.9982 17ZM42.5611 27.5773L39.8513 25.9787L36.8286 29.0026L39.8513 32.0265L42.6164 30.4279C43.4446 29.758 43.4446 28.248 42.5611 27.5773ZM25.6484 40.3961L38.5682 32.8382L35.8031 30.0206L25.6484 40.3961Z" fill="white"/>
</svg>
