<svg width="176" height="60" viewBox="0 0 176 60" fill="none" xmlns="http://www.w3.org/2000/svg">
<rect width="176" height="60" rx="8" fill="#4E4B59"/>
<path d="M59.528 14.636C60.44 14.636 61.228 14.808 61.892 15.152C62.564 15.488 63.076 15.972 63.428 16.604C63.788 17.236 63.968 17.98 63.968 18.836C63.968 19.692 63.788 20.436 63.428 21.068C63.076 21.692 62.564 22.172 61.892 22.508C61.228 22.836 60.44 23 59.528 23H56.924V14.636H59.528ZM59.528 22.1C60.608 22.1 61.432 21.816 62 21.248C62.568 20.672 62.852 19.868 62.852 18.836C62.852 17.796 62.564 16.984 61.988 16.4C61.42 15.816 60.6 15.524 59.528 15.524H58.016V22.1H59.528ZM68.2764 23.108C67.6604 23.108 67.1004 22.968 66.5964 22.688C66.1004 22.408 65.7084 22.012 65.4204 21.5C65.1404 20.98 65.0004 20.38 65.0004 19.7C65.0004 19.028 65.1444 18.436 65.4324 17.924C65.7284 17.404 66.1284 17.008 66.6324 16.736C67.1364 16.456 67.7004 16.316 68.3244 16.316C68.9484 16.316 69.5124 16.456 70.0164 16.736C70.5204 17.008 70.9164 17.4 71.2044 17.912C71.5004 18.424 71.6484 19.02 71.6484 19.7C71.6484 20.38 71.4964 20.98 71.1924 21.5C70.8964 22.012 70.4924 22.408 69.9804 22.688C69.4684 22.968 68.9004 23.108 68.2764 23.108ZM68.2764 22.148C68.6684 22.148 69.0364 22.056 69.3804 21.872C69.7244 21.688 70.0004 21.412 70.2084 21.044C70.4244 20.676 70.5324 20.228 70.5324 19.7C70.5324 19.172 70.4284 18.724 70.2204 18.356C70.0124 17.988 69.7404 17.716 69.4044 17.54C69.0684 17.356 68.7044 17.264 68.3124 17.264C67.9124 17.264 67.5444 17.356 67.2084 17.54C66.8804 17.716 66.6164 17.988 66.4164 18.356C66.2164 18.724 66.1164 19.172 66.1164 19.7C66.1164 20.236 66.2124 20.688 66.4044 21.056C66.6044 21.424 66.8684 21.7 67.1964 21.884C67.5244 22.06 67.8844 22.148 68.2764 22.148ZM81.8442 16.424L79.7922 23H78.6642L77.0802 17.78L75.4962 23H74.3682L72.3042 16.424H73.4202L74.9322 21.944L76.5642 16.424H77.6802L79.2762 21.956L80.7642 16.424H81.8442ZM86.1319 16.304C86.9319 16.304 87.5799 16.548 88.0759 17.036C88.5719 17.516 88.8199 18.212 88.8199 19.124V23H87.7399V19.28C87.7399 18.624 87.5759 18.124 87.2479 17.78C86.9199 17.428 86.4719 17.252 85.9039 17.252C85.3279 17.252 84.8679 17.432 84.5239 17.792C84.1879 18.152 84.0199 18.676 84.0199 19.364V23H82.9279V16.424H84.0199V17.36C84.2359 17.024 84.5279 16.764 84.8959 16.58C85.2719 16.396 85.6839 16.304 86.1319 16.304ZM91.6957 14.12V23H90.6037V14.12H91.6957ZM96.4248 23.108C95.8088 23.108 95.2488 22.968 94.7448 22.688C94.2488 22.408 93.8568 22.012 93.5688 21.5C93.2888 20.98 93.1488 20.38 93.1488 19.7C93.1488 19.028 93.2928 18.436 93.5808 17.924C93.8768 17.404 94.2768 17.008 94.7808 16.736C95.2848 16.456 95.8488 16.316 96.4728 16.316C97.0968 16.316 97.6608 16.456 98.1648 16.736C98.6688 17.008 99.0648 17.4 99.3528 17.912C99.6488 18.424 99.7968 19.02 99.7968 19.7C99.7968 20.38 99.6448 20.98 99.3408 21.5C99.0448 22.012 98.6408 22.408 98.1288 22.688C97.6168 22.968 97.0488 23.108 96.4248 23.108ZM96.4248 22.148C96.8168 22.148 97.1848 22.056 97.5288 21.872C97.8728 21.688 98.1488 21.412 98.3568 21.044C98.5728 20.676 98.6808 20.228 98.6808 19.7C98.6808 19.172 98.5768 18.724 98.3688 18.356C98.1608 17.988 97.8888 17.716 97.5528 17.54C97.2168 17.356 96.8528 17.264 96.4608 17.264C96.0608 17.264 95.6928 17.356 95.3568 17.54C95.0288 17.716 94.7648 17.988 94.5648 18.356C94.3648 18.724 94.2648 19.172 94.2648 19.7C94.2648 20.236 94.3608 20.688 94.5528 21.056C94.7528 21.424 95.0168 21.7 95.3448 21.884C95.6728 22.06 96.0328 22.148 96.4248 22.148ZM100.825 19.688C100.825 19.016 100.961 18.428 101.233 17.924C101.505 17.412 101.877 17.016 102.349 16.736C102.829 16.456 103.361 16.316 103.945 16.316C104.521 16.316 105.021 16.44 105.445 16.688C105.869 16.936 106.185 17.248 106.393 17.624V16.424H107.497V23H106.393V21.776C106.177 22.16 105.853 22.48 105.421 22.736C104.997 22.984 104.501 23.108 103.933 23.108C103.349 23.108 102.821 22.964 102.349 22.676C101.877 22.388 101.505 21.984 101.233 21.464C100.961 20.944 100.825 20.352 100.825 19.688ZM106.393 19.7C106.393 19.204 106.293 18.772 106.093 18.404C105.893 18.036 105.621 17.756 105.277 17.564C104.941 17.364 104.569 17.264 104.161 17.264C103.753 17.264 103.381 17.36 103.045 17.552C102.709 17.744 102.441 18.024 102.241 18.392C102.041 18.76 101.941 19.192 101.941 19.688C101.941 20.192 102.041 20.632 102.241 21.008C102.441 21.376 102.709 21.66 103.045 21.86C103.381 22.052 103.753 22.148 104.161 22.148C104.569 22.148 104.941 22.052 105.277 21.86C105.621 21.66 105.893 21.376 106.093 21.008C106.293 20.632 106.393 20.196 106.393 19.7ZM108.934 19.688C108.934 19.016 109.07 18.428 109.342 17.924C109.614 17.412 109.986 17.016 110.458 16.736C110.938 16.456 111.474 16.316 112.066 16.316C112.578 16.316 113.054 16.436 113.494 16.676C113.934 16.908 114.27 17.216 114.502 17.6V14.12H115.606V23H114.502V21.764C114.286 22.156 113.966 22.48 113.542 22.736C113.118 22.984 112.622 23.108 112.054 23.108C111.47 23.108 110.938 22.964 110.458 22.676C109.986 22.388 109.614 21.984 109.342 21.464C109.07 20.944 108.934 20.352 108.934 19.688ZM114.502 19.7C114.502 19.204 114.402 18.772 114.202 18.404C114.002 18.036 113.73 17.756 113.386 17.564C113.05 17.364 112.678 17.264 112.27 17.264C111.862 17.264 111.49 17.36 111.154 17.552C110.818 17.744 110.55 18.024 110.35 18.392C110.15 18.76 110.05 19.192 110.05 19.688C110.05 20.192 110.15 20.632 110.35 21.008C110.55 21.376 110.818 21.66 111.154 21.86C111.49 22.052 111.862 22.148 112.27 22.148C112.678 22.148 113.05 22.052 113.386 21.86C113.73 21.66 114.002 21.376 114.202 21.008C114.402 20.632 114.502 20.196 114.502 19.7ZM123.099 21.992L125.139 16.424H126.303L123.723 23H122.451L119.871 16.424H121.047L123.099 21.992ZM127.941 15.356C127.733 15.356 127.557 15.284 127.413 15.14C127.269 14.996 127.197 14.82 127.197 14.612C127.197 14.404 127.269 14.228 127.413 14.084C127.557 13.94 127.733 13.868 127.941 13.868C128.141 13.868 128.309 13.94 128.445 14.084C128.589 14.228 128.661 14.404 128.661 14.612C128.661 14.82 128.589 14.996 128.445 15.14C128.309 15.284 128.141 15.356 127.941 15.356ZM128.469 16.424V23H127.377V16.424H128.469ZM129.922 19.688C129.922 19.016 130.058 18.428 130.33 17.924C130.602 17.412 130.974 17.016 131.446 16.736C131.926 16.456 132.458 16.316 133.042 16.316C133.618 16.316 134.118 16.44 134.542 16.688C134.966 16.936 135.282 17.248 135.49 17.624V16.424H136.594V23H135.49V21.776C135.274 22.16 134.95 22.48 134.518 22.736C134.094 22.984 133.598 23.108 133.03 23.108C132.446 23.108 131.918 22.964 131.446 22.676C130.974 22.388 130.602 21.984 130.33 21.464C130.058 20.944 129.922 20.352 129.922 19.688ZM135.49 19.7C135.49 19.204 135.39 18.772 135.19 18.404C134.99 18.036 134.718 17.756 134.374 17.564C134.038 17.364 133.666 17.264 133.258 17.264C132.85 17.264 132.478 17.36 132.142 17.552C131.806 17.744 131.538 18.024 131.338 18.392C131.138 18.76 131.038 19.192 131.038 19.688C131.038 20.192 131.138 20.632 131.338 21.008C131.538 21.376 131.806 21.66 132.142 21.86C132.478 22.052 132.85 22.148 133.258 22.148C133.666 22.148 134.038 22.052 134.374 21.86C134.718 21.66 134.99 21.376 135.19 21.008C135.39 20.632 135.49 20.196 135.49 19.7Z" fill="white"/>
<path d="M63.984 42.016H59.792L59.12 44H56.256L60.32 32.768H63.488L67.552 44H64.656L63.984 42.016ZM63.28 39.904L61.888 35.792L60.512 39.904H63.28ZM71.5249 36.336C71.7915 35.92 72.1595 35.584 72.6289 35.328C73.0982 35.072 73.6475 34.944 74.2769 34.944C75.0129 34.944 75.6795 35.1307 76.2769 35.504C76.8742 35.8773 77.3435 36.4107 77.6849 37.104C78.0369 37.7973 78.2129 38.6027 78.2129 39.52C78.2129 40.4373 78.0369 41.248 77.6849 41.952C77.3435 42.6453 76.8742 43.184 76.2769 43.568C75.6795 43.9413 75.0129 44.128 74.2769 44.128C73.6582 44.128 73.1089 44 72.6289 43.744C72.1595 43.488 71.7915 43.1573 71.5249 42.752V48.256H68.7889V35.072H71.5249V36.336ZM75.4289 39.52C75.4289 38.8373 75.2369 38.304 74.8529 37.92C74.4795 37.5253 74.0155 37.328 73.4609 37.328C72.9169 37.328 72.4529 37.5253 72.0689 37.92C71.6955 38.3147 71.5089 38.8533 71.5089 39.536C71.5089 40.2187 71.6955 40.7573 72.0689 41.152C72.4529 41.5467 72.9169 41.744 73.4609 41.744C74.0049 41.744 74.4689 41.5467 74.8529 41.152C75.2369 40.7467 75.4289 40.2027 75.4289 39.52ZM82.3843 36.336C82.6509 35.92 83.0189 35.584 83.4883 35.328C83.9576 35.072 84.5069 34.944 85.1363 34.944C85.8723 34.944 86.5389 35.1307 87.1363 35.504C87.7336 35.8773 88.2029 36.4107 88.5443 37.104C88.8963 37.7973 89.0723 38.6027 89.0723 39.52C89.0723 40.4373 88.8963 41.248 88.5443 41.952C88.2029 42.6453 87.7336 43.184 87.1363 43.568C86.5389 43.9413 85.8723 44.128 85.1363 44.128C84.5176 44.128 83.9683 44 83.4883 43.744C83.0189 43.488 82.6509 43.1573 82.3843 42.752V48.256H79.6483V35.072H82.3843V36.336ZM86.2883 39.52C86.2883 38.8373 86.0963 38.304 85.7123 37.92C85.3389 37.5253 84.8749 37.328 84.3203 37.328C83.7763 37.328 83.3123 37.5253 82.9283 37.92C82.5549 38.3147 82.3683 38.8533 82.3683 39.536C82.3683 40.2187 82.5549 40.7573 82.9283 41.152C83.3123 41.5467 83.7763 41.744 84.3203 41.744C84.8643 41.744 85.3283 41.5467 85.7123 41.152C86.0963 40.7467 86.2883 40.2027 86.2883 39.52ZM93.2436 32.16V44H90.5076V32.16H93.2436ZM103.642 39.392C103.642 39.648 103.626 39.9147 103.594 40.192H97.4024C97.445 40.7467 97.621 41.1733 97.9304 41.472C98.2504 41.76 98.6397 41.904 99.0984 41.904C99.781 41.904 100.256 41.616 100.522 41.04H103.434C103.285 41.6267 103.013 42.1547 102.618 42.624C102.234 43.0933 101.749 43.4613 101.162 43.728C100.576 43.9947 99.9197 44.128 99.1944 44.128C98.3197 44.128 97.541 43.9413 96.8584 43.568C96.1757 43.1947 95.6424 42.6613 95.2584 41.968C94.8744 41.2747 94.6824 40.464 94.6824 39.536C94.6824 38.608 94.869 37.7973 95.2424 37.104C95.6264 36.4107 96.1597 35.8773 96.8424 35.504C97.525 35.1307 98.309 34.944 99.1944 34.944C100.058 34.944 100.826 35.1253 101.498 35.488C102.17 35.8507 102.693 36.368 103.066 37.04C103.45 37.712 103.642 38.496 103.642 39.392ZM100.842 38.672C100.842 38.2027 100.682 37.8293 100.362 37.552C100.042 37.2747 99.6424 37.136 99.1624 37.136C98.7037 37.136 98.3144 37.2693 97.9944 37.536C97.685 37.8027 97.493 38.1813 97.4184 38.672H100.842ZM112.54 44.112C111.719 44.112 110.983 43.9787 110.332 43.712C109.682 43.4453 109.159 43.0507 108.764 42.528C108.38 42.0053 108.178 41.376 108.156 40.64H111.068C111.111 41.056 111.255 41.376 111.5 41.6C111.746 41.8133 112.066 41.92 112.46 41.92C112.866 41.92 113.186 41.8293 113.42 41.648C113.655 41.456 113.772 41.1947 113.772 40.864C113.772 40.5867 113.676 40.3573 113.484 40.176C113.303 39.9947 113.074 39.8453 112.796 39.728C112.53 39.6107 112.146 39.4773 111.644 39.328C110.919 39.104 110.327 38.88 109.868 38.656C109.41 38.432 109.015 38.1013 108.684 37.664C108.354 37.2267 108.188 36.656 108.188 35.952C108.188 34.9067 108.567 34.0907 109.324 33.504C110.082 32.9067 111.068 32.608 112.284 32.608C113.522 32.608 114.519 32.9067 115.276 33.504C116.034 34.0907 116.439 34.912 116.492 35.968H113.532C113.511 35.6053 113.378 35.3227 113.132 35.12C112.887 34.9067 112.572 34.8 112.188 34.8C111.858 34.8 111.591 34.8907 111.388 35.072C111.186 35.2427 111.084 35.4933 111.084 35.824C111.084 36.1867 111.255 36.4693 111.596 36.672C111.938 36.8747 112.471 37.0933 113.196 37.328C113.922 37.5733 114.508 37.808 114.956 38.032C115.415 38.256 115.81 38.5813 116.14 39.008C116.471 39.4347 116.636 39.984 116.636 40.656C116.636 41.296 116.471 41.8773 116.14 42.4C115.82 42.9227 115.351 43.3387 114.732 43.648C114.114 43.9573 113.383 44.112 112.54 44.112ZM123.296 41.68V44H121.904C120.912 44 120.139 43.76 119.584 43.28C119.029 42.7893 118.752 41.9947 118.752 40.896V37.344H117.664V35.072H118.752V32.896H121.488V35.072H123.28V37.344H121.488V40.928C121.488 41.1947 121.552 41.3867 121.68 41.504C121.808 41.6213 122.021 41.68 122.32 41.68H123.296ZM128.884 44.128C128.009 44.128 127.22 43.9413 126.516 43.568C125.823 43.1947 125.273 42.6613 124.868 41.968C124.473 41.2747 124.276 40.464 124.276 39.536C124.276 38.6187 124.479 37.8133 124.884 37.12C125.289 36.416 125.844 35.8773 126.548 35.504C127.252 35.1307 128.041 34.944 128.916 34.944C129.791 34.944 130.58 35.1307 131.284 35.504C131.988 35.8773 132.543 36.416 132.948 37.12C133.353 37.8133 133.556 38.6187 133.556 39.536C133.556 40.4533 133.348 41.264 132.932 41.968C132.527 42.6613 131.967 43.1947 131.252 43.568C130.548 43.9413 129.759 44.128 128.884 44.128ZM128.884 41.76C129.407 41.76 129.849 41.568 130.212 41.184C130.585 40.8 130.772 40.2507 130.772 39.536C130.772 38.8213 130.591 38.272 130.228 37.888C129.876 37.504 129.439 37.312 128.916 37.312C128.383 37.312 127.94 37.504 127.588 37.888C127.236 38.2613 127.06 38.8107 127.06 39.536C127.06 40.2507 127.231 40.8 127.572 41.184C127.924 41.568 128.361 41.76 128.884 41.76ZM137.744 36.56C138.064 36.0693 138.464 35.6853 138.944 35.408C139.424 35.12 139.957 34.976 140.544 34.976V37.872H139.792C139.109 37.872 138.597 38.0213 138.256 38.32C137.914 38.608 137.744 39.12 137.744 39.856V44H135.008V35.072H137.744V36.56ZM150.267 39.392C150.267 39.648 150.251 39.9147 150.219 40.192H144.027C144.07 40.7467 144.246 41.1733 144.555 41.472C144.875 41.76 145.265 41.904 145.723 41.904C146.406 41.904 146.881 41.616 147.147 41.04H150.059C149.91 41.6267 149.638 42.1547 149.243 42.624C148.859 43.0933 148.374 43.4613 147.787 43.728C147.201 43.9947 146.545 44.128 145.819 44.128C144.945 44.128 144.166 43.9413 143.483 43.568C142.801 43.1947 142.267 42.6613 141.883 41.968C141.499 41.2747 141.307 40.464 141.307 39.536C141.307 38.608 141.494 37.7973 141.867 37.104C142.251 36.4107 142.785 35.8773 143.467 35.504C144.15 35.1307 144.934 34.944 145.819 34.944C146.683 34.944 147.451 35.1253 148.123 35.488C148.795 35.8507 149.318 36.368 149.691 37.04C150.075 37.712 150.267 38.496 150.267 39.392ZM147.467 38.672C147.467 38.2027 147.307 37.8293 146.987 37.552C146.667 37.2747 146.267 37.136 145.787 37.136C145.329 37.136 144.939 37.2693 144.619 37.536C144.31 37.8027 144.118 38.1813 144.043 38.672H147.467Z" fill="white"/>
<path d="M26.7018 40.4639C26.1434 40.0968 25.6486 39.6432 25.2363 39.1205C24.7827 38.581 24.3625 38.015 23.9779 37.4256C23.0753 36.1188 22.3675 34.6905 21.8761 33.1847C21.2858 31.4355 21 29.7589 21 28.119C21 26.2876 21.4009 24.6889 22.185 23.3455C22.7662 22.2955 23.6207 21.4181 24.6602 20.804C25.6675 20.1856 26.825 19.8472 28.0106 19.8244C28.4257 19.8244 28.8726 19.8839 29.3469 19.9976C29.6876 20.0929 30.1027 20.2434 30.6097 20.4305C31.2549 20.6763 31.6097 20.8267 31.7301 20.8634C32.108 20.9999 32.4257 21.0593 32.6752 21.0593C32.8646 21.0593 33.1319 20.9999 33.4354 20.9089C33.6062 20.8494 33.9283 20.7445 34.3894 20.5495C34.846 20.385 35.2053 20.2442 35.4911 20.1393C35.9292 20.0116 36.3531 19.8935 36.731 19.834C37.1789 19.7642 37.6336 19.7458 38.0858 19.7789C38.8696 19.8296 39.6415 19.9937 40.377 20.2661C41.5796 20.7445 42.5522 21.4914 43.2761 22.5531C42.9701 22.7395 42.683 22.9545 42.4186 23.1951C41.843 23.6994 41.3528 24.2914 40.9664 24.9486C40.4613 25.8469 40.1995 26.8588 40.2062 27.8864C40.2248 29.1484 40.5522 30.26 41.1973 31.2212C41.6716 31.9336 42.288 32.5428 43.0088 33.0115C43.3779 33.2573 43.6956 33.4261 44 33.5397C43.8575 33.977 43.7053 34.4003 43.5257 34.8201C43.1182 35.7616 42.6244 36.6641 42.0504 37.5165C41.5389 38.2503 41.1381 38.7969 40.8336 39.1607C40.3593 39.7161 39.9027 40.1403 39.4416 40.4359C38.9345 40.7682 38.3354 40.9458 37.7265 40.9458C37.3142 40.9614 36.902 40.9121 36.5053 40.7997C36.1646 40.686 35.8274 40.5627 35.4956 40.4219C35.1506 40.2653 34.7948 40.1329 34.431 40.0257C33.5316 39.7974 32.5886 39.7959 31.6885 40.0213C31.3195 40.1263 30.9646 40.2487 30.6142 40.3992C30.1212 40.6038 29.7938 40.7411 29.6044 40.7997C29.2265 40.909 28.8345 40.9773 28.4381 41C27.8248 41 27.2531 40.8268 26.6867 40.4761L26.7018 40.4639ZM34.7903 18.9358C33.9885 19.332 33.223 19.5008 32.4628 19.4457C32.3434 18.6892 32.4628 17.9152 32.7805 17.0677C33.051 16.3497 33.4507 15.686 33.9602 15.1086C34.4982 14.5008 35.1511 14.0026 35.8823 13.6419C36.6611 13.2458 37.4035 13.0315 38.1133 13C38.2053 13.7924 38.1133 14.5716 37.8186 15.4139C37.5459 16.1584 37.147 16.8516 36.6389 17.4639C36.1204 18.0726 35.4841 18.5727 34.7673 18.935L34.7903 18.9358Z" fill="white"/>
</svg>
