<svg width="24" height="24" viewBox="0 0 24 24" fill="none" xmlns="http://www.w3.org/2000/svg">
<g id="icon" opacity="0.6">
<circle id="Ellipse 1" cx="12" cy="12" r="11.5" stroke="#8C8A97"/>
<path id="i" d="M12.8322 17.6793H11.0201V9.61043H12.8322V17.6793ZM10.9082 7.5149C10.9082 7.23649 10.9952 7.00531 11.1692 6.82136C11.3482 6.63742 11.6017 6.54544 11.9299 6.54544C12.258 6.54544 12.5115 6.63742 12.6905 6.82136C12.8695 7.00531 12.959 7.23649 12.959 7.5149C12.959 7.78834 12.8695 8.01703 12.6905 8.20098C12.5115 8.37996 12.258 8.46945 11.9299 8.46945C11.6017 8.46945 11.3482 8.37996 11.1692 8.20098C10.9952 8.01703 10.9082 7.78834 10.9082 7.5149Z" fill="#8C8A97"/>
</g>
</svg>
