<svg width="24" height="24" viewBox="0 0 24 24" fill="none" xmlns="http://www.w3.org/2000/svg">
<circle cx="12" cy="12" r="12" fill="#E1E0E7"/>
<path d="M12.8332 17.6793H11.021V9.61046H12.8332V17.6793ZM10.9092 7.51493C10.9092 7.23652 10.9962 7.00534 11.1702 6.82139C11.3492 6.63745 11.6027 6.54547 11.9308 6.54547C12.259 6.54547 12.5125 6.63745 12.6915 6.82139C12.8705 7.00534 12.96 7.23652 12.96 7.51493C12.96 7.78837 12.8705 8.01706 12.6915 8.20101C12.5125 8.37999 12.259 8.46948 11.9308 8.46948C11.6027 8.46948 11.3492 8.37999 11.1702 8.20101C10.9962 8.01706 10.9092 7.78837 10.9092 7.51493Z" fill="#8C8A97"/>
</svg>
