<svg width="56" height="33" viewBox="0 0 56 33" fill="none" xmlns="http://www.w3.org/2000/svg">
<path d="M46.187 0.958252L55.4235 16.9386L36.9505 16.9386L46.187 0.958252Z" fill="#8C8A97"/>
<path d="M46.187 32.9189L55.4235 16.9386L36.9505 16.9386L46.187 32.9189Z" fill="#ACABB7"/>
<path d="M27.7139 32.9189L46.187 32.9189L36.9504 16.9385" fill="#4E4B59"/>
<path d="M27.7139 0.958252L18.4731 16.9386L36.9504 16.9386L27.7139 0.958252Z" fill="#8C8A97"/>
<path d="M36.9504 16.9385L18.4731 16.9385L27.7139 32.9189L36.9504 16.9385Z" fill="#ACABB7"/>
<path d="M27.7139 0.958252L9.23653 0.958251L18.4731 16.9386L27.7139 0.958252Z" fill="#4E4B59"/>
<path d="M9.23654 0.958252L6.93001e-06 16.9386L18.4731 16.9386L9.23654 0.958252Z" fill="#ACABB7"/>
<path d="M18.4731 16.9385L3.8147e-05 16.9385L9.23657 32.9189L18.4731 16.9385Z" fill="#8C8A97"/>
</svg>
