<svg width="103" height="34" viewBox="0 0 103 34" fill="none" xmlns="http://www.w3.org/2000/svg">
<path d="M25.4697 11.7927H13.5862V15.3189H22.0138C21.5979 20.2641 17.4835 22.3723 13.6005 22.3723C8.63181 22.3723 4.29722 18.4628 4.29722 12.9844C4.29722 7.64672 8.42997 3.53641 13.6117 3.53641C17.6099 3.53641 19.9658 6.08497 19.9658 6.08497L22.4348 3.52824C22.4348 3.52824 19.2654 0 13.4863 0C6.12709 0 0.433594 6.21136 0.433594 12.9212C0.433594 19.4955 5.78965 25.9067 13.6749 25.9067C20.6101 25.9067 25.6868 21.1561 25.6868 14.1303C25.6848 12.649 25.4697 11.7927 25.4697 11.7927Z" fill="#8C8A97"/>
<path d="M35.2045 9.23907C30.3286 9.23907 26.834 13.0507 26.834 17.4974C26.834 22.0094 30.2236 25.8924 35.2616 25.8924C39.8225 25.8924 43.5597 22.406 43.5597 17.5943C43.5597 12.0792 39.2129 9.23907 35.2045 9.23907ZM35.2524 12.5094C37.6501 12.5094 39.9224 14.4483 39.9224 17.5718C39.9224 20.6291 37.6593 22.6231 35.2412 22.6231C32.5835 22.6231 30.4876 20.4945 30.4876 17.5474C30.4876 14.6634 32.5581 12.5094 35.2524 12.5094Z" fill="#8C8A97"/>
<path d="M53.4096 9.23907C48.5337 9.23907 45.0391 13.0507 45.0391 17.4974C45.0391 22.0094 48.4287 25.8924 53.4667 25.8924C58.0276 25.8924 61.7648 22.406 61.7648 17.5943C61.7648 12.0792 57.4179 9.23907 53.4096 9.23907ZM53.4585 12.5094C55.8562 12.5094 58.1285 14.4483 58.1285 17.5718C58.1285 20.6291 55.8654 22.6231 53.4473 22.6231C50.7896 22.6231 48.6937 20.4945 48.6937 17.5474C48.6937 14.6634 50.7642 12.5094 53.4585 12.5094Z" fill="#8C8A97"/>
<path d="M71.2648 9.24825C66.7895 9.24825 63.2715 13.1679 63.2715 17.5678C63.2715 22.5793 67.3502 25.9026 71.1883 25.9026C73.5616 25.9026 74.8236 24.9606 75.7554 23.879V25.5213C75.7554 28.3941 74.0111 30.1139 71.378 30.1139C68.8345 30.1139 67.5592 28.2228 67.1157 27.1494L63.9158 28.4869C65.0514 30.8876 67.3359 33.3903 71.4045 33.3903C75.8543 33.3903 79.2459 30.5869 79.2459 24.7089V9.74676H75.7544V11.1577C74.6819 10.0016 73.2139 9.24825 71.2648 9.24825ZM71.589 12.5114C73.7838 12.5114 76.0367 14.3851 76.0367 17.5851C76.0367 20.8371 73.7879 22.6302 71.5411 22.6302C69.1546 22.6302 66.9353 20.6923 66.9353 17.6167C66.9343 14.4198 69.2402 12.5114 71.589 12.5114Z" fill="#8C8A97"/>
<path d="M94.767 9.22786C90.5456 9.22786 87 12.5869 87 17.5433C87 22.7883 90.9513 25.8985 95.1717 25.8985C98.6948 25.8985 100.857 23.9708 102.148 22.2449L99.2688 20.3294C98.5215 21.4885 97.2727 22.6211 95.189 22.6211C92.8484 22.6211 91.7719 21.3397 91.1052 20.098L102.27 15.4657L101.69 14.1079C100.613 11.4492 98.0964 9.22786 94.767 9.22786ZM94.9128 12.4299C96.4338 12.4299 97.5286 13.2383 97.9935 14.2088L90.5374 17.3252C90.2163 14.9122 92.5018 12.4299 94.9128 12.4299Z" fill="#8C8A97"/>
<path d="M81.6797 25.4041H85.3466V0.86145H81.6797V25.4041Z" fill="#8C8A97"/>
</svg>
