<svg width="107" height="30" viewBox="0 0 107 30" fill="none" xmlns="http://www.w3.org/2000/svg">
<path d="M8.99554 1.77662C9.73747 1.77662 12.9776 1.53607 16.9191 4.50667C17.0959 4.63999 17.1307 4.89213 17.0031 5.07181L15.1106 7.72362C14.9744 7.9149 14.7107 7.95258 14.5252 7.81057C14.1774 7.54104 13.5833 7.11501 12.8878 6.75854C11.7691 6.1876 10.2823 5.70361 8.99844 5.70361C7.71456 5.70361 5.65397 6.12384 5.65397 8.14386C5.65397 9.76972 7.09146 10.3812 11.5256 11.4738C14.4122 12.2245 17.7798 13.6098 17.7798 18.0324C17.7798 22.1014 14.3977 24.6662 9.73458 24.6662C6.92337 24.6662 3.06882 23.5997 0.622784 21.1334C0.474979 20.9827 0.469186 20.7421 0.608297 20.5827L2.73554 18.0758C2.88624 17.899 3.15577 17.8816 3.32676 18.041C4.13534 18.7975 6.50024 20.7131 9.72298 20.7131C13.563 20.7131 13.4094 18.4004 13.4094 18.0555C13.4094 17.3194 12.8762 16.2877 10.9808 15.7544C9.08539 15.2211 4.33242 14.3314 2.55295 12.2592C1.46035 10.9638 1.30674 9.52627 1.30674 8.44526C1.30674 6.00792 2.88334 1.77662 8.99554 1.77662Z" fill="#8C8A97"/>
<path d="M28.8007 7.07443C25.378 7.07443 23.529 9.59293 23.529 9.59293V7.84824C23.529 7.62218 23.3464 7.4367 23.1175 7.4367H19.6049C19.3788 7.4367 19.1934 7.61928 19.1934 7.84824V28.9381C19.1934 29.1641 19.3759 29.3496 19.6049 29.3496H23.132C23.358 29.3496 23.5435 29.167 23.5435 28.9381V22.368C23.5435 22.368 25.2592 24.6691 28.9862 24.6691C31.9423 24.6691 36.7069 22.2955 36.7069 15.9428C36.704 9.59003 32.2235 7.07443 28.8007 7.07443ZM27.8878 20.9189C25.4968 20.9189 23.4681 18.8409 23.4681 15.8703C23.4681 14.059 24.6042 10.8942 27.8386 10.8942C31.0729 10.8942 32.3075 13.5025 32.3075 15.8703C32.3075 18.2381 31.0033 20.9189 27.8878 20.9189Z" fill="#8C8A97"/>
<path d="M46.8478 7.07443C41.3181 7.07443 37.8867 11.6216 37.8867 15.908C37.8867 20.6059 41.5326 24.7126 46.8826 24.7126C52.2326 24.7126 55.8785 20.4871 55.8785 15.908C55.8814 11.3289 52.3775 7.07443 46.8478 7.07443ZM46.8826 20.9189C44.6249 20.9189 42.1615 19.0293 42.1615 15.8935C42.1615 12.7577 44.3844 10.8971 46.8826 10.8971C48.8012 10.8971 51.5312 12.4853 51.5312 15.8935C51.5312 19.3017 49.1431 20.9189 46.8826 20.9189Z" fill="#8C8A97"/>
<path d="M66.9411 10.7986V7.80479C66.9411 7.57874 66.7585 7.39325 66.5296 7.39325H62.5214V3.33584C62.5214 3.10978 62.3388 2.9243 62.1099 2.9243H58.6553C58.4292 2.9243 58.2437 3.10688 58.2437 3.33584V7.39325H56.5541C56.3281 7.39325 56.1426 7.57584 56.1426 7.80479V10.7986C56.1426 11.0246 56.3252 11.2101 56.5541 11.2101H58.2437C58.2437 11.2101 58.2437 17.7802 58.2437 19.6872C58.2437 21.5942 59.1132 24.6141 62.904 24.6141C64.6487 24.6141 66.1383 24.0026 66.7005 23.7417C66.8455 23.6751 66.9382 23.5302 66.9382 23.3679V20.4349C66.9382 20.1712 66.6426 20.0118 66.4252 20.1625C66.0282 20.4349 65.3819 20.7248 64.4255 20.7248C62.6141 20.7248 62.5185 19.493 62.5185 18.6236C62.5185 17.7541 62.5185 11.2101 62.5185 11.2101H66.5267C66.7585 11.2101 66.9411 11.0246 66.9411 10.7986Z" fill="#8C8A97"/>
<path d="M70.8684 5.3384C72.3426 5.3384 73.5376 4.14337 73.5376 2.66921C73.5376 1.19505 72.3426 7.62939e-06 70.8684 7.62939e-06C69.3943 7.62939e-06 68.1992 1.19505 68.1992 2.66921C68.1992 4.14337 69.3943 5.3384 70.8684 5.3384Z" fill="#8C8A97"/>
<path d="M72.5926 24.3243H69.1322C68.9062 24.3243 68.7207 24.1417 68.7207 23.9127V7.80478C68.7207 7.57873 68.9033 7.39324 69.1322 7.39324H72.5926C72.8187 7.39324 73.0042 7.57583 73.0042 7.80478V23.9127C73.0042 24.1388 72.8187 24.3243 72.5926 24.3243Z" fill="#8C8A97"/>
<path d="M76.8202 11.2101H75.1537C74.9277 11.2101 74.7422 11.0275 74.7422 10.7985V7.80473C74.7422 7.57868 74.9248 7.39319 75.1537 7.39319H76.8202C76.8202 7.39319 76.8202 7.03092 76.8202 6.30639C76.8202 5.58185 76.9419 1.01726 82.06 1.01726C84.5959 1.01726 85.4219 1.5853 85.4219 1.5853C85.4219 1.5853 85.4219 4.35593 85.4219 4.66313C85.4219 4.97034 85.3118 5.22538 84.9872 5.09786C84.6626 4.97034 83.7004 4.7182 82.9237 4.7182C82.147 4.7182 81.0747 5.17031 81.0747 6.54693C81.0747 7.03672 81.0747 7.39319 81.0747 7.39319H87.3491C87.5201 7.39319 87.6708 7.49753 87.7317 7.65693L92.1224 19.0119L96.0668 7.6946C96.1248 7.52941 96.2813 7.41928 96.4552 7.41928H100.313C100.495 7.41928 100.623 7.60186 100.556 7.76995C99.6518 10.1117 94.525 23.3765 93.8642 25.0603C93.1397 26.9094 91.908 29.425 88.3751 29.425C86.3261 29.425 85.0045 28.7381 84.4539 28.3787C84.2829 28.2657 84.2191 28.0454 84.3061 27.8599L85.5639 25.1618C85.6161 25.0487 85.7552 25.0053 85.8624 25.0719C86.2218 25.2922 87.042 25.7211 87.9954 25.7211C89.3982 25.7211 90.0242 24.0634 90.0242 24.0634L84.6452 11.2101H81.1036V23.9445C81.1036 24.1706 80.9211 24.3561 80.6921 24.3561H77.2201C76.9941 24.3561 76.8086 24.1706 76.8086 23.9445L76.8202 11.2101Z" fill="#8C8A97"/>
<path d="M102.666 8.56696H103.95C104.306 8.56696 104.582 8.6684 104.767 8.85099C104.924 9.00749 105.008 9.22774 105.008 9.49147V9.50017C105.008 9.95228 104.764 10.2363 104.408 10.3696L105.092 11.3724H104.37L103.77 10.4739H103.762H103.283V11.3724H102.666V8.56696ZM103.909 9.92909C104.211 9.92909 104.382 9.7697 104.382 9.53205V9.52335C104.382 9.25962 104.196 9.12341 103.898 9.12341H103.283V9.92909H103.909Z" fill="#8C8A97"/>
<path d="M103.786 12.6824C102.325 12.6824 101.137 11.4941 101.137 10.0334C101.137 8.57278 102.325 7.38454 103.786 7.38454C105.246 7.38454 106.435 8.57278 106.435 10.0334C106.435 11.4941 105.243 12.6824 103.786 12.6824ZM103.786 7.67725C102.484 7.67725 101.427 8.73508 101.427 10.0363C101.427 11.3376 102.484 12.3954 103.786 12.3954C105.087 12.3954 106.145 11.3376 106.145 10.0363C106.145 8.73508 105.084 7.67725 103.786 7.67725Z" fill="#8C8A97"/>
</svg>
