<svg width="76" height="22" viewBox="0 0 76 22" fill="none" xmlns="http://www.w3.org/2000/svg">
<path d="M14.877 21.2565C12.5031 21.2565 10.4009 19.6611 9.76404 17.376L6.30141 5.02985C6.17852 4.58672 5.77009 4.2766 5.30816 4.2766C4.73997 4.2766 4.27733 4.73925 4.27733 5.30744V20.7295H0V5.30744C0 2.38047 2.38119 0 5.30744 0C7.68212 0 9.785 1.59613 10.4211 3.88263L13.8831 16.2267C14.0059 16.6698 14.4144 16.9799 14.8763 16.9799C15.4445 16.9799 15.9071 16.5173 15.9071 15.9491V0.526262H20.1845V15.9483C20.1845 18.8753 17.8033 21.2565 14.877 21.2565Z" fill="#8C8A97"/>
<path d="M49.6827 20.7295H38.1562V16.4529H49.6827C50.6991 16.4529 51.5253 15.6259 51.5253 14.6095C51.5253 13.5932 50.6983 12.7662 49.6827 12.7662H44.347C40.9726 12.7662 38.2271 10.0207 38.2271 6.64621C38.2271 3.27178 40.9726 0.526253 44.347 0.526253H54.7638V4.80358H44.347C43.3307 4.80358 42.5037 5.63056 42.5037 6.64694C42.5037 7.66332 43.3307 8.4903 44.347 8.4903H49.6827C53.0571 8.4903 55.8026 11.2358 55.8026 14.6103C55.8026 17.9847 53.0571 20.7295 49.6827 20.7295Z" fill="#8C8A97"/>
<path d="M69.9668 3.67517C69.2525 1.47687 67.2191 7.62939e-06 64.9065 7.62939e-06C62.594 7.62939e-06 60.5605 1.47687 59.8463 3.67517L54.3047 20.7302H58.8018L63.914 4.99733C64.0304 4.63877 64.3825 4.27733 64.9065 4.27733C65.4306 4.27733 65.7827 4.63877 65.8991 4.99733L71.0106 20.7302H75.5077L69.9668 3.67517Z" fill="#8C8A97"/>
<path d="M34.8086 3.67517C34.0943 1.47687 32.0609 7.62939e-06 29.7484 7.62939e-06C27.4358 7.62939e-06 25.4024 1.47687 24.6881 3.67517L19.1465 20.7302H23.6436L28.7558 4.99733C28.8722 4.63877 29.2243 4.27733 29.7484 4.27733C30.2724 4.27733 30.6245 4.63877 30.7409 4.99733L35.8531 20.7302H40.3502L34.8086 3.67517Z" fill="#8C8A97"/>
</svg>
