<svg width="193" height="33" viewBox="0 0 193 33" fill="none" xmlns="http://www.w3.org/2000/svg">
<path d="M47.6311 -4.16359e-07L57.1562 16.5L38.1059 16.5L47.6311 -4.16359e-07Z" fill="#8C8A97"/>
<path d="M47.6311 33L57.1562 16.5L38.1059 16.5L47.6311 33Z" fill="#ACABB7"/>
<path d="M28.5805 33L47.6309 33L38.1057 16.5" fill="#4E4B59"/>
<path d="M28.5803 -4.16359e-07L19.0507 16.5L38.1055 16.5L28.5803 -4.16359e-07Z" fill="#8C8A97"/>
<path d="M38.1055 16.5L19.0507 16.5L28.5803 33L38.1055 16.5Z" fill="#ACABB7"/>
<path d="M28.582 0L9.52725 -8.32911e-07L19.0524 16.5L28.582 0Z" fill="#4E4B59"/>
<path d="M9.52755 -4.16359e-07L0.00237584 16.5L19.0527 16.5L9.52755 -4.16359e-07Z" fill="#ACABB7"/>
<path d="M19.0527 16.5L0.00237656 16.5L9.52755 33L19.0527 16.5Z" fill="#8C8A97"/>
<path d="M86.8009 17.0658C86.7489 17.6583 86.6086 18.2091 86.3799 18.7185C86.1617 19.2174 85.855 19.6539 85.4601 20.0281C85.0755 20.3919 84.5973 20.6778 84.0257 20.8856C83.4644 21.0935 82.8095 21.1975 82.0612 21.1975C81.2192 21.1975 80.4761 21.0571 79.8316 20.7765C79.1976 20.4959 78.6623 20.1009 78.2257 19.5916C77.7996 19.0823 77.4773 18.469 77.2591 17.7518C77.0408 17.0242 76.9316 16.2239 76.9316 15.3507C76.9316 14.4465 77.0512 13.6357 77.2902 12.9185C77.5293 12.2013 77.8723 11.5881 78.3193 11.0787C78.7662 10.5694 79.3067 10.1796 79.9408 9.9094C80.5748 9.63915 81.292 9.50403 82.0923 9.50403C82.7991 9.50403 83.4124 9.59238 83.9321 9.76908C84.4622 9.94578 84.904 10.2004 85.2574 10.5331C85.6212 10.8657 85.9122 11.2658 86.1305 11.7336C86.3488 12.2013 86.5099 12.7262 86.6138 13.3083L84.3063 13.6045C84.192 12.9497 83.9685 12.4352 83.6359 12.061C83.3137 11.6868 82.7991 11.4997 82.0923 11.4997C81.1984 11.4997 80.5176 11.8375 80.0499 12.5131C79.5925 13.1784 79.3639 14.1242 79.3639 15.3507C79.3639 16.5877 79.6081 17.5387 80.0967 18.2039C80.5956 18.8692 81.2608 19.2018 82.0923 19.2018C82.8095 19.2018 83.3344 19.0199 83.6671 18.6561C84.0101 18.2819 84.2231 17.7518 84.3063 17.0658H86.8009Z" fill="#33303E"/>
<path d="M92.069 21.1663C90.7594 21.1663 89.7459 20.7921 89.0287 20.0437C88.3115 19.2953 87.9529 18.2247 87.9529 16.8319C87.9529 16.1667 88.0465 15.569 88.2336 15.0389C88.4311 14.4984 88.7065 14.0463 89.0599 13.6825C89.4237 13.3083 89.8603 13.0225 90.3696 12.825C90.8789 12.6275 91.4454 12.5287 92.069 12.5287C92.7031 12.5287 93.2748 12.6275 93.7841 12.825C94.2934 13.0225 94.7248 13.3083 95.0782 13.6825C95.4419 14.0463 95.7174 14.4984 95.9045 15.0389C96.0916 15.569 96.1851 16.1667 96.1851 16.8319C96.1851 17.5075 96.0864 18.1156 95.8889 18.6561C95.7018 19.1862 95.4264 19.6383 95.0626 20.0125C94.7092 20.3867 94.2778 20.6726 93.7685 20.8701C93.2592 21.0675 92.6927 21.1663 92.069 21.1663ZM92.069 19.4201C92.6927 19.4201 93.1552 19.1966 93.4567 18.7496C93.7685 18.3027 93.9244 17.6635 93.9244 16.8319C93.9244 16.0004 93.7685 15.3663 93.4567 14.9298C93.1552 14.4932 92.6927 14.275 92.069 14.275C91.4454 14.275 90.9777 14.4932 90.6658 14.9298C90.3644 15.3663 90.2137 16.0004 90.2137 16.8319C90.2137 17.6738 90.3644 18.3183 90.6658 18.7652C90.9673 19.2018 91.435 19.4201 92.069 19.4201Z" fill="#33303E"/>
<path d="M97.8411 12.7782H99.9615V13.8696C100.263 13.4122 100.616 13.0744 101.022 12.8561C101.427 12.6379 101.853 12.5287 102.3 12.5287C102.893 12.5287 103.376 12.6483 103.75 12.8873C104.124 13.1264 104.389 13.4746 104.545 13.9319C104.92 13.433 105.314 13.0744 105.73 12.8561C106.146 12.6379 106.603 12.5287 107.102 12.5287C107.944 12.5287 108.573 12.7626 108.989 13.2303C109.415 13.6877 109.628 14.4361 109.628 15.4755V20.9168H107.445V15.7717C107.445 15.4807 107.419 15.2468 107.367 15.0701C107.315 14.883 107.243 14.7375 107.149 14.6336C107.066 14.5296 106.962 14.4569 106.837 14.4153C106.713 14.3737 106.583 14.3529 106.447 14.3529C106.229 14.3529 106.027 14.3893 105.839 14.462C105.663 14.5348 105.486 14.6595 105.309 14.8362C105.164 14.9818 105.044 15.1481 104.951 15.3352C104.868 15.5223 104.826 15.7197 104.826 15.9276V20.9168H102.643V15.7717C102.643 15.4807 102.617 15.2468 102.565 15.0701C102.513 14.883 102.441 14.7375 102.347 14.6336C102.264 14.5296 102.16 14.4569 102.035 14.4153C101.91 14.3737 101.78 14.3529 101.645 14.3529C101.427 14.3529 101.224 14.3893 101.037 14.462C100.861 14.5348 100.684 14.6595 100.507 14.8362C100.362 14.9818 100.242 15.1585 100.149 15.3663C100.065 15.5638 100.024 15.7821 100.024 16.0212V20.9168H97.8411V12.7782Z" fill="#33303E"/>
<path d="M111.483 12.7782H113.604V13.854C114.227 12.9705 115.08 12.5287 116.161 12.5287C117.294 12.5287 118.141 12.9133 118.702 13.6825C119.263 14.4517 119.544 15.5067 119.544 16.8475C119.544 17.4919 119.461 18.0792 119.295 18.6093C119.139 19.1394 118.905 19.5968 118.593 19.9813C118.292 20.3555 117.923 20.6466 117.486 20.8545C117.05 21.0623 116.556 21.1663 116.005 21.1663C115.6 21.1663 115.194 21.0935 114.789 20.948C114.394 20.8025 114.02 20.5115 113.666 20.0749V23.9415H111.483V12.7782ZM113.651 16.9099C113.651 17.44 113.692 17.8661 113.775 18.1884C113.869 18.5002 114.014 18.7548 114.212 18.9523C114.42 19.1394 114.628 19.2642 114.836 19.3265C115.054 19.3785 115.272 19.4045 115.49 19.4045C115.729 19.4045 115.958 19.3577 116.176 19.2642C116.395 19.1706 116.582 19.0251 116.738 18.8276C116.904 18.6197 117.034 18.3547 117.127 18.0324C117.221 17.7102 117.268 17.3204 117.268 16.8631C117.268 16.385 117.221 15.9848 117.127 15.6626C117.044 15.3404 116.925 15.0805 116.769 14.883C116.613 14.6751 116.426 14.5296 116.208 14.4465C116 14.3529 115.776 14.3061 115.537 14.3061C115.267 14.3061 115.033 14.3425 114.836 14.4153C114.638 14.488 114.446 14.6024 114.259 14.7583C114.051 14.9558 113.895 15.2052 113.791 15.5067C113.697 15.8081 113.651 16.1927 113.651 16.6604V16.9099Z" fill="#33303E"/>
<path d="M126.031 19.8878C125.709 20.2516 125.345 20.5478 124.939 20.7765C124.544 21.0052 124.03 21.1195 123.396 21.1195C123.032 21.1195 122.684 21.0727 122.351 20.9792C122.029 20.8856 121.743 20.7401 121.494 20.5426C121.255 20.3451 121.062 20.0957 120.917 19.7943C120.771 19.4824 120.699 19.1134 120.699 18.6873C120.699 18.126 120.823 17.6686 121.073 17.3152C121.322 16.9618 121.65 16.6864 122.055 16.4889C122.46 16.2914 122.913 16.1511 123.411 16.0679C123.921 15.9848 124.435 15.9328 124.955 15.912L126 15.8653V15.4599C126 14.961 125.859 14.618 125.579 14.4309C125.308 14.2438 124.986 14.1502 124.612 14.1502C123.749 14.1502 123.256 14.4776 123.131 15.1325L121.135 14.9454C121.281 14.0931 121.655 13.4798 122.258 13.1056C122.861 12.721 123.671 12.5287 124.69 12.5287C125.314 12.5287 125.844 12.6067 126.28 12.7626C126.717 12.9081 127.065 13.1212 127.325 13.4018C127.595 13.6825 127.787 14.0255 127.902 14.4309C128.026 14.8258 128.089 15.2728 128.089 15.7717V20.9168H126.031V19.8878ZM125.984 17.2841L125.017 17.3308C124.56 17.3516 124.191 17.3984 123.91 17.4712C123.63 17.5439 123.411 17.6375 123.256 17.7518C123.11 17.8557 123.011 17.9805 122.959 18.126C122.907 18.2715 122.881 18.4326 122.881 18.6093C122.881 18.8796 122.975 19.0926 123.162 19.2486C123.349 19.4045 123.609 19.4824 123.942 19.4824C124.503 19.4824 124.96 19.3525 125.314 19.0926C125.511 18.9471 125.672 18.7652 125.797 18.547C125.922 18.3183 125.984 18.0376 125.984 17.705V17.2841Z" fill="#33303E"/>
<path d="M129.937 12.7782H132.058V13.9008C132.38 13.4226 132.759 13.0744 133.196 12.8561C133.643 12.6379 134.105 12.5287 134.583 12.5287C135.508 12.5287 136.194 12.773 136.641 13.2615C137.088 13.7397 137.312 14.4984 137.312 15.5378V20.9168H135.129V15.8341C135.129 15.2624 135.02 14.8726 134.802 14.6647C134.583 14.4568 134.292 14.3529 133.929 14.3529C133.648 14.3529 133.404 14.3945 133.196 14.4776C132.998 14.5608 132.811 14.6803 132.634 14.8362C132.489 14.9818 132.364 15.1585 132.26 15.3663C132.167 15.5638 132.12 15.7821 132.12 16.0212V20.9168H129.937V12.7782Z" fill="#33303E"/>
<path d="M139.23 22.0706C139.531 22.1537 139.838 22.1953 140.15 22.1953C140.441 22.1953 140.675 22.1225 140.852 21.977C141.028 21.8419 141.179 21.5976 141.304 21.2442L141.553 20.5582L138.17 12.7782H140.696L142.598 18.126L144.375 12.7782H146.761L143.471 21.1507C143.284 21.6184 143.107 22.0238 142.941 22.3668C142.774 22.7202 142.582 23.0113 142.364 23.2399C142.156 23.479 141.901 23.6557 141.6 23.77C141.309 23.8844 140.945 23.9415 140.509 23.9415C140.238 23.9415 139.968 23.9207 139.698 23.8792C139.438 23.848 139.162 23.7856 138.871 23.6921L139.23 22.0706Z" fill="#33303E"/>
<path d="M151.501 9.78467H153.59L158.174 17.0814V9.78467H160.435V20.9168H158.361L153.762 13.6825V20.9168H151.501V9.78467Z" fill="#33303E"/>
<path d="M167.369 19.8878C167.047 20.2516 166.683 20.5478 166.278 20.7765C165.883 21.0052 165.368 21.1195 164.734 21.1195C164.37 21.1195 164.022 21.0727 163.689 20.9792C163.367 20.8856 163.081 20.7401 162.832 20.5426C162.593 20.3451 162.401 20.0957 162.255 19.7943C162.109 19.4824 162.037 19.1134 162.037 18.6873C162.037 18.126 162.161 17.6686 162.411 17.3152C162.66 16.9618 162.988 16.6864 163.393 16.4889C163.799 16.2914 164.251 16.1511 164.75 16.0679C165.259 15.9848 165.773 15.9328 166.293 15.912L167.338 15.8653V15.4599C167.338 14.961 167.197 14.618 166.917 14.4309C166.647 14.2438 166.324 14.1502 165.95 14.1502C165.087 14.1502 164.594 14.4776 164.469 15.1325L162.473 14.9454C162.619 14.0931 162.993 13.4798 163.596 13.1056C164.199 12.721 165.009 12.5287 166.028 12.5287C166.652 12.5287 167.182 12.6067 167.618 12.7626C168.055 12.9081 168.403 13.1212 168.663 13.4018C168.933 13.6825 169.126 14.0255 169.24 14.4309C169.365 14.8258 169.427 15.2728 169.427 15.7717V20.9168H167.369V19.8878ZM167.322 17.2841L166.356 17.3308C165.898 17.3516 165.529 17.3984 165.249 17.4712C164.968 17.5439 164.75 17.6375 164.594 17.7518C164.448 17.8557 164.349 17.9805 164.297 18.126C164.245 18.2715 164.22 18.4326 164.22 18.6093C164.22 18.8796 164.313 19.0926 164.5 19.2486C164.687 19.4045 164.947 19.4824 165.28 19.4824C165.841 19.4824 166.298 19.3525 166.652 19.0926C166.849 18.9471 167.01 18.7652 167.135 18.547C167.26 18.3183 167.322 18.0376 167.322 17.705V17.2841Z" fill="#33303E"/>
<path d="M171.275 12.7782H173.396V13.8696C173.697 13.4122 174.051 13.0744 174.456 12.8561C174.861 12.6379 175.287 12.5287 175.734 12.5287C176.327 12.5287 176.81 12.6483 177.184 12.8873C177.559 13.1264 177.824 13.4746 177.98 13.9319C178.354 13.433 178.749 13.0744 179.164 12.8561C179.58 12.6379 180.038 12.5287 180.536 12.5287C181.378 12.5287 182.007 12.7626 182.423 13.2303C182.849 13.6877 183.062 14.4361 183.062 15.4755V20.9168H180.879V15.7717C180.879 15.4807 180.854 15.2468 180.802 15.0701C180.75 14.883 180.677 14.7375 180.583 14.6336C180.5 14.5296 180.396 14.4569 180.271 14.4153C180.147 14.3737 180.017 14.3529 179.882 14.3529C179.663 14.3529 179.461 14.3893 179.274 14.462C179.097 14.5348 178.92 14.6595 178.743 14.8362C178.598 14.9818 178.478 15.1481 178.385 15.3352C178.302 15.5223 178.26 15.7197 178.26 15.9276V20.9168H176.077V15.7717C176.077 15.4807 176.051 15.2468 175.999 15.0701C175.947 14.883 175.875 14.7375 175.781 14.6336C175.698 14.5296 175.594 14.4569 175.469 14.4153C175.345 14.3737 175.215 14.3529 175.08 14.3529C174.861 14.3529 174.659 14.3893 174.471 14.462C174.295 14.5348 174.118 14.6595 173.941 14.8362C173.796 14.9818 173.676 15.1585 173.583 15.3663C173.5 15.5638 173.458 15.7821 173.458 16.0212V20.9168H171.275V12.7782Z" fill="#33303E"/>
<path d="M192.37 18.3755C192.225 19.2901 191.856 19.9865 191.263 20.4647C190.681 20.9324 189.829 21.1663 188.706 21.1663C187.355 21.1663 186.336 20.7921 185.65 20.0437C184.975 19.2953 184.637 18.2351 184.637 16.8631C184.637 16.1771 184.736 15.569 184.933 15.0389C185.131 14.4984 185.406 14.0411 185.76 13.6669C186.123 13.2927 186.555 13.0121 187.054 12.825C187.553 12.6275 188.103 12.5287 188.706 12.5287C189.954 12.5287 190.889 12.8873 191.513 13.6045C192.147 14.3217 192.464 15.2884 192.464 16.5045V17.3776H186.82C186.841 18.0324 187.007 18.547 187.319 18.9211C187.631 19.2849 188.098 19.4668 188.722 19.4668C189.585 19.4668 190.094 19.103 190.25 18.3755H192.37ZM190.359 15.9432C190.359 15.3819 190.219 14.9454 189.938 14.6336C189.668 14.3217 189.242 14.1658 188.66 14.1658C188.368 14.1658 188.114 14.2126 187.896 14.3061C187.677 14.3997 187.49 14.5296 187.334 14.6959C187.189 14.8518 187.074 15.0389 186.991 15.2572C186.908 15.4651 186.861 15.6938 186.851 15.9432H190.359Z" fill="#33303E"/>
</svg>
