<svg width="187" height="32" viewBox="0 0 187 32" fill="none" xmlns="http://www.w3.org/2000/svg">
<path d="M46.1873 -4.03742e-07L55.4238 16L36.9508 16L46.1873 -4.03742e-07Z" fill="#8C8A97"/>
<path d="M46.1873 32L55.4238 16L36.9508 16L46.1873 32Z" fill="#ACABB7"/>
<path d="M27.7144 32L46.1875 32L36.951 16" fill="#4E4B59"/>
<path d="M27.7146 -4.03742e-07L18.4738 16L36.9512 16L27.7146 -4.03742e-07Z" fill="#8C8A97"/>
<path d="M36.9512 16L18.4738 16L27.7146 32L36.9512 16Z" fill="#ACABB7"/>
<path d="M27.7148 0L9.23748 -8.07671e-07L18.474 16L27.7148 0Z" fill="#4E4B59"/>
<path d="M9.23807 -4.03742e-07L0.00153472 16L18.4746 16L9.23807 -4.03742e-07Z" fill="#ACABB7"/>
<path d="M18.4746 16L0.00153542 16L9.23807 32L18.4746 16Z" fill="#8C8A97"/>
<path d="M84.1698 16.5486C84.1194 17.1231 83.9833 17.6573 83.7616 18.1512C83.5499 18.635 83.2526 19.0583 82.8696 19.4212C82.4967 19.774 82.033 20.0511 81.4787 20.2527C80.9344 20.4543 80.2994 20.5551 79.5737 20.5551C78.7573 20.5551 78.0366 20.419 77.4117 20.1469C76.7969 19.8748 76.2778 19.4917 75.8545 18.9979C75.4412 18.504 75.1288 17.9093 74.9171 17.2138C74.7054 16.5083 74.5996 15.7322 74.5996 14.8855C74.5996 14.0087 74.7155 13.2225 74.9473 12.527C75.1792 11.8316 75.5118 11.2369 75.9452 10.743C76.3786 10.2491 76.9027 9.87115 77.5175 9.60909C78.1324 9.34703 78.8278 9.216 79.6039 9.216C80.2893 9.216 80.884 9.30168 81.3879 9.47302C81.902 9.64437 82.3304 9.89131 82.673 10.2138C83.0258 10.5364 83.308 10.9244 83.5197 11.378C83.7314 11.8316 83.8876 12.3406 83.9884 12.905L81.7508 13.1922C81.6399 12.5573 81.4232 12.0583 81.1007 11.6955C80.7882 11.3326 80.2893 11.1512 79.6039 11.1512C78.7371 11.1512 78.0769 11.4788 77.6234 12.1339C77.1799 12.779 76.9581 13.6962 76.9581 14.8855C76.9581 16.085 77.195 17.0072 77.6687 17.6523C78.1525 18.2974 78.7976 18.6199 79.6039 18.6199C80.2994 18.6199 80.8084 18.4435 81.1309 18.0907C81.4635 17.7279 81.6702 17.2138 81.7508 16.5486H84.1698Z" fill="#33303E"/>
<path d="M89.2783 20.5249C88.0083 20.5249 87.0256 20.162 86.3301 19.4363C85.6347 18.7106 85.2869 17.6724 85.2869 16.3218C85.2869 15.6768 85.3777 15.0972 85.5591 14.5832C85.7506 14.0591 86.0177 13.6206 86.3604 13.2678C86.7131 12.905 87.1365 12.6278 87.6304 12.4363C88.1242 12.2448 88.6735 12.149 89.2783 12.149C89.8931 12.149 90.4475 12.2448 90.9414 12.4363C91.4352 12.6278 91.8535 12.905 92.1962 13.2678C92.549 13.6206 92.8161 14.0591 92.9975 14.5832C93.1789 15.0972 93.2697 15.6768 93.2697 16.3218C93.2697 16.977 93.1739 17.5666 92.9824 18.0907C92.801 18.6048 92.5339 19.0432 92.1811 19.4061C91.8384 19.7689 91.4201 20.0461 90.9262 20.2376C90.4324 20.4291 89.8831 20.5249 89.2783 20.5249ZM89.2783 18.8316C89.8831 18.8316 90.3316 18.6149 90.6239 18.1814C90.9262 17.748 91.0774 17.1282 91.0774 16.3218C91.0774 15.5155 90.9262 14.9007 90.6239 14.4773C90.3316 14.054 89.8831 13.8424 89.2783 13.8424C88.6735 13.8424 88.22 14.054 87.9176 14.4773C87.6253 14.9007 87.4792 15.5155 87.4792 16.3218C87.4792 17.1382 87.6253 17.7632 87.9176 18.1966C88.2099 18.6199 88.6635 18.8316 89.2783 18.8316Z" fill="#33303E"/>
<path d="M94.8754 12.391H96.9316V13.4493C97.2239 13.0058 97.5666 12.6782 97.9597 12.4665C98.3528 12.2549 98.766 12.149 99.1994 12.149C99.7739 12.149 100.243 12.265 100.605 12.4968C100.968 12.7286 101.225 13.0663 101.377 13.5097C101.739 13.0259 102.122 12.6782 102.526 12.4665C102.929 12.2549 103.372 12.149 103.856 12.149C104.672 12.149 105.282 12.3758 105.685 12.8294C106.099 13.2729 106.305 13.9986 106.305 15.0065V20.283H104.189V15.2938C104.189 15.0115 104.163 14.7848 104.113 14.6134C104.063 14.432 103.992 14.2909 103.901 14.1901C103.821 14.0893 103.72 14.0187 103.599 13.9784C103.478 13.9381 103.352 13.9179 103.221 13.9179C103.009 13.9179 102.813 13.9532 102.631 14.0238C102.46 14.0943 102.289 14.2153 102.117 14.3866C101.976 14.5277 101.86 14.689 101.77 14.8704C101.689 15.0519 101.649 15.2434 101.649 15.4449V20.283H99.532V15.2938C99.532 15.0115 99.5068 14.7848 99.4564 14.6134C99.406 14.432 99.3355 14.2909 99.2448 14.1901C99.1641 14.0893 99.0633 14.0187 98.9424 13.9784C98.8214 13.9381 98.6955 13.9179 98.5644 13.9179C98.3528 13.9179 98.1562 13.9532 97.9748 14.0238C97.8034 14.0943 97.6321 14.2153 97.4608 14.3866C97.3196 14.5277 97.2037 14.6991 97.113 14.9007C97.0324 15.0922 96.9921 15.3038 96.9921 15.5357V20.283H94.8754V12.391Z" fill="#33303E"/>
<path d="M108.104 12.391H110.161V13.4341C110.765 12.5774 111.592 12.149 112.64 12.149C113.739 12.149 114.56 12.522 115.104 13.2678C115.649 14.0137 115.921 15.0367 115.921 16.337C115.921 16.9619 115.84 17.5313 115.679 18.0454C115.528 18.5594 115.301 19.0029 114.999 19.3758C114.706 19.7387 114.348 20.0209 113.925 20.2225C113.502 20.4241 113.023 20.5249 112.489 20.5249C112.096 20.5249 111.703 20.4543 111.31 20.3132C110.927 20.1721 110.564 19.8899 110.221 19.4665V23.216H108.104V12.391ZM110.206 16.3974C110.206 16.9115 110.246 17.3247 110.327 17.6372C110.418 17.9395 110.559 18.1865 110.75 18.378C110.952 18.5594 111.153 18.6804 111.355 18.7408C111.567 18.7912 111.778 18.8164 111.99 18.8164C112.222 18.8164 112.443 18.7711 112.655 18.6804C112.867 18.5897 113.048 18.4485 113.199 18.257C113.361 18.0555 113.487 17.7984 113.577 17.486C113.668 17.1735 113.713 16.7956 113.713 16.3521C113.713 15.8884 113.668 15.5004 113.577 15.1879C113.497 14.8755 113.381 14.6235 113.23 14.432C113.078 14.2304 112.897 14.0893 112.685 14.0087C112.484 13.9179 112.267 13.8726 112.035 13.8726C111.773 13.8726 111.546 13.9079 111.355 13.9784C111.163 14.049 110.977 14.1598 110.796 14.311C110.594 14.5025 110.443 14.7444 110.342 15.0367C110.251 15.329 110.206 15.702 110.206 16.1555V16.3974Z" fill="#33303E"/>
<path d="M122.211 19.2851C121.898 19.6379 121.546 19.9251 121.153 20.1469C120.77 20.3686 120.271 20.4795 119.656 20.4795C119.303 20.4795 118.965 20.4341 118.643 20.3434C118.33 20.2527 118.053 20.1116 117.811 19.9201C117.58 19.7286 117.393 19.4867 117.252 19.1944C117.111 18.892 117.04 18.5342 117.04 18.121C117.04 17.5767 117.161 17.1332 117.403 16.7905C117.645 16.4478 117.963 16.1807 118.356 15.9892C118.749 15.7977 119.187 15.6616 119.671 15.581C120.165 15.5004 120.664 15.45 121.168 15.4298L122.181 15.3845V14.9914C122.181 14.5076 122.045 14.175 121.772 13.9935C121.51 13.8121 121.198 13.7214 120.835 13.7214C119.999 13.7214 119.52 14.0389 119.399 14.6739L117.464 14.4925C117.605 13.666 117.968 13.0713 118.552 12.7084C119.137 12.3355 119.923 12.149 120.911 12.149C121.515 12.149 122.029 12.2246 122.453 12.3758C122.876 12.5169 123.214 12.7236 123.466 12.9957C123.728 13.2678 123.914 13.6005 124.025 13.9935C124.146 14.3766 124.207 14.81 124.207 15.2938V20.283H122.211V19.2851ZM122.166 16.7603L121.228 16.8056C120.785 16.8258 120.427 16.8712 120.155 16.9417C119.883 17.0123 119.671 17.103 119.52 17.2138C119.379 17.3146 119.283 17.4356 119.233 17.5767C119.182 17.7178 119.157 17.874 119.157 18.0454C119.157 18.3074 119.248 18.5141 119.429 18.6652C119.61 18.8164 119.862 18.892 120.185 18.892C120.729 18.892 121.173 18.766 121.515 18.5141C121.707 18.373 121.863 18.1966 121.984 17.9849C122.105 17.7632 122.166 17.491 122.166 17.1685V16.7603Z" fill="#33303E"/>
<path d="M125.999 12.391H128.055V13.4795C128.368 13.0159 128.735 12.6782 129.159 12.4665C129.592 12.2549 130.041 12.149 130.504 12.149C131.401 12.149 132.067 12.3859 132.5 12.8596C132.933 13.3233 133.15 14.0591 133.15 15.067V20.283H131.033V15.3542C131.033 14.7999 130.928 14.4219 130.716 14.2203C130.504 14.0187 130.222 13.9179 129.869 13.9179C129.597 13.9179 129.36 13.9583 129.159 14.0389C128.967 14.1195 128.786 14.2354 128.614 14.3866C128.473 14.5277 128.352 14.6991 128.252 14.9007C128.161 15.0922 128.116 15.3038 128.116 15.5357V20.283H125.999V12.391Z" fill="#33303E"/>
<path d="M135.01 21.4017C135.302 21.4824 135.6 21.5227 135.902 21.5227C136.184 21.5227 136.411 21.4521 136.583 21.311C136.754 21.18 136.9 20.9431 137.021 20.6005L137.263 19.9352L133.982 12.391H136.431L138.276 17.5767L139.999 12.391H142.313L139.122 20.5097C138.941 20.9633 138.77 21.3564 138.608 21.689C138.447 22.0317 138.261 22.3139 138.049 22.5357C137.847 22.7675 137.601 22.9388 137.308 23.0497C137.026 23.1606 136.673 23.216 136.25 23.216C135.988 23.216 135.726 23.1958 135.464 23.1555C135.212 23.1253 134.945 23.0648 134.662 22.9741L135.01 21.4017Z" fill="#33303E"/>
<path d="M146.909 9.48814H148.935L153.38 16.5637V9.48814H155.572V20.283H153.562L149.101 13.2678V20.283H146.909V9.48814Z" fill="#33303E"/>
<path d="M162.296 19.2851C161.984 19.6379 161.631 19.9251 161.238 20.1469C160.855 20.3686 160.356 20.4795 159.741 20.4795C159.389 20.4795 159.051 20.4341 158.728 20.3434C158.416 20.2527 158.139 20.1116 157.897 19.9201C157.665 19.7286 157.479 19.4867 157.337 19.1944C157.196 18.892 157.126 18.5342 157.126 18.121C157.126 17.5767 157.247 17.1332 157.489 16.7905C157.731 16.4478 158.048 16.1807 158.441 15.9892C158.834 15.7977 159.273 15.6616 159.756 15.581C160.25 15.5004 160.749 15.45 161.253 15.4298L162.266 15.3845V14.9914C162.266 14.5076 162.13 14.175 161.858 13.9935C161.596 13.8121 161.283 13.7214 160.921 13.7214C160.084 13.7214 159.605 14.0389 159.484 14.6739L157.549 14.4925C157.69 13.666 158.053 13.0713 158.638 12.7084C159.222 12.3355 160.008 12.149 160.996 12.149C161.601 12.149 162.115 12.2246 162.538 12.3758C162.962 12.5169 163.299 12.7236 163.551 12.9957C163.813 13.2678 164 13.6005 164.111 13.9935C164.232 14.3766 164.292 14.81 164.292 15.2938V20.283H162.296V19.2851ZM162.251 16.7603L161.314 16.8056C160.87 16.8258 160.512 16.8712 160.24 16.9417C159.968 17.0123 159.756 17.103 159.605 17.2138C159.464 17.3146 159.368 17.4356 159.318 17.5767C159.268 17.7178 159.242 17.874 159.242 18.0454C159.242 18.3074 159.333 18.5141 159.515 18.6652C159.696 18.8164 159.948 18.892 160.27 18.892C160.815 18.892 161.258 18.766 161.601 18.5141C161.792 18.373 161.949 18.1966 162.07 17.9849C162.191 17.7632 162.251 17.491 162.251 17.1685V16.7603Z" fill="#33303E"/>
<path d="M166.084 12.391H168.141V13.4493C168.433 13.0058 168.775 12.6782 169.169 12.4665C169.562 12.2549 169.975 12.149 170.408 12.149C170.983 12.149 171.452 12.265 171.814 12.4968C172.177 12.7286 172.434 13.0663 172.585 13.5097C172.948 13.0259 173.331 12.6782 173.734 12.4665C174.138 12.2549 174.581 12.149 175.065 12.149C175.881 12.149 176.491 12.3758 176.894 12.8294C177.308 13.2729 177.514 13.9986 177.514 15.0065V20.283H175.398V15.2938C175.398 15.0115 175.372 14.7848 175.322 14.6134C175.272 14.432 175.201 14.2909 175.11 14.1901C175.03 14.0893 174.929 14.0187 174.808 13.9784C174.687 13.9381 174.561 13.9179 174.43 13.9179C174.218 13.9179 174.022 13.9532 173.84 14.0238C173.669 14.0943 173.498 14.2153 173.326 14.3866C173.185 14.5277 173.069 14.689 172.979 14.8704C172.898 15.0519 172.858 15.2434 172.858 15.4449V20.283H170.741V15.2938C170.741 15.0115 170.716 14.7848 170.665 14.6134C170.615 14.432 170.544 14.2909 170.454 14.1901C170.373 14.0893 170.272 14.0187 170.151 13.9784C170.03 13.9381 169.904 13.9179 169.773 13.9179C169.562 13.9179 169.365 13.9532 169.184 14.0238C169.012 14.0943 168.841 14.2153 168.67 14.3866C168.529 14.5277 168.413 14.6991 168.322 14.9007C168.241 15.0922 168.201 15.3038 168.201 15.5357V20.283H166.084V12.391Z" fill="#33303E"/>
<path d="M186.54 17.8186C186.399 18.7056 186.041 19.3809 185.467 19.8445C184.902 20.2981 184.076 20.5249 182.987 20.5249C181.677 20.5249 180.689 20.162 180.024 19.4363C179.369 18.7106 179.041 17.6825 179.041 16.3521C179.041 15.6868 179.137 15.0972 179.328 14.5832C179.52 14.0591 179.787 13.6156 180.13 13.2527C180.482 12.8899 180.901 12.6177 181.385 12.4363C181.868 12.2448 182.403 12.149 182.987 12.149C184.197 12.149 185.104 12.4968 185.709 13.1922C186.323 13.8877 186.631 14.8251 186.631 16.0043V16.851H181.158C181.178 17.486 181.339 17.9849 181.642 18.3478C181.944 18.7005 182.398 18.8769 183.002 18.8769C183.839 18.8769 184.333 18.5241 184.484 17.8186H186.54ZM184.59 15.4601C184.59 14.9158 184.454 14.4925 184.182 14.1901C183.919 13.8877 183.506 13.7365 182.942 13.7365C182.66 13.7365 182.413 13.7819 182.201 13.8726C181.989 13.9633 181.808 14.0893 181.657 14.2506C181.516 14.4017 181.405 14.5832 181.324 14.7948C181.243 14.9964 181.198 15.2182 181.188 15.4601H184.59Z" fill="#33303E"/>
</svg>
